<?xml version="1.0" encoding="UTF-8"?>
<svg id="Capa_2" xmlns="http://www.w3.org/2000/svg" viewBox="0 0 510.81 510.93">
  <defs>
    <style>
      .cls-1 {
        fill: #010101;
      }

      .cls-2 {
        fill: #423f85;
      }

      .cls-3 {
        fill: #f2727e;
      }

      .cls-4 {
        fill: #fefefe;
      }
    </style>
  </defs>
  <g id="Capa_1-2" data-name="Capa_1">
    <g>
      <rect class="cls-4" x="70.17" y="50.01" width="335.59" height="410.02"/>
      <path class="cls-1" d="M0,218.61c2.24-1.38,1.86-4.04,2.93-6.02,5.69-10.49,14.31-16.41,26.31-16.85,7.47-.27,14.97-.29,22.44.01,3.62.15,4.28-1.01,4.27-4.41-.13-39.91-.05-79.81-.1-119.72-.01-12.79,5.39-22.3,16.63-28.45,4.49-2.46,9.42-3.14,14.43-3.14,33.92-.03,67.84-.03,101.76,0,7.24,0,11.75,3.84,11.82,9.84.07,6.18-4.54,10.09-12.12,10.09-33.09.02-66.18,0-99.27.01-9.75,0-13.27,3.44-13.27,13.11-.01,61.69.01,123.38-.06,185.06,0,2.72.85,4.57,2.74,6.47,51.11,51.18,102.2,102.38,153.14,153.72,3.13,3.15,4.56,3.02,7.6-.04,50.96-51.32,102.05-102.52,153.17-153.69,1.9-1.9,2.72-3.77,2.72-6.48-.09-30.76-.08-61.52-.03-92.28,0-2.64-.28-4.35-3.21-5.75-37.53-17.84-56.05-57.48-45.95-97.84.16-.63.15-1.29.25-2.28-1.8,0-3.45,0-5.1,0-19.12,0-38.24,0-57.37,0-8.7,0-13.29-3.39-13.37-9.86-.08-6.5,4.59-10.1,13.12-10.1,22.28,0,44.56-.1,66.84.1,3.74.03,5.79-1.14,7.98-4.17,24.98-34.62,68.49-45.56,106.49-27,31.37,15.33,49.49,50.91,45.45,85.74-3.85,33.14-31.87,65.26-66.67,71.49-9.35,1.68-18.73,2.06-28.54.71,0,8.98.08,17.77-.05,26.56-.04,2.87,1.81,2.2,3.33,2.2,7.32.03,14.63-.07,21.95.03,17.71.24,30.56,12.8,30.58,30.56.12,84.63.1,169.27.01,253.9-.02,15.78-9.02,26.53-24.41,30.02-.21.05-.33.5-.49.76H22.95c-6.74-3.27-13.62-6.4-17.66-13.24C3.41,494.52,1.76,491.22,0,487.98c0-89.79,0-179.58,0-269.37ZM436.2,490.82c-1.41-1.59-2.12-2.47-2.92-3.27-37.96-37.97-75.96-75.91-113.84-113.97-3-3.02-4.72-2.74-7.56.14-22.08,22.35-44.31,44.55-66.5,66.8-7.33,7.35-12.54,7.35-19.91-.03-22.31-22.36-44.64-44.7-66.87-67.13-2.31-2.33-3.57-3.33-6.52-.35-37.96,38.21-76.09,76.25-114.14,114.37-.93.93-2.67,1.54-2.2,3.44h400.47ZM20.41,235.23v240.79c1.62-1.55,2.72-2.55,3.77-3.61,37.74-37.73,75.43-75.52,113.3-113.12,3.26-3.23,2.84-4.75-.14-7.72-37.78-37.69-75.43-75.51-113.14-113.28-1.12-1.12-1.96-2.66-3.8-3.07ZM450.72,235.21c-2.05.36-2.87,1.93-3.98,3.04-37.8,37.86-75.54,75.77-113.42,113.55-2.88,2.88-3.08,4.38-.08,7.36,37.94,37.72,75.72,75.59,113.58,113.39,1.08,1.08,1.84,2.76,3.89,2.82v-240.16ZM426.96,147.77c35.63-.19,64.15-28.73,63.89-63.94-.27-35.91-28.66-63.95-64.56-63.75-35.04.2-63.34,28.98-63.13,64.23.21,35.16,28.85,63.65,63.8,63.46ZM55.86,241.11c0-7.83.01-15.12-.01-22.4,0-1.28.26-2.97-1.69-2.99-7.8-.08-15.59-.03-23.79-.03,8.73,8.7,16.83,16.78,25.5,25.42ZM415.05,239.85c8.15-8.14,16.3-16.27,24.26-24.22-6.64,0-13.92.03-21.2-.02-1.96-.01-3.11.44-3.09,2.74.08,7.42.03,14.84.03,21.5Z"/>
      <path class="cls-1" d="M258.04,278.78c-11.93-.47-26.11,1.19-40.05-2.1-42.87-10.11-70.16-50.41-63.59-93.89,8.31-55.05,68.84-86.61,118.16-60.74,27.56,14.45,43.49,37.76,44.7,69.67.32,8.42,1.18,16.95-.91,25.3-2.99,11.95-13.79,21.25-26.11,21.59-19.27.54-38.57.84-57.83-.15-18.76-.97-36.11-19.35-38.08-38.04-2.52-23.91,13.78-41.43,31.14-45.96,24.57-6.42,50.4,11.78,51.87,36.97.31,5.3.19,10.63.33,15.95.19,7.13,4.22,11.61,10.28,11.5,5.91-.1,9.5-4.39,9.51-11.58.01-11.59.36-23.1-3.91-34.35-8.97-23.64-33.61-40.63-58.77-39.82-49.28,1.58-77.84,53.72-51.9,95.59,11.49,18.54,28.63,29.32,50.95,29.86,19.27.47,38.56.22,57.85.23,5.04,0,8.81,2.08,10.39,6.86,1.42,4.29.21,8.17-3.42,11.14-2.23,1.83-4.86,1.96-7.53,1.97-10.31.01-20.62,0-33.07,0ZM259.22,218.65c-1.82-7.05-1.51-14.02-1.52-20.96,0-4.15-.13-8.26-2.1-12.1-4.85-9.49-15.37-14.36-25.49-11.73-9.68,2.51-16.77,12.35-16.12,22.38.73,11.36,9.21,21.44,19.78,22.28,8.38.67,16.86.13,25.45.13Z"/>
      <path class="cls-1" d="M235.33,59.98c-5.56-.06-10.06-4.78-9.86-10.34.19-5.35,4.73-9.67,10.09-9.61,5.56.07,10.06,4.79,9.86,10.34-.2,5.35-4.73,9.67-10.09,9.61Z"/>
      <path class="cls-2" d="M436.2,490.82H35.74c-.46-1.9,1.27-2.51,2.2-3.44,38.05-38.12,76.19-76.16,114.14-114.37,2.95-2.97,4.21-1.98,6.52.35,22.24,22.43,44.56,44.77,66.87,67.13,7.37,7.38,12.58,7.38,19.91.03,22.19-22.24,44.42-44.45,66.5-66.8,2.84-2.88,4.56-3.16,7.56-.14,37.88,38.06,75.88,75.99,113.84,113.97.8.8,1.51,1.68,2.92,3.27Z"/>
      <path class="cls-2" d="M20.41,235.23c1.84.41,2.68,1.95,3.8,3.07,37.71,37.77,75.35,75.59,113.14,113.28,2.97,2.97,3.39,4.48.14,7.72-37.87,37.6-75.56,75.39-113.3,113.12-1.05,1.05-2.15,2.06-3.77,3.61v-240.79Z"/>
      <path class="cls-2" d="M450.72,235.21v240.16c-2.05-.06-2.81-1.74-3.89-2.82-37.86-37.8-75.64-75.67-113.58-113.39-3-2.98-2.81-4.48.08-7.36,37.88-37.78,75.62-75.7,113.42-113.55,1.11-1.11,1.93-2.68,3.98-3.04Z"/>
      <path class="cls-3" d="M426.96,147.77c-34.95.19-63.6-28.31-63.8-63.46-.21-35.25,28.09-64.03,63.13-64.23,35.9-.2,64.29,27.84,64.56,63.75.26,35.21-28.26,63.75-63.89,63.94ZM416.32,81.59c0,9.63-.1,19.22.03,28.81.1,6.84,4.23,11.41,9.92,11.42,6.18,0,9.96-4.32,9.98-11.64.05-12.8.02-25.6,0-38.4,0-5.48.08-10.97-.13-16.45-.15-3.96-2.22-6.89-5.91-8.47-3.49-1.5-7.07-1.34-9.81,1.27-7.1,6.76-14.11,13.63-20.83,20.77-3.63,3.85-3.21,9.48.22,13.18,3.17,3.41,8.55,4.04,12.8,1.53,1.09-.65,1.76-2,3.71-2.01Z"/>
      <path class="cls-2" d="M55.86,241.11c-8.67-8.64-16.77-16.72-25.5-25.42,8.2,0,16-.04,23.79.03,1.95.02,1.69,1.71,1.69,2.99.03,7.28.01,14.57.01,22.4Z"/>
      <path class="cls-2" d="M415.05,239.85c0-6.67.05-14.09-.03-21.5-.02-2.3,1.12-2.75,3.09-2.74,7.28.05,14.56.02,21.2.02-7.96,7.95-16.11,16.09-24.26,24.22Z"/>
      <path class="cls-4" d="M259.22,218.65c-8.59,0-17.07.53-25.45-.13-10.56-.84-19.05-10.92-19.78-22.28-.64-10.03,6.44-19.86,16.12-22.38,10.12-2.63,20.63,2.25,25.49,11.73,1.96,3.84,2.09,7.95,2.1,12.1.01,6.94-.3,13.91,1.52,20.96Z"/>
      <path class="cls-1" d="M416.32,81.59c-1.96,0-2.62,1.36-3.71,2.01-4.25,2.51-9.63,1.88-12.8-1.53-3.43-3.69-3.84-9.33-.22-13.18,6.72-7.13,13.73-14,20.83-20.77,2.74-2.61,6.32-2.77,9.81-1.27,3.69,1.58,5.76,4.51,5.91,8.47.21,5.48.12,10.97.13,16.45.01,12.8.04,25.6,0,38.4-.03,7.32-3.8,11.65-9.98,11.64-5.69,0-9.82-4.58-9.92-11.42-.14-9.59-.03-19.17-.03-28.81Z"/>
    </g>
  </g>
</svg>