<?xml version="1.0" encoding="UTF-8"?>
<svg id="Capa_2" xmlns="http://www.w3.org/2000/svg" viewBox="0 0 510.6 510.71">
  <defs>
    <style>
      .cls-1 {
        fill: #eb5463;
      }

      .cls-2 {
        fill: #423e86;
      }

      .cls-3 {
        fill: #09090a;
      }

      .cls-4 {
        fill: #fdfdfd;
      }
    </style>
  </defs>
  <g id="Capa_1-2" data-name="Capa_1">
    <g>
      <path class="cls-3" d="M0,503.78V177.57c2.39-4.24,6.09-6.49,10.65-8.13,27.56-9.87,55.04-19.95,82.55-29.97,2.31-.84,4.22-1.48,4.66-4.81C106.16,72.38,157.12,17.71,219.24,3.97c6.68-1.48,13.61-1.59,20.1-3.97h30.92c.39,1.39,1.56.89,2.45.98,15.61,1.65,30.75,5.24,45.04,11.78,52.33,23.96,84.25,64.07,94.69,120.85.66,3.61,2.24,4.92,5.3,6.01,27.74,9.98,55.43,20.07,83.13,30.16,7.7,2.8,9.73,5.67,9.73,13.62,0,104.74.01,209.49,0,314.23,0,10.77-6.69,15.41-16.76,11.74-35.78-13.07-71.57-26.11-107.32-39.25-2.65-.97-4.98-.95-7.6-.07-39.08,13.11-78.2,26.11-117.26,39.28-4.3,1.45-8.2,1.55-12.54.09-39.06-13.18-78.17-26.18-117.24-39.32-2.82-.95-5.24-.91-8.07.13-34.97,12.87-69.98,25.62-104.99,38.39-9.83,3.58-12.49,2.88-18.81-4.85ZM393.18,158.22c-.15-7.66-.87-15.25-2.18-22.8-12.31-71.05-78.75-122.86-153.68-112.98-37.62,4.96-68.38,22.8-91.57,52.9-19.72,25.59-29.57,54.63-28.37,87.19.69,18.71,5.98,36.35,12.81,53.5,20.36,51.16,49.59,96.84,86.49,137.61,9.25,10.23,19.16,19.83,31.25,26.88,4.96,2.89,9.56,2.98,14.48.06,5.02-2.97,9.78-6.28,14.17-10.11,16.86-14.74,31.26-31.69,44.46-49.68,26.24-35.78,48.64-73.69,63.25-115.82,5.24-15.11,9.22-30.53,8.9-46.72ZM489.5,484.8v-6.49c0-69.8,0-139.61,0-209.41,0-25.26-.02-50.53.03-75.79,0-2.83-.15-4.87-3.53-6.07-22.35-7.95-44.62-16.13-66.89-24.31-2.85-1.05-4.25-1.33-4.57,2.67-1.65,21.02-7.4,41.02-15.13,60.58-2.28,5.76-5.71,11.17-5.7,17.85.1,67.15.1,134.29-.02,201.44,0,3.75,1.04,5.48,4.67,6.75,18.01,6.3,35.89,12.95,53.83,19.44,12.28,4.44,24.59,8.81,37.31,13.36ZM21.09,336.64c0,47.71.04,95.42-.07,143.12,0,4.03.46,5.04,4.79,3.44,28.8-10.63,57.69-21,86.61-31.29,3.42-1.22,4.47-2.98,4.46-6.52-.1-67.32-.08-134.65-.04-201.97,0-2.56-.54-4.86-1.54-7.2-9.58-22.54-17.36-45.61-19.23-70.23-.33-4.31-1.48-4.45-4.97-3.16-21.16,7.84-42.3,15.75-63.63,23.1-5.29,1.82-6.51,4.38-6.49,9.57.19,47.04.11,94.09.11,141.13ZM371.69,284.14c-.97-.14-1.25.57-1.55,1.09-16.48,28.17-35.42,54.57-57.15,78.9-12.73,14.26-26.06,28.01-43.72,36.38-2.84,1.35-3.18,3.29-3.17,5.97.06,24.42.14,48.85-.06,73.27-.04,4.49.93,5.26,5.2,3.83,31.75-10.69,63.54-21.24,95.38-31.63,4.09-1.33,5.63-3.11,5.61-7.61-.17-51.84-.11-103.67-.14-155.51,0-1.56.49-3.23-.4-4.69ZM139.12,283.42c-.34,1.04-.6,1.45-.6,1.86-.02,53.83-.02,107.66-.07,161.49,0,2.38.87,3.53,3.15,4.28,33.07,10.9,66.13,21.86,99.16,32.91,2.92.98,3.76.41,3.75-2.67-.08-25.25-.07-50.51,0-75.76,0-2.32-.78-3.59-2.9-4.55-11.06-4.98-20.21-12.63-28.86-20.95-23.84-22.93-43.34-49.33-61.31-76.94-4.12-6.33-8.02-12.79-12.32-19.67Z"/>
      <path class="cls-1" d="M393.18,158.22c.32,16.2-3.66,31.61-8.9,46.72-14.61,42.13-37.01,80.05-63.25,115.82-13.2,18-27.6,34.95-44.46,49.68-4.39,3.84-9.14,7.14-14.17,10.11-4.92,2.91-9.52,2.83-14.48-.06-12.09-7.04-21.99-16.65-31.25-26.88-36.89-40.77-66.13-86.45-86.49-137.61-6.82-17.15-12.11-34.79-12.81-53.5-1.21-32.56,8.65-61.59,28.37-87.19,23.19-30.1,53.95-47.94,91.57-52.9,74.93-9.88,141.38,41.93,153.68,112.98,1.31,7.55,2.03,15.14,2.18,22.8ZM329.17,160.02c.35-41.06-33.03-74.65-74.49-74.95-40.04-.29-73.96,33.39-74.24,73.7-.29,41.62,32.83,75.13,74.52,75.4,40.35.26,73.86-33.22,74.22-74.14Z"/>
      <path class="cls-2" d="M489.5,484.8c-12.72-4.55-25.03-8.92-37.31-13.36-17.94-6.48-35.83-13.13-53.83-19.44-3.63-1.27-4.67-3-4.67-6.75.12-67.15.13-134.29.02-201.44-.01-6.68,3.42-12.09,5.7-17.85,7.74-19.55,13.48-39.56,15.13-60.58.31-4,1.72-3.71,4.57-2.67,22.27,8.18,44.54,16.36,66.89,24.31,3.39,1.2,3.54,3.24,3.53,6.07-.05,25.26-.03,50.53-.03,75.79,0,69.8,0,139.61,0,209.41v6.49Z"/>
      <path class="cls-2" d="M21.09,336.64c0-47.04.08-94.09-.11-141.13-.02-5.19,1.2-7.75,6.49-9.57,21.33-7.34,42.47-15.26,63.63-23.1,3.49-1.29,4.64-1.16,4.97,3.16,1.87,24.62,9.65,47.69,19.23,70.23,1,2.35,1.54,4.65,1.54,7.2-.04,67.32-.06,134.65.04,201.97,0,3.54-1.04,5.3-4.46,6.52-28.92,10.29-57.81,20.66-86.61,31.29-4.34,1.6-4.8.59-4.79-3.44.1-47.71.07-95.42.07-143.12Z"/>
      <path class="cls-2" d="M371.69,284.14c.89,1.46.4,3.13.4,4.69.03,51.84-.04,103.68.14,155.51.02,4.49-1.52,6.27-5.61,7.61-31.84,10.39-63.64,20.95-95.38,31.63-4.27,1.44-5.23.66-5.2-3.83.2-24.42.12-48.85.06-73.27,0-2.68.33-4.62,3.17-5.97,17.66-8.38,30.99-22.13,43.72-36.38,21.73-24.33,40.68-50.74,57.15-78.9.31-.52.58-1.23,1.55-1.09Z"/>
      <path class="cls-2" d="M139.12,283.42c4.3,6.88,8.2,13.34,12.32,19.67,17.97,27.61,37.47,54.01,61.31,76.94,8.65,8.32,17.8,15.97,28.86,20.95,2.13.96,2.91,2.23,2.9,4.55-.07,25.25-.08,50.51,0,75.76,0,3.08-.82,3.65-3.75,2.67-33.03-11.04-66.08-22-99.16-32.91-2.28-.75-3.15-1.9-3.15-4.28.05-53.83.04-107.66.07-161.49,0-.41.25-.82.6-1.86Z"/>
      <path class="cls-3" d="M329.17,160.02c-.35,40.92-33.86,74.4-74.22,74.14-41.69-.26-74.81-33.78-74.52-75.4.28-40.31,34.21-73.98,74.24-73.7,41.46.3,74.84,33.89,74.49,74.95ZM254.38,212.69c29.57.15,53.68-23.7,53.67-53.1,0-29.01-23.74-52.83-52.8-53-29.42-.17-53.51,23.45-53.62,52.58-.11,29.43,23.48,53.37,52.75,53.52Z"/>
      <path class="cls-4" d="M254.38,212.69c-29.26-.15-52.86-24.08-52.75-53.52.11-29.13,24.2-52.75,53.62-52.58,29.06.17,52.79,23.99,52.8,53,0,29.4-24.1,53.24-53.67,53.1Z"/>
    </g>
  </g>
</svg>