<?xml version="1.0" encoding="UTF-8"?>
<svg id="Capa_2" xmlns="http://www.w3.org/2000/svg" viewBox="0 0 510.84 510.84">
  <defs>
    <style>
      .cls-1 {
        fill: #010101;
      }

      .cls-2 {
        fill: #413f85;
      }
    </style>
  </defs>
  <g id="Capa_1-2" data-name="Capa_1">
    <g>
      <path class="cls-1" d="M0,114.76c2.61-7.29,2.75-15.09,4.72-22.54,3.5-13.24,8.42-25.87,15.49-37.54,4.74-7.83,12.41-12.92,19.92-17.8,19.08-12.39,39.02-23.17,60.21-31.61,14.59-5.81,29.34-6.48,44.42-2.8,9.93,2.42,17.72,8.14,23.71,16.3,14.46,19.67,28.92,39.33,43.26,59.09,14.86,20.49,13.16,43.23-4.3,61.49-13.9,14.54-27.63,29.24-41.6,43.71-2.29,2.37-2.35,4.05-.83,6.8,12.93,23.37,28.88,44.57,46.54,64.5,27.78,31.36,58.52,59.4,93.78,82.24,5,3.24,10.39,5.89,15.4,9.12,2.92,1.88,4.74,1.47,7.22-.92,14.38-13.83,29-27.4,43.43-41.18,10.48-10.02,22.51-15.54,37.32-14.28,9.11.77,16.9,4.48,24.11,9.73,19.73,14.37,39.39,28.84,59.17,43.15,11.13,8.05,16.1,19.17,18,32.47,1.96,13.67-.56,26.36-5.78,38.84-9.19,21.94-20.46,42.7-33.89,62.36-10.52,15.41-26.21,22.41-43.04,27.7-10.62,3.33-21.46,5.82-32.65,6.34-.7.03-1.29.14-1.52.91h-30.93c-4.7-2.33-9.9-1.63-14.85-2.47-39.39-6.72-75.93-21.27-110-41.7-80.27-48.15-144.87-112.24-192.76-192.79C25.13,241.21,10.48,206.52,3.41,168.91c-1.2-6.4-1.08-13.04-3.41-19.23v-34.92ZM380.06,468.97c5.89.16,13.86-.58,21.65-2.17,16.97-3.46,33.55-7.83,41.58-25.81.07-.15.17-.29.27-.42,2.24-2.81,1.7-4.69-1.36-6.79-24.51-16.84-48.34-34.61-71.67-53.06-3.37-2.66-6.36-7.22-10.32-7.35-4.41-.14-6.55,5.51-10.1,8.12-5.17,3.79-8.86,9.54-15.54,11.33-8.22,2.2-15.34-.91-22.39-4.38-35.35-17.43-66.17-41.24-94.83-67.97-21.54-20.09-41.48-41.68-59.28-65.2-14.87-19.66-28.21-40.24-38.37-62.79-4.1-9.1-3.3-17.4,3.46-24.9,3.78-4.19,7.43-8.54,11.56-12.37,3.24-3,3.42-5.2.54-8.65-7.02-8.41-13.71-17.1-20.4-25.79-12.98-16.84-25.37-34.12-37.52-51.57-1.01-1.45-1.81-4.63-4.2-3.27-7.27,4.14-15.67,7.11-19.78,15.22-12.71,25.1-13.6,51.61-8.91,78.69,5.81,33.52,19.43,64.05,36.43,93.17,24.81,42.51,56.1,79.76,92.08,113.26,36.01,33.53,75.45,61.96,120.48,82.13,26.85,12.03,54.73,20.28,86.61,20.55ZM127.05,42.01c-3.54-.41-6.5.72-9.48,1.77-5.65,1.99-5.66,2.05-2.29,6.86,14.3,20.4,29.21,40.35,44.66,59.9,7.86,9.95,7.76,9.85,16.76.53,3.14-3.25,3.28-5.72.55-9.39-13.38-17.99-26.6-36.09-39.63-54.33-2.85-3.98-6.18-5.71-10.57-5.34ZM468.81,383.78c.12-4.34-1.69-7.94-6.23-11.11-15.9-11.12-31.23-23.06-47.1-34.22-13.38-9.41-8.5-10.71-21.75,1.57-2.42,2.24-3.08,3.54.14,5.94,10.11,7.53,19.77,15.65,29.88,23.17,12.64,9.4,25.55,18.45,38.36,27.62,1.27.91,2.81,2.62,3.79-.22,1.34-3.89,3.22-7.68,2.91-12.75Z"/>
      <path class="cls-1" d="M468.91,71.2c-6.63,6.77-12.25,12.59-17.96,18.31-33.6,33.66-67.2,67.3-100.83,100.92-8.41,8.41-17.57,10.2-26.56,5.31-11.44-6.22-14.54-20.91-6.5-31.15,1.43-1.82,3.12-3.45,4.76-5.1,37.72-37.77,75.44-75.52,113.18-113.26,1.15-1.15,2.53-2.09,3.35-4.3-1.72,0-3.45,0-5.17,0-30.1,0-60.19.03-90.29-.02-9.73-.02-16.98-5.28-20.03-14.21-2.93-8.55,0-17.87,7.35-23.55,3.86-2.99,8.34-4.08,13.06-4.09,48.55-.04,97.1-.09,145.65.01,12.93.03,21.85,9.13,21.86,22.15.07,48.38.07,96.77-.01,145.15-.02,12.51-9.43,22.12-21.06,21.98-11.77-.13-20.76-9.61-20.79-22.22-.07-31.42-.02-62.85-.02-95.93Z"/>
      <path class="cls-2" d="M380.06,468.97c-31.88-.27-59.76-8.52-86.61-20.55-45.03-20.17-84.47-48.6-120.48-82.13-35.98-33.5-67.27-70.75-92.08-113.26-17-29.12-30.62-59.65-36.43-93.17-4.69-27.08-3.81-53.59,8.91-78.69,4.11-8.11,12.51-11.08,19.78-15.22,2.39-1.36,3.2,1.82,4.2,3.27,12.15,17.45,24.54,34.73,37.52,51.57,6.69,8.68,13.38,17.37,20.4,25.79,2.87,3.45,2.69,5.64-.54,8.65-4.13,3.83-7.78,8.17-11.56,12.37-6.76,7.5-7.56,15.8-3.46,24.9,10.16,22.54,23.5,43.13,38.37,62.79,17.8,23.52,37.74,45.11,59.28,65.2,28.66,26.73,59.48,50.54,94.83,67.97,7.04,3.47,14.16,6.57,22.39,4.38,6.68-1.79,10.38-7.54,15.54-11.33,3.55-2.61,5.69-8.26,10.1-8.12,3.97.13,6.96,4.68,10.32,7.35,23.32,18.45,47.16,36.22,71.67,53.06,3.06,2.1,3.59,3.99,1.36,6.79-.1.13-.21.27-.27.42-8.03,17.98-24.61,22.35-41.58,25.81-7.8,1.59-15.76,2.33-21.65,2.17Z"/>
      <path class="cls-2" d="M127.05,42.01c4.39-.38,7.72,1.35,10.57,5.34,13.03,18.24,26.25,36.35,39.63,54.33,2.74,3.68,2.59,6.15-.55,9.39-9,9.32-8.9,9.42-16.76-.53-15.45-19.55-30.35-39.5-44.66-59.9-3.37-4.81-3.36-4.87,2.29-6.86,2.98-1.05,5.94-2.19,9.48-1.77Z"/>
      <path class="cls-2" d="M468.81,383.78c.31,5.07-1.56,8.85-2.91,12.75-.98,2.84-2.52,1.13-3.79.22-12.81-9.18-25.72-18.22-38.36-27.62-10.11-7.52-19.78-15.64-29.88-23.17-3.22-2.4-2.56-3.7-.14-5.94,13.25-12.28,8.37-10.98,21.75-1.57,15.87,11.17,31.2,23.1,47.1,34.22,4.53,3.17,6.35,6.77,6.23,11.11Z"/>
    </g>
  </g>
</svg>