<?xml version="1.0" ?><!DOCTYPE svg  PUBLIC '-//W3C//DTD SVG 1.1//EN'  'http://www.w3.org/Graphics/SVG/1.1/DTD/svg11.dtd'><svg height="100%" style="fill-rule:evenodd;clip-rule:evenodd;stroke-linejoin:round;stroke-miterlimit:2;" version="1.1" viewBox="0 0 32 32" width="100%" xml:space="preserve" xmlns="http://www.w3.org/2000/svg" xmlns:serif="http://www.serif.com/" xmlns:xlink="http://www.w3.org/1999/xlink"><path d="M16,1c-8.279,0 -15,6.721 -15,15c0,8.279 6.721,15 15,15c8.279,0 15,-6.721 15,-15c0,-8.279 -6.721,-15 -15,-15Zm0,2c7.175,0 13,5.825 13,13c0,7.175 -5.825,13 -13,13c-7.175,0 -13,-5.825 -13,-13c0,-7.175 5.825,-13 13,-13Zm-1,3l0,10c0,0.265 0.105,0.52 0.293,0.707l6,6c0.39,0.39 1.024,0.39 1.414,0c0.39,-0.39 0.39,-1.024 0,-1.414l-5.707,-5.707c-0,-0 0,-9.586 0,-9.586c0,-0.552 -0.448,-1 -1,-1c-0.552,-0 -1,0.448 -1,1Z"/></svg>