<?xml version="1.0" encoding="UTF-8"?>
<svg id="Capa_2" xmlns="http://www.w3.org/2000/svg" viewBox="0 0 235.86 209.09">
  <defs>
    <style>
      .cls-1 {
        fill: none;
      }

      .cls-2 {
        fill: #0192f3;
      }
    </style>
  </defs>
  <g id="Capa_1-2" data-name="Capa_1">
    <g>
      <path class="cls-1" d="M40.75,112.83c-5.54,24.94-11.05,49.72-16.59,74.68h31.47c.24-.87.5-1.71.69-2.57,2.69-12.07,5.36-24.15,8.06-36.22,1.47-6.55,7.11-10.45,13.01-9.04,6.1,1.45,9.35,7.04,7.9,13.69-2.47,11.31-4.98,22.61-7.52,34.12h81.48c-2.54-11.5-5.04-22.81-7.52-34.12-1.45-6.64,1.79-12.23,7.9-13.69,5.9-1.4,11.54,2.49,13.01,9.04,2.7,12.07,5.37,24.15,8.06,36.22.19.85.45,1.68.69,2.54h30.34c-5.56-25-11.08-49.87-16.59-74.65H40.75Z"/>
      <path class="cls-1" d="M134.03,25h0v-3.56h-32.16c0,8.15,0,16.31.01,24.46,0,.74.14,1.48.22,2.28v21.8H21.63v21.03h192.56v-21.03h-80.17V25Z"/>
      <path class="cls-2" d="M223.68,112.63c7.97-.03,12.15-4.21,12.16-12.21.02-13.17.01-26.34,0-39.52,0-8.45-4.09-12.57-12.47-12.57-21.44,0-42.87,0-64.31,0h-3.61v-6.23c0-6.88,0-13.77.01-20.65,0-5.15.01-10.29.02-15.44,0-3.32-2.68-6.01-6-6.01h-63.08c-3.31,0-6,2.69-6,6,0,5.15,0,10.3,0,15.45,0,7.57,0,15.13,0,22.7v4.18h-3.98c-21.66,0-43.32-.02-64.98.01-6.78,0-11.37,4.34-11.41,10.91-.08,14.18-.08,28.35,0,42.53.03,6.24,4.58,10.68,10.82,10.84,2.55.06,5.11.01,7.81.01-.14.82-.21,1.36-.32,1.9-5.95,26.88-11.92,53.76-17.85,80.64-1.74,7.89,2.93,13.91,10.92,13.91,71.01.03,142.02.03,213.02,0,7.83,0,12.64-6.02,10.98-13.6-3.29-15.02-6.65-30.03-9.98-45.05-2.77-12.5-5.54-25-8.38-37.79,2.39,0,4.5,0,6.61,0ZM181.39,187.49c-.24-.86-.5-1.69-.69-2.54-2.69-12.07-5.36-24.15-8.06-36.22-1.47-6.55-7.11-10.45-13.01-9.04-6.1,1.45-9.35,7.04-7.9,13.69,2.47,11.31,4.98,22.61,7.52,34.12h-81.48c2.54-11.5,5.04-22.81,7.52-34.12,1.45-6.64-1.79-12.23-7.9-13.69-5.9-1.4-11.54,2.49-13.01,9.04-2.7,12.07-5.37,24.15-8.06,36.22-.19.86-.46,1.7-.69,2.57h-31.47c5.54-24.96,11.05-49.74,16.59-74.68h154.39c5.51,24.78,11.03,49.65,16.59,74.65h-30.34ZM214.19,91.03H21.63v-21.03h80.47v-21.8c-.08-.8-.22-1.54-.22-2.28,0-8.15,0-16.31-.01-24.46h32.16v3.56h0v44.99h80.17v21.03Z"/>
    </g>
  </g>
</svg>