<?xml version="1.0" encoding="UTF-8"?>
<svg id="Capa_2" xmlns="http://www.w3.org/2000/svg" viewBox="0 0 340.23 383.15">
  <defs>
    <style>
      .cls-1 {
        fill: #01b2fd;
      }

      .cls-2 {
        fill: #fcb42a;
      }

      .cls-3 {
        fill: #fb8c03;
      }

      .cls-4 {
        fill: #c5e0eb;
      }

      .cls-5 {
        fill: #fde058;
      }

      .cls-6 {
        fill: #fdb429;
      }

      .cls-7 {
        fill: #022554;
      }

      .cls-8 {
        fill: #0374f8;
      }

      .cls-9 {
        fill: #ecf3f9;
      }

      .cls-10 {
        fill: #01368f;
      }
    </style>
  </defs>
  <g id="Capa_1-2" data-name="Capa_1">
    <path class="cls-7" d="M170.05.16c28.67-.04,57.34-.07,86.01-.15,1.37,0,2.3.62,3.34,1.34,26.1,18.24,52.21,36.46,78.35,54.63,1.69,1.17,2.48,2.38,2.48,4.54-.16,42.14,0,84.28-.44,126.41-.19,17.62-5.81,34.16-13.01,50.08-16.07,35.5-40.56,64.51-69.75,89.83-25.7,22.29-54.3,40.2-84.68,55.35-.54.27-1.04.63-1.56.95h-.75c0-11.18,0-22.37,0-33.55,0-1.47-.3-3,.69-4.32,23.94-13.16,46.64-28.12,67.08-46.34,22.78-20.31,42.35-43.18,55.89-70.78,6.48-13.21,11.98-26.9,12.42-41.76,1.06-36.14.21-72.3.47-108.45.02-2.19-.92-3.31-2.6-4.47-17.68-12.27-35.35-24.56-52.9-37-2.79-1.98-5.5-2.83-8.91-2.82-24.06.07-48.12-.03-72.17-.08.01-11.13.03-22.27.04-33.4Z"/>
    <path class="cls-10" d="M170.74,345.27c-.99,1.32-.69,2.85-.69,4.32-.01,11.18,0,22.37,0,33.55h-.75c-5.66-3.05-11.34-6.08-16.99-9.15-34.93-18.98-66.88-41.94-94.05-71.15-23.14-24.88-41.85-52.54-52.21-85.27C2.11,205.15,0,192.45.03,179.37.11,139.98.08,100.58,0,61.19c0-2.54.8-3.99,2.88-5.43C28.66,37.86,54.37,19.86,80.1,1.89,81.4.98,82.59,0,84.42,0c28.54.09,57.09.12,85.63.16-.01,11.13-.03,22.27-.04,33.4,0,0,.06.28.06.28-25.04-.05-50.09-.08-75.13-.17-1.68,0-2.8.87-4,1.71-18.17,12.68-36.32,25.4-54.54,38.01-1.94,1.34-2.73,2.7-2.73,5.13.09,33.89.08,67.79.05,101.69,0,6.26.71,12.42,2.12,18.5,5.15,22.09,15.82,41.51,29.14,59.58,21.11,28.66,47.65,51.44,77.35,70.71,8.95,5.81,17.96,11.57,27.72,16,.23.09.46.18.69.27Z"/>
    <path class="cls-4" d="M170.74,345.27c-.23-.09-.46-.18-.69-.27,0-8.48-.01-16.95-.02-25.43,21.11-12.37,41.03-26.38,58.87-43.21,18.16-17.14,33.79-36.21,44.77-58.79,5.35-10.99,9.88-22.42,10-34.78.3-30.9.09-61.81.14-92.71,0-2.03-.47-3.35-2.27-4.59-13.13-9.02-26.18-18.15-39.19-27.35-2.05-1.45-4.07-2.03-6.55-2.02-21.93.04-43.86-.02-65.79-.06.02-7.4.04-14.8.06-22.21l-.06-.28c24.06.05,48.12.15,72.17.08,3.41-.01,6.12.84,8.91,2.82,17.56,12.44,35.22,24.73,52.9,37,1.67,1.16,2.61,2.27,2.6,4.47-.26,36.15.59,72.31-.47,108.45-.44,14.86-5.94,28.55-12.42,41.76-13.54,27.6-33.11,50.47-55.89,70.78-20.44,18.22-43.13,33.19-67.08,46.34Z"/>
    <path class="cls-9" d="M170.07,33.85c-.02,7.4-.04,14.8-.06,22.21,0,0,.07.2.07.2-22.56-.03-45.11-.04-67.67-.14-1.8,0-3.06.77-4.39,1.7-13.07,9.14-26.1,18.32-39.24,27.35-2.01,1.38-2.64,2.84-2.64,5.2.08,29.91.04,59.82.08,89.74,0,2.73.13,5.49.53,8.19,2.57,17.24,10.1,32.47,19.43,46.89,17.09,26.43,39.55,47.65,64.97,65.87,9.28,6.66,18.68,13.19,28.97,18.26l-.08.26c0,8.48.01,16.95.02,25.43-9.76-4.42-18.77-10.19-27.72-16-29.7-19.27-56.24-42.06-77.35-70.71-13.32-18.07-23.99-37.49-29.14-59.58-1.42-6.09-2.13-12.24-2.12-18.5.03-33.9.04-67.79-.05-101.69,0-2.43.79-3.78,2.73-5.13,18.22-12.62,36.37-25.33,54.54-38.01,1.21-.84,2.32-1.72,4-1.71,25.04.1,50.09.13,75.13.17Z"/>
    <path class="cls-8" d="M170.01,56.05c21.93.03,43.86.1,65.79.06,2.48,0,4.5.58,6.55,2.02,13,9.2,26.06,18.33,39.19,27.35,1.8,1.24,2.28,2.56,2.27,4.59-.05,30.9.17,61.81-.14,92.71-.12,12.37-4.65,23.79-10,34.78-10.99,22.58-26.62,41.65-44.77,58.79-17.84,16.84-37.76,30.84-58.87,43.21,0,0,.08-.26.08-.26,0-27.66.02-55.33.03-82.99,1.37-.04,2.73-.12,4.1-.12,18.06,0,36.11-.05,54.17.05,2.59.01,3.38-.72,3.37-3.35-.08-30.26-.08-60.52,0-90.78,0-2.21-.47-3.05-2.86-2.96-4.85.17-9.71,0-14.57-.03-.22-5.09.44-10.24-.61-15.27-4.66-22.23-20.73-35.83-43.68-37.08,0-10.17,0-20.35.01-30.52l-.07-.2Z"/>
    <path class="cls-1" d="M170.15,236.33c0,27.66-.02,55.33-.03,82.99-10.3-5.07-19.69-11.61-28.97-18.26-25.42-18.23-47.87-39.44-64.97-65.87-9.33-14.42-16.86-29.65-19.43-46.89-.4-2.7-.53-5.46-.53-8.19-.04-29.91,0-59.82-.08-89.74,0-2.36.63-3.81,2.64-5.2,13.14-9.03,26.17-18.21,39.24-27.35,1.33-.93,2.59-1.71,4.39-1.7,22.56.1,45.11.11,67.67.14,0,10.17,0,20.35-.01,30.52,0,0,.02.28.02.28-19.03.71-32.59,9.73-40.71,26.92-3.79,8.01-3.65,16.6-3.59,25.17-4.85.02-9.71.14-14.56.02-2.1-.05-2.73.58-2.73,2.7.06,30.5.06,61,0,91.51,0,1.9.48,2.6,2.49,2.59,19.67-.1,39.34-.12,59-.16.08.16.13.34.15.52Z"/>
    <path class="cls-6" d="M170.15,236.33c-.02-.18-.07-.36-.15-.52,0-12.23,0-24.47.02-36.7,2.85,0,5.7-.07,8.55,0,1.8.05,2.75-.46,2.73-2.49-.08-6.07-.08-12.15,0-18.22.03-2-.85-2.59-2.69-2.53-2.85.08-5.7.02-8.55.02,0-12.19,0-24.37,0-36.56,7.21-.06,14.42-.11,21.63-.17,7.56-.01,15.11-.03,22.67-.04,4.86.03,9.72.2,14.57.03,2.39-.08,2.86.75,2.86,2.96-.07,30.26-.07,60.52,0,90.78,0,2.63-.78,3.37-3.37,3.35-18.06-.1-36.11-.06-54.17-.05-1.37,0-2.73.08-4.1.12Z"/>
    <path class="cls-3" d="M214.36,139.12c-7.56.01-15.11.03-22.67.04.02-2.49.07-4.99.06-7.48-.07-12.45-9.04-21.52-21.58-21.87,0-.18-.06-.34-.15-.49.03-7.42.05-14.84.08-22.27,0,0-.02-.28-.02-.28,22.95,1.24,39.03,14.85,43.68,37.08,1.05,5.03.39,10.18.61,15.27Z"/>
    <path class="cls-5" d="M170.06,139.33c0,12.19,0,24.37,0,36.56h0c-2.85,0-5.7.06-8.55-.02-1.81-.05-2.74.46-2.71,2.49.08,6.07.08,12.14,0,18.21-.03,1.99.83,2.59,2.67,2.54,2.85-.08,5.7-.01,8.55,0h0c0,12.24,0,24.47-.01,36.71-19.67.04-39.34.05-59,.16-2.02.01-2.5-.69-2.49-2.59.05-30.5.05-61,0-91.51,0-2.13.63-2.75,2.73-2.7,4.85.12,9.71,0,14.56-.02,7.53,0,15.05.02,22.58.02,7.23-.03,14.45-.06,21.68-.09,0,0,.02.25.02.25Z"/>
    <path class="cls-2" d="M148.36,139.17c-7.53,0-15.05-.02-22.58-.02-.06-8.57-.2-17.16,3.59-25.17,8.13-17.19,21.68-26.21,40.71-26.92-.03,7.42-.05,14.84-.08,22.27-11.93,1.58-19.42,7.79-21.38,17.95-.75,3.92-.33,7.92-.27,11.89Z"/>
    <path class="cls-8" d="M170.16,109.82c12.55.35,21.51,9.42,21.58,21.87.01,2.49-.04,4.99-.06,7.48-7.21.06-14.42.11-21.63.17,0,0-.02-.25-.01-.25.04-9.75.08-19.51.12-29.26Z"/>
    <path class="cls-3" d="M170.06,175.89c2.85,0,5.7.06,8.55-.02,1.84-.05,2.71.53,2.69,2.53-.08,6.07-.08,12.15,0,18.22.03,2.03-.92,2.54-2.73,2.49-2.85-.07-5.7,0-8.55,0,0,0,0,0,0,0,.01-7.74.03-15.47.04-23.21h0Z"/>
    <path class="cls-1" d="M170.16,109.82c-.04,9.75-.08,19.51-.12,29.26-7.23.03-14.45.06-21.68.09-.06-3.97-.48-7.98.27-11.89,1.95-10.17,9.45-16.37,21.38-17.95.09.15.15.32.15.49Z"/>
    <path class="cls-6" d="M170.05,175.89c-.01,7.74-.03,15.47-.04,23.21-2.85,0-5.7-.08-8.55,0-1.85.05-2.7-.55-2.67-2.54.08-6.07.08-12.14,0-18.21-.03-2.03.91-2.54,2.71-2.49,2.85.08,5.7.02,8.55.02Z"/>
  </g>
</svg>