<?xml version="1.0" encoding="UTF-8"?>
<svg id="Capa_2" xmlns="http://www.w3.org/2000/svg" viewBox="0 0 383.15 365.73">
  <defs>
    <style>
      .cls-1 {
        fill: #519d2d;
      }

      .cls-2 {
        fill: #48a3de;
      }

      .cls-3 {
        fill: #7dc053;
      }

      .cls-4 {
        fill: #6fb948;
      }

      .cls-5 {
        fill: #4193d1;
      }

      .cls-6 {
        fill: #3a8cbe;
      }

      .cls-7 {
        fill: #dc4247;
      }

      .cls-8 {
        fill: #4b9a2a;
      }

      .cls-9 {
        fill: #e45353;
      }

      .cls-10 {
        fill: #fefefe;
      }
    </style>
  </defs>
  <g id="Capa_1-2" data-name="Capa_1">
    <g>
      <path class="cls-2" d="M0,174.29c1.25-1.08.66-2.53.73-3.82.37-7.03.66-14.06.98-21.09.49-.01,1.01.07,1.47-.05,21.68-6.05,43.76-10.47,65.61-15.82,3.98-.97,7.67-.34,10.99,2.1,4.22,3.1,8.55,6.06,12.57,9.39,11.27,9.33,23.32,15.86,38.65,11.9,0,0-.05.23-.05.23.01,8.49.03,16.97.04,25.46-.05.19-.09.39-.13.58-6.87,3.55-11.16,9.29-12.55,16.69-1.74,9.25-2.65,18.65-3.98,27.98-1.66,11.61,5.53,23.68,16.46,27.53.03.17.08.34.16.5-.01,19.69-.02,39.38-.03,59.08-.86.08-1.75.07-2.59.25-10.2,2.16-20.56,3.1-30.94,3.44-10.42.34-20.82-.1-31.22-1.32-12.73-1.49-25.12-4.21-37.39-7.78-8.36-2.43-16.17-6.32-24.49-8.83-1.38-6.69-1.48-13.52-1.96-20.3-.74-10.4-1.08-20.82-1.59-31.23-.03-.62-.06-1.25-.74-1.56v-73.33Z"/>
      <path class="cls-5" d="M338.66,72.72c19.91-1.69,37.11,13.28,39.13,33.84,4.06,41.21,6.01,82.5,5.16,123.91-.41,19.93-1.31,39.85-3.01,59.71-1.2,13.95-9.07,23.45-21.48,29.21-16.94,7.86-34.01,15.42-51.01,23.14-14.62,6.64-29.23,13.3-43.83,19.99-3.9,1.78-7.94,2.89-12.22,3.09.01-3.88.02-7.77.03-11.65.02-.23.05-.47.07-.7,5.88-6.1,11.86-12.1,17.59-18.34,3.52-3.83,5.73-8.5,6.23-13.73,1.36-14.49,2.56-28.99,3.85-43.48.41-4.59,1.13-9,3.72-13.09,4.45-7.05,8.37-14.44,12.68-21.59,4.56-7.56,8.63-15.18,7.44-24.5-.47-3.7-.42-7.46-.87-11.16-1.03-8.54-4.38-15.79-11.99-20.52,9.49-10.36,18.86-20.81,26.56-32.64,16.14-24.79,26.76-51.06,21.94-81.48Z"/>
      <path class="cls-9" d="M165.43,66.65c3.31-10.43,7.34-20.52,13.9-29.41C194.87,16.14,215.47,3.63,241.62.63c23.86-2.74,45.21,3.53,64.26,18,.58.44,1.04,1.04,1.56,1.56-.58.49-.37,1.03-.22,1.67,2.68,11.48,4.05,23.02,3.44,34.9-.56,11.02-2.38,21.69-6.01,32.03-6.62,18.86-17.23,35.06-32.2,48.48-11.18,10.02-23.66,17.65-37.73,22.76-12.6,4.57-25.59,6.96-39,6.88-.89-1.02-1.84-2-2.67-3.07-8.29-10.71-14.88-22.45-20.87-34.55-.44-1.29-.84-2.59-1.34-3.86-4.96-12.61-8.04-25.55-7.78-39.23.13-6.64,1.48-13.06,2.37-19.57ZM251.65,52.9c-18.74-.06-33.83,14.81-33.94,33.45-.11,18.89,14.87,34.06,33.69,34.12,18.74.05,33.74-14.77,33.9-33.49.16-18.95-14.71-34.01-33.64-34.08Z"/>
      <path class="cls-7" d="M195.72,166.92c13.42.07,26.41-2.31,39-6.89,14.07-5.11,26.55-12.74,37.73-22.76,14.97-13.42,25.58-29.62,32.2-48.48,3.63-10.34,5.45-21.01,6.01-32.03.6-11.87-.77-23.42-3.44-34.9-.15-.64-.35-1.18.22-1.67,16.46,13.31,26.47,30.51,30.79,51.13.1.48.29.93.44,1.4,4.82,30.43-5.8,56.69-21.94,81.48-7.7,11.83-17.07,22.28-26.56,32.64-3.68,3.34-7.35,6.67-11.03,10-2.84,2.16-5.59,4.46-8.55,6.46-6,4.06-11.65,8.83-19.15,10.07-7.68-1.55-13.67-6.32-19.77-10.73-12.64-9.14-23.25-20.46-33.49-32.14-.82-1.2-1.64-2.39-2.46-3.59Z"/>
      <path class="cls-4" d="M131.01,156.89c-15.32,3.95-27.38-2.57-38.65-11.9-4.02-3.33-8.36-6.29-12.57-9.39-3.32-2.44-7.02-3.07-10.99-2.1-21.85,5.36-43.93,9.77-65.61,15.82-.46.13-.98.04-1.47.05.01-.44.03-.87.04-1.31.1-.68.19-1.36.29-2.04.41-6.08.3-12.25,1.32-18.22,2.21-12.92,10.16-21.51,21.89-26.84,20.23-9.2,40.46-18.39,60.69-27.6,10.85-4.94,21.66-9.94,32.52-14.87,3.96-1.8,7.97-3.54,12.5-3.09.02,33.83.03,67.66.05,101.49Z"/>
      <path class="cls-8" d="M251.51,353.25c-.02.23-.05.47-.07.7-3.52,3.28-7.05,6.56-10.57,9.84-7.87-3.25-15.77-6.44-23.61-9.76-9.58-4.05-19.11-8.21-28.66-12.33-.27-.19-.54-.38-.8-.58,0,0,.04.03.04.03-.05-1.87-1.31-3.18-2.19-4.64-2.59-4.28-3.74-9.03-3.62-13.88.18-7.56.94-15.11,1.46-22.67.08-.07.22-.15.21-.19-.04-.17-.12-.33-.19-.49.02-.54.04-1.07.05-1.61.8-1.5,2.13-2.32,3.64-2.99,5.92-2.62,11.3-6.2,16.7-9.7,16.52-10.73,31.09-23.69,43.95-38.61.94-1.09,1.81-2.45,3.54-2.49,0,4.73.02,9.46.03,14.18.03,31.73.06,63.45.1,95.18Z"/>
      <path class="cls-6" d="M183.56,297.68c-.02.54-.04,1.07-.06,1.61-.1.22-.11.45-.02.68-.52,7.56-1.28,15.1-1.46,22.67-.11,4.85,1.03,9.6,3.62,13.88.88,1.46,2.15,2.77,2.19,4.64-5.96-1.75-11.44-4.68-17.14-7.07-9.04-3.77-18.01-7.71-26.98-11.66-4.11-1.81-8.34-3.15-12.76-3.88,0-1.2-.02-2.39-.03-3.59.01-19.69.02-39.38.03-59.08,4.39,2.04,8.91,3.82,13.13,6.16,9.78,5.43,19.98,8.31,31.33,7.4,7.3-.59,10.15,3.55,9.2,10.84-.75,5.75-.74,11.6-1.07,17.4Z"/>
      <path class="cls-8" d="M131.01,156.89c-.02-33.83-.03-67.66-.05-101.49,4.17-.62,8.08.33,11.91,1.92,7.51,3.12,15.04,6.21,22.56,9.32-.89,6.51-2.25,12.94-2.37,19.57-.26,13.68,2.83,26.62,7.78,39.23.5,1.27.9,2.57,1.34,3.86-.79,1.55-1.63,3.08-2.37,4.66-5.51,11.8-14.5,19.02-27.51,21.03-3.8.59-7.56,1.41-11.34,2.13l.05-.23Z"/>
      <path class="cls-5" d="M130.93,314.95c0,1.2.02,2.39.03,3.59-8.18-.7-15.23,2.98-22.52,5.76-19.03,7.26-38.2,14.19-57.06,21.87-19.67,8.01-42.17-8.4-45.36-27.28-1.02-6-1.59-12.08-1.72-18.18,8.32,2.51,16.13,6.39,24.49,8.83,12.27,3.57,24.67,6.3,37.39,7.78,10.4,1.21,20.8,1.66,31.22,1.32,10.38-.34,20.74-1.28,30.94-3.44.84-.18,1.73-.17,2.59-.25Z"/>
      <path class="cls-6" d="M240.87,363.8c3.52-3.28,7.05-6.56,10.57-9.84-.01,3.88-.02,7.77-.03,11.65-3.7.46-7.16-.42-10.54-1.81Z"/>
      <path class="cls-6" d="M187.8,341.13c.27.19.53.38.8.58-.27-.19-.53-.38-.8-.58Z"/>
      <path class="cls-1" d="M183.56,297.68c.33-5.81.32-11.65,1.07-17.4.95-7.29-1.9-11.43-9.2-10.84-11.35.91-21.55-1.97-31.33-7.4-4.22-2.34-8.74-4.13-13.13-6.16-.07-.16-.12-.33-.16-.5.02-24.07.05-48.14.07-72.2.04-.19.08-.39.13-.58,3.35-1.23,6.61-2.61,10.23-3.13,8.66-1.23,17.26-2.81,25.9-4.17,10.34-1.63,20.7-3.19,31.05-4.78,10.24,11.68,20.85,22.99,33.49,32.14,6.1,4.41,12.08,9.17,19.77,10.73.01,9.16.03,18.32.04,27.48l-.09,3.03c-1.73.05-2.6,1.4-3.54,2.49-12.86,14.92-27.43,27.88-43.95,38.61-5.4,3.51-10.78,7.08-16.7,9.7-1.51.67-2.84,1.49-3.64,2.99Z"/>
      <path class="cls-6" d="M198.18,170.51c-10.35,1.59-20.71,3.15-31.05,4.78-8.64,1.36-17.24,2.94-25.9,4.17-3.62.51-6.88,1.9-10.23,3.13-.01-8.49-.03-16.97-.04-25.46,3.78-.72,7.54-1.54,11.34-2.13,13.01-2.01,22-9.23,27.51-21.03.74-1.58,1.58-3.11,2.37-4.66,5.99,12.1,12.58,23.84,20.87,34.55.83,1.07,1.78,2.05,2.67,3.07.82,1.2,1.64,2.39,2.46,3.59Z"/>
      <path class="cls-3" d="M130.88,183.17c-.02,24.07-.05,48.13-.07,72.2-10.93-3.85-18.11-15.92-16.46-27.53,1.33-9.33,2.25-18.73,3.98-27.98,1.39-7.4,5.68-13.14,12.55-16.69Z"/>
      <path class="cls-4" d="M251.39,243.88c.03-1.01.06-2.02.09-3.03,1.15,0,1.63-.81,2.29-1.6,7.51-9.08,13.69-19.05,19.37-29.31,2.31-4.18,5.01-8.27,6-13.1,3.68-3.33,7.35-6.67,11.03-10,7.61,4.72,10.96,11.97,11.99,20.51.45,3.7.4,7.46.87,11.16,1.18,9.32-2.89,16.94-7.44,24.5-4.31,7.15-8.23,14.53-12.68,21.59-2.59,4.1-3.31,8.5-3.72,13.09-1.29,14.49-2.48,29-3.85,43.48-.49,5.23-2.7,9.9-6.23,13.73-5.73,6.23-11.71,12.24-17.59,18.34-.03-31.73-.06-63.45-.1-95.18,0-4.73-.02-9.46-.03-14.18Z"/>
      <path class="cls-10" d="M251.65,52.9c18.93.06,33.8,15.12,33.64,34.08-.16,18.73-15.16,33.55-33.9,33.49-18.82-.06-33.8-15.23-33.69-34.12.11-18.64,15.2-33.51,33.94-33.45Z"/>
      <path class="cls-3" d="M279.14,196.85c-.99,4.83-3.69,8.92-6,13.1-5.68,10.26-11.86,20.23-19.37,29.31-.66.8-1.14,1.61-2.29,1.6-.01-9.16-.03-18.32-.04-27.48,7.49-1.24,13.15-6.01,19.15-10.07,2.95-2,5.71-4.3,8.55-6.46Z"/>
      <path class="cls-1" d="M183.48,299.97c-.09-.23-.08-.46.02-.68.07.16.16.32.19.49,0,.05-.14.13-.21.19Z"/>
    </g>
  </g>
</svg>