<?xml version="1.0" encoding="UTF-8"?>
<svg id="Capa_2" xmlns="http://www.w3.org/2000/svg" viewBox="0 0 371.19 370.51">
  <defs>
    <style>
      .cls-1 {
        fill: #ca3541;
      }

      .cls-2 {
        fill: #2d2c38;
      }

      .cls-3 {
        fill: #c0cee7;
      }

      .cls-4 {
        fill: #37cd94;
      }

      .cls-5 {
        fill: #a71e29;
      }

      .cls-6 {
        fill: #bc6f09;
      }

      .cls-7 {
        fill: #df3e3e;
      }

      .cls-8 {
        fill: #2caa79;
      }

      .cls-9 {
        fill: #fdbc55;
      }

      .cls-10 {
        fill: #ecf3f9;
      }

      .cls-11 {
        fill: #2aa173;
      }

      .cls-12 {
        fill: #30b280;
      }

      .cls-13 {
        fill: #fb9d20;
      }

      .cls-14 {
        fill: #fe6161;
      }
    </style>
  </defs>
  <g id="Capa_1-2" data-name="Capa_1">
    <g>
      <path class="cls-9" d="M347.08,268.71c0,9.27,0,18.53,0,27.8-3.73,10.4-11.09,14.63-22.1,14.26-13.94-.47-27.9-.11-41.86-.11-15.56,0-25.72-10.09-25.72-25.56,0-9.47.06-18.94-.02-28.4-.06-6.75-5.1-11.72-11.85-11.87-1.99-.05-3.99-.02-5.98-.03-.04-.75-.16-1.5-.09-2.24.89-9.67-4.43-15.88-15.8-15.82-51.99.27-103.99.12-155.98.13-4.61,0-9.22.07-13.83.11-1.98-.08-3.96-.16-5.93-.23-.02-42.03-.03-84.07-.05-126.1.24-.02.48-.05.72-.1.72.65,1.63.58,2.48.58,18.16-.02,36.32-.05,54.48-.09.99.04,1.99.13,2.98.13,71.08,0,142.16,0,213.24,0,.99,0,1.99-.08,2.98-.13,2.86.04,5.72.11,8.58.13,8.96.04,13.84,4.87,13.87,13.8.04,11.82.07,23.63.11,35.45-.01,7.53-.02,15.05-.04,22.58-.02,4.23-.03,8.47-.08,12.7-.07,5.97.73,5.24-5.07,5.25-21.8.03-43.61,0-65.41.01-8.63,0-13.31,4.74-13.32,13.45,0,10.84.14,21.68-.06,32.51-.1,5.34,1.69,9.44,6.08,12.43,0,2.48-.06,4.97-.02,7.45.13,6.92,5.12,11.93,12.1,11.94,21.86.03,43.73,0,65.59-.02Z"/>
      <path class="cls-14" d="M239.52,334.62c-.06,3-.13,6-.19,9-2.58,6.42-7.23,9.27-14.23,8.99-7.71-.31-15.45.06-23.17-.1-17.29-.35-34.6.91-51.88-.71-11.99-1.13-23.41-4.33-34.23-9.52-17.5-8.38-32-20.45-42.93-36.51-5.24-7.69-10.06-15.7-12.31-24.92,1.62-.05,3.24-.13,4.85-.13,57.98-.02,115.96-.03,173.94-.05.05,17.98.1,35.97.16,53.95Z"/>
      <path class="cls-13" d="M47.86,100.63c.02,42.03.03,84.07.05,126.1-3.86.04-7.73.02-11.59.13-7.08.2-12.25,5.27-12.34,12.35-.1,7.85.04,15.7.07,23.56,0,5.97-.01,11.95-.02,17.92-.06,17.98-.12,35.95-.18,53.93C9.98,334.21,0,324.05,0,310.24,0,232.63,0,155.03.01,77.42c0-20.39,15.78-36.09,36.24-36.12,5.1,0,10.21.11,15.31.17-.57.19-1.13.48-1.71.54-16.12,1.76-28.99,19.44-24.98,34.52-.3,2.45.79,4.58,1.72,6.69,4.13,9.39,11.66,14.68,21.27,17.4Z"/>
      <path class="cls-7" d="M23.86,334.62c.06-17.98.12-35.95.18-53.93,11.95-.03,23.9-.06,35.85-.09.23.09.46.18.69.26,2.25,9.22,7.07,17.23,12.31,24.92,10.93,16.06,25.43,28.13,42.93,36.51,10.82,5.18,22.25,8.39,34.23,9.52,17.27,1.62,34.59.36,51.88.71,7.72.16,15.46-.21,23.17.1,7,.28,11.65-2.57,14.23-8.99.04,4.98.14,9.96.1,14.94-.05,6.88-5.14,11.92-12.1,11.93-19.18.03-38.36.01-57.54.01-44.09,0-88.18,0-132.27,0-8.99,0-13.55-4.55-13.57-13.47-.02-7.47-.06-14.94-.09-22.41Z"/>
      <path class="cls-4" d="M251.65,24c22.02-7.79,44.04-15.54,66.03-23.41,2.42-.87,3.63-.84,4.6,1.96,9.13,26.28,18.41,52.52,27.63,78.77.2.58.3,1.2.45,1.81-10.29.04-20.58.08-30.88.12-1.65-.71-1.63-2.43-2.12-3.76-2.8-7.7-5.59-15.42-8.2-23.19-.68-2.03-1.87-2.55-3.65-2.16-11.14,2.45-19.15-2.33-25.01-11.25-1.74-2.65-2.95-3.11-5.83-2.06-19.74,7.15-39.55,14.09-59.33,21.13-17.55,6.25-35.08,12.57-52.66,18.76-3.48,1.23-6.91,2.93-10.8,2.52-20.28-.01-40.57,0-60.85-.06-1.42,0-3.01.58-4.24-.71,1.78-.55,3.58-1.03,5.32-1.65,36.7-13.06,73.38-26.14,110.08-39.21,16.48-5.87,32.96-11.73,49.44-17.59Z"/>
      <path class="cls-13" d="M239.52,334.62c-.05-17.98-.1-35.97-.15-53.95,0-5.97,0-11.93,0-17.89.07-6,.13-12,.2-18,1.99,0,3.99-.02,5.98.03,6.75.15,11.79,5.11,11.85,11.87.08,9.47.02,18.94.02,28.4,0,15.47,10.16,25.56,25.72,25.56,13.95,0,27.92-.36,41.86.11,11.01.37,18.37-3.86,22.1-14.26.04,6.85.12,13.71.09,20.56-.02,3.3-1.76,5.94-3.86,8.27-5.44,6.02-12.16,9.27-20.4,9.26-27.8-.02-55.59.01-83.39.02Z"/>
      <path class="cls-1" d="M269.41,249.34c-4.38-2.99-6.18-7.09-6.08-12.43.21-10.83.06-21.68.06-32.51,0-8.72,4.69-13.45,13.32-13.45,21.8,0,43.61.01,65.41-.01,5.8,0,5.01.72,5.07-5.25.05-4.23.05-8.47.08-12.7,3.97.04,7.93.09,11.9.13,0,5.59.01,11.19,0,16.78-.01,8.26-4.71,13.01-12.9,13.02-13.67.01-27.35-.04-41.02.03-5.05.02-9.46,1.71-12.66,5.86-.95.29-1.9.57-2.84.88-7.08,2.36-10.18,9.87-6.93,16.54,2.01,4.14,5.76,5.59,9.77,6.72,3.28,4.02,7.65,5.84,12.72,5.86,19.41.06,38.81-.03,58.22.08,3.32.02,5.8-.91,7.49-3.77.33,3.88.45,7.71-2.25,10.96-2.5,3.02-5.55,4.82-9.62,4.75-3.97-.08-7.95.04-11.92.08-22.28-.03-44.56-.1-66.84-.07-3.75,0-7.43-.16-10.98-1.48Z"/>
      <path class="cls-12" d="M122.61,41.56C160.53,27.89,198.46,14.25,236.33.46c2.69-.98,3.67-.44,4.69,1.97,1.6,3.77,3.52,7.41,5.3,11.1-6.26,2.75-12.8,4.75-19.23,7.06-25.58,9.22-51.13,18.52-76.69,27.8-13.77,5-27.52,10.05-41.31,15-14.49,5.21-29.07,10.17-43.5,15.54-7.75,2.88-14.03-1.32-16.37-7.23-.39-.98-.38-2.28-1.6-2.83.44-.22.87-.47,1.33-.64,24.55-8.9,49.1-17.79,73.65-26.68Z"/>
      <path class="cls-11" d="M47.63,68.88c1.22.55,1.21,1.85,1.6,2.83,2.34,5.9,8.62,10.11,16.37,7.23,14.43-5.36,29.01-10.33,43.5-15.54,13.79-4.95,27.54-10,41.31-15,25.56-9.28,51.11-18.58,76.69-27.8,6.42-2.31,12.96-4.31,19.23-7.06,2.21,3.26,3.82,6.84,5.32,10.46-16.48,5.86-32.96,11.72-49.44,17.59-36.69,13.07-73.38,26.15-110.08,39.21-1.75.62-3.55,1.1-5.32,1.65-11.65,4.18-23.23,8.6-35.01,12.4-3.55,1.14-4.06,2.69-3.23,5.67-.24.05-.48.08-.72.1-9.61-2.72-17.14-8.01-21.27-17.4-.93-2.11-2.01-4.24-1.72-6.69,1.41-.42,2.84-.79,4.23-1.26,6.18-2.11,12.35-4.26,18.52-6.39Z"/>
      <path class="cls-7" d="M371.02,235.1c-1.69,2.86-4.18,3.79-7.49,3.77-19.41-.11-38.81-.02-58.22-.08-5.06-.02-9.43-1.84-12.72-5.86,2.9-.13,5.64-.75,7.98-2.6,3.97-3.14,5.59-7.93,4.25-12.57-1.6-5.53-5.51-8.4-12.23-8.97,3.2-4.15,7.6-5.83,12.66-5.86,13.67-.07,27.35-.01,41.02-.03,8.19,0,12.89-4.76,12.9-13.02,0-5.59,0-11.19,0-16.78,6.9.3,11.9,4.97,11.93,11.69.08,16.77-.04,33.54-.08,50.31Z"/>
      <path class="cls-6" d="M47.63,68.88c-6.17,2.13-12.34,4.28-18.52,6.39-1.39.48-2.82.85-4.23,1.26-4.02-15.08,8.85-32.76,24.98-34.52.58-.06,1.14-.36,1.71-.54,23.68-.25,47.37-.41,71.05.08-24.55,8.89-49.1,17.78-73.65,26.68-.46.17-.89.42-1.33.64Z"/>
      <path class="cls-12" d="M319.5,83.24c10.29-.04,20.58-.08,30.88-.12,4.85,11.81,8.58,24.02,12.95,36.01,2.42,6.64,4.61,13.37,7.1,19.98.81,2.16.37,2.99-1.75,3.71-7.16,2.43-14.26,5.03-21.38,7.56-.04-11.82-.07-23.63-.11-35.45-.03-8.92-4.9-13.76-13.87-13.8-2.86-.01-5.72-.08-8.58-.13-.42-1.55-.88-3.09-1.23-4.66-1-4.48-3.82-8.4-4.02-13.12Z"/>
      <path class="cls-13" d="M269.41,249.34c3.55,1.32,7.22,1.49,10.98,1.48,22.28-.03,44.56.03,66.84.07-.05,5.94-.1,11.88-.14,17.82-21.86.01-43.73.05-65.59.02-6.98-.01-11.98-5.01-12.1-11.94-.05-2.48,0-4.97.02-7.45Z"/>
      <path class="cls-8" d="M319.5,83.24c.2,4.72,3.02,8.64,4.02,13.12.35,1.57.82,3.11,1.23,4.66-.99.04-1.99.13-2.98.13-71.08,0-142.16,0-213.24,0-.99,0-1.99-.08-2.98-.13,12.21-4.41,24.47-8.69,36.59-13.34,3.31-1.27,7.3-1.29,9.78-4.46,3.89.41,7.32-1.29,10.8-2.52,17.57-6.19,35.1-12.51,52.66-18.76,19.78-7.04,39.59-13.98,59.33-21.13,2.88-1.04,4.09-.58,5.83,2.06,5.85,8.92,13.87,13.7,25.01,11.25,1.77-.39,2.96.13,3.65,2.16,2.61,7.77,5.39,15.48,8.2,23.19.49,1.34.47,3.05,2.12,3.76Z"/>
      <path class="cls-1" d="M239.55,244.78c-.07,6-.13,12-.2,18-52.11,0-104.22,0-156.33-.02-9.22,0-18.45-.06-27.67-.09-2.08-11.83-1.32-23.79-1.51-35.7,4.61-.04,9.22-.11,13.83-.11,51.99,0,103.99.15,155.98-.13,11.37-.06,16.69,6.15,15.8,15.82-.07.74.06,1.49.09,2.24Z"/>
      <path class="cls-12" d="M151.91,83.22c-2.47,3.17-6.47,3.19-9.78,4.46-12.12,4.65-24.38,8.92-36.59,13.34-18.16.03-36.32.07-54.48.09-.85,0-1.76.07-2.48-.58-.83-2.98-.31-4.53,3.23-5.67,11.78-3.8,23.35-8.22,35.01-12.4,1.23,1.29,2.82.71,4.24.71,20.28.05,40.57.05,60.85.06Z"/>
      <path class="cls-5" d="M53.85,226.96c.19,11.91-.57,23.87,1.51,35.7l.06.21c-10.45-.03-20.91-.07-31.36-.1-.03-7.85-.18-15.71-.07-23.56.09-7.08,5.26-12.15,12.34-12.35,3.86-.11,7.73-.09,11.59-.13,1.98.08,3.96.16,5.93.23Z"/>
      <path class="cls-10" d="M55.36,262.66c9.22.03,18.45.09,27.67.09,52.11.01,104.22.02,156.33.02,0,5.96,0,11.93,0,17.89-57.98.01-115.96.03-173.94.05-1.62,0-3.24.09-4.85.13-.23-.08-.46-.16-.69-.26-1.49-5.91-2.98-11.82-4.46-17.73l-.06-.21Z"/>
      <path class="cls-3" d="M55.42,262.87c1.49,5.91,2.98,11.82,4.46,17.73-11.95.03-23.9.06-35.85.09,0-5.97.01-11.95.02-17.92,10.46.03,20.91.07,31.37.1Z"/>
      <path class="cls-2" d="M292.59,208.78c6.72.58,10.63,3.45,12.23,8.97,1.34,4.65-.28,9.43-4.25,12.57-2.34,1.85-5.08,2.48-7.98,2.6-4.02-1.14-7.76-2.58-9.77-6.72-3.25-6.67-.15-14.19,6.93-16.54.94-.31,1.9-.59,2.84-.88Z"/>
    </g>
  </g>
</svg>