<?xml version="1.0" encoding="UTF-8"?>
<svg id="Capa_2" xmlns="http://www.w3.org/2000/svg" viewBox="0 0 408.68 346.3">
  <defs>
    <style>
      .cls-1 {
        fill: #fedd54;
      }

      .cls-2 {
        fill: #fecc00;
      }

      .cls-3 {
        fill: #edbe00;
      }

      .cls-4 {
        fill: #fea633;
      }

      .cls-5 {
        fill: #fed322;
      }

      .cls-6 {
        fill: #fe6243;
      }

      .cls-7 {
        fill: #fedd55;
      }

      .cls-8 {
        fill: #5aa9e6;
      }

      .cls-9 {
        fill: #3d99e1;
      }
    </style>
  </defs>
  <g id="Capa_1-2" data-name="Capa_1">
    <path class="cls-4" d="M0,221.86c4.26-3.65,9.61-2.56,14.48-2.98,16.4-1.42,32.84-2.39,49.26-3.55,2.68-.19,5.22-.72,7.35-2.61,3.95-3.52,4.34-7.54.71-11.42-4.66-4.97-10.37-8.69-15.77-12.77-2.86-2.16-5.83-4.19-8.63-6.42-6-4.77-4.65-12.63,2.65-15.34,4.92-1.83,10.15-2.03,15.31-2.29,9.02-.45,18.06-.62,27.08-.89,6.57-.2,12.17-2.4,16.31-7.72,3.83-4.92,3.2-10.06-1.64-13.94-3.28-2.63-7.35-3.65-10.99-5.55-5.54-2.88-6-5.6-1.57-10.07,5.59-5.64,12.4-9.66,19.23-13.4,32.85-18,67.5-31.53,103.78-40.85.88-.23,1.83-.17,2.75-.24.1,1.83-1.45,2.05-2.6,2.48-13.6,5.17-26,12.43-37.37,21.49-4.04,3.22-7.61,6.96-11.49,10.35-.89.78-1.54,1.83-2.81,2.09-7.6,1.72-14.37,5.55-21.41,8.64-5.84,2.56-11.48,5.59-17.15,8.52-4.31,2.23-5.16,4.78-3.14,9.17,1.89,4.11,4.09,8.1,4.36,12.75.63,10.9-4.18,19.25-12.39,25.88-6.9,5.57-15.07,7.67-23.75,8.18-.66.04-1.33,0-1.99.05-5.91.36-7.96,4.34-4.58,9.28,2.36,3.44,4.5,6.88,5.31,11.04,1.95,10.02-1.7,18.04-9.06,24.53-6.24,5.5-14.07,6.72-22,6.91-4.93.12-9.78.98-14.71,1.04-2.65.03-5.44.65-6.55,3.64-1.11,3,.66,5.03,2.63,6.98,17.48,17.37,37.2,31.74,58.58,43.88,27.76,15.76,57.47,26.38,88.66,32.95,1.05.22,2.1.28,3.16.34,4.93,2.26,9.33,5.48,14.24,7.82,17.31,8.22,35.37,13.32,54.61,13.91,1.53.05,3.59-.61,4.15,1.84-10.35,1.48-20.71.34-31.02-.21-18.17-.97-36.15-3.68-53.92-7.65-46.14-10.3-88.23-29.37-125.7-58.34-19.32-14.94-36.51-32.05-51.89-51.01-.74-.91-1.26-2.05-2.47-2.51v-3.99Z"/>
    <path class="cls-3" d="M265,345.57c-.56-.7-1.35-.76-2.16-.77-25.98-.42-49.66-8.22-71.38-22.28-2.26-.06-4.01-1.31-5.71-2.56-30.48-22.37-50.16-51.87-56.96-89.14-7.89-43.25,2.61-82.18,29.91-116.57,2.04-2.57,4.13-5.24,7.35-6.54,10.19-10.85,21.97-19.7,34.93-26.93,4.94-2.76,10.32-4.74,15.51-7.04,1.31-.58,2.86-.66,3.83-1.91,11.63-3.68,23.42-6.65,35.67-7.33,4.59-2.24,9.51-1.9,14.4-1.82,3.39.08,6.73.45,9.89,1.81,20.46,1.56,39.49,7.77,57.34,17.78,3.32.3,5.73,2.44,8.39,4.08,2.84,2.34,6.31,3.93,8.53,7.03,13.52,11.16,25.23,23.87,34.19,39.03,9.55,16.16,15.75,33.43,18.42,52.05,3.98,27.69.32,54.3-11.72,79.46-19.44,40.62-51.29,66.46-94.94,77.57-11.61,2.96-23.48,4.13-35.47,4.06Z"/>
    <path class="cls-3" d="M256.04,35.98c-5.32,0-10.63.08-15.95-.04-9.97-.24-17.35-7.4-17.91-17.23-.52-9.1,6.69-17.11,16.4-18.2,1.27.74,1.72,2.02,2.02,3.31,2.25,9.51,10.04,13.26,18.89,13.3,14.36.07,28.73.02,43.09.02,2.26,0,4.52-.04,6.78.03,1.45.04,2.96-.03,4.09,1.16-.51,10.27-7.58,17.35-17.74,17.61-5.16.13-10.33.03-15.49.04-2.84,1.6-5.94,1.12-8.98,1.1-3.69.11-7.39.1-11.08.05-1.47-.02-2.9-.23-4.12-1.14Z"/>
    <path class="cls-2" d="M313.46,18.33c-17.35,0-34.71-.14-52.06.04-12.96.13-20.87-4.82-22.82-17.87.76-.16,1.52-.45,2.28-.45,18.07-.02,36.14-.12,54.21.02,10.78.08,18.81,8.25,18.39,18.25Z"/>
    <path class="cls-3" d="M389.76,46.92c6.14,5.49,7.16,13.74,2.52,20.28-4.32,6.09-12.5,7.91-19.47,4.34-.82-.42-1.63-.83-2.45-1.25-3.9-.99-6.63-3.93-9.95-5.89-2.3-2.05-5.36-3.22-6.95-6.07-6.48-5.36-8.19-11.2-5.38-18.43,1.66-.41,2.76.73,3.94,1.52,4.54,3.01,9.3,5.74,13.5,9.22,5.4,4.48,15.87,5.26,21.13-1.77.71-.95,1.36-2.45,3.1-1.95Z"/>
    <path class="cls-2" d="M389.76,46.92c-3.97,4.8-8.19,8.95-15.25,8.19-2.84-.31-5.44-.88-7.8-2.49-6.21-4.24-12.41-8.48-18.62-12.72,3.19-7.87,11.93-11.88,19.49-8.09,8.01,4.02,15.28,9.35,22.18,15.12Z"/>
    <path class="cls-5" d="M256.04,35.98c5.12-.01,10.24-.03,15.36-.04.88,8.56.38,17.14.21,25.71-.02.8-.44,1.52-.99,2.12-4.88.24-9.76.48-14.64.72.44-9.5.33-19.01.06-28.51Z"/>
    <path class="cls-5" d="M360.85,63.77c3.27,2.03,6.62,3.94,9.51,6.52-5.28,7.7-10.56,15.4-15.85,23.1-3.38-1.58-6.06-4.13-8.92-6.43-.46-1.14.04-2.08.65-2.96,4.47-6.41,8.88-12.86,13.37-19.25.31-.44.72-.77,1.22-.97Z"/>
    <path class="cls-1" d="M270.62,63.78c0-7.89-.01-15.77-.03-23.66,0-1.45-.05-2.9.81-4.18,2.94.01,5.89.02,8.83.03-1.16,1.52-.72,3.3-.73,4.97-.04,6.46-.02,12.92-.01,19.38,0,1.43-.25,2.93.79,4.17-3.28.59-6.41-.72-9.65-.72Z"/>
    <path class="cls-7" d="M360.85,63.77c-3.56,7.15-8.91,13.12-13.11,19.85-.7,1.12-1.43,2.22-2.14,3.33-2.67-1.56-5.33-3.12-8-4.68,5.97-6.96,10.49-14.96,15.79-22.4.25-.35.06-1.03.07-1.55,2.46,1.82,4.92,3.63,7.38,5.45Z"/>
    <path class="cls-6" d="M166.04,107.7c-11.18,11.57-19.86,24.83-26.51,39.45-5.63,12.39-9.24,25.38-11,38.86-3.29,25.23-.14,49.71,9.69,73.15,7.26,17.31,17.68,32.61,31.22,45.74,6.79,6.58,14.01,12.58,22.01,17.63-3.23,1.14-6.16-.61-9.09-1.27-27.05-6.07-52.93-15.48-77.35-28.62-19.31-10.39-37.3-22.76-53.77-37.33-4.08-3.61-8.03-7.34-11.86-11.21-3.63-3.67-2.38-8.85,2.56-10.25,4.98-1.41,10.23-1.13,15.35-1.56,6.85-.57,13.68-.6,20.06-3.94,13.53-7.09,17.55-24.09,8.31-36.16-2.03-2.65-3.54-5.37-1.72-8.74,1.67-3.1,4.59-3.1,7.6-3.14,17.48-.24,30.89-9.63,35.26-23.95,1.91-6.28,1.05-12.32-1.81-18.13-.82-1.67-1.83-3.27-2.47-5-1.13-3.1-.5-6.11,2.43-7.65,12.8-6.74,25.76-13.19,39.34-18.25.7-.26,1.27-.29,1.73.37Z"/>
    <path class="cls-8" d="M158.96,172.39c2.82-11.91,8.53-22.47,15.28-32.51,2.15-3.19,4.85-2.27,7.54-.24,15.79,11.93,31.63,23.79,47.45,35.68,10.09,7.58,20.17,15.17,30.27,22.73,1.77,1.33,3.54,3.15,6.05,1.9,2.51-1.25,2.12-3.76,2.12-5.98.01-31.52,0-63.03.01-94.55,0-1.33-.04-2.67.07-3.99.27-3.14,1.81-4.67,5.2-4.58,10.7.25,21.05,2.3,31.13,5.72,21.55,7.31,39.41,19.92,53.52,37.79.89,1.13,1.56,2.44,2.33,3.67,13.43,29.77,12.66,59.5-1.67,88.52-17,34.45-45.2,53.95-83.29,58.58-29.07,3.53-55.27-4.51-77.81-22.83-22.17-18.02-35.23-41.63-38.45-70.25-.74-6.52-1.46-13.14.25-19.67Z"/>
    <path class="cls-9" d="M158.96,172.39c1.66,2.33-.28,4.56-.21,6.89.7,24.28,7.44,46.45,22.76,65.61,16.93,21.17,38.68,34.28,65.58,38.49,31.24,4.88,59.01-2.95,83.45-22.9,18.93-15.46,30.52-35.48,35.49-59.14,4.37-20.83,2.37-41.35-5.8-61.15-.27-.66-1.05-1.32-.29-2.15,11.66,15.4,18.39,32.84,20.71,51.89,4.17,34.22-5.09,64.6-27.94,90.37-19.58,22.08-44.41,34.64-73.91,37.39-34.88,3.25-65.35-7.31-90.17-31.76-28.57-28.15-39.24-62.66-32.46-102.37.65-3.79,1.35-7.57,2.79-11.16Z"/>
  </g>
</svg>