<svg viewBox="0 0 512 512" xml:space="preserve" xmlns="http://www.w3.org/2000/svg" enable-background="new 0 0 512 512"><path d="M256 291.668c-46.794 0-84.865-38.07-84.865-84.865s38.07-84.865 84.865-84.865c46.795 0 84.865 38.07 84.865 84.865s-38.07 84.865-84.865 84.865zm0-149.73c-35.767 0-64.865 29.098-64.865 64.865s29.098 64.865 64.865 64.865 64.865-29.098 64.865-64.865-29.098-64.865-64.865-64.865z" fill="#000000" class="fill-f05026"></path><path d="M256.69 466.003a9.983 9.983 0 0 1-6.302-2.235c-43.852-35.586-83.405-78.894-111.374-121.947C108.33 294.586 92.11 248.99 92.11 209.963c0-90.411 73.555-163.966 163.966-163.966 90.327 0 163.813 73.555 163.813 163.966 0 36.966-18.977 86.08-53.436 138.294-30.078 45.577-68.829 88.816-103.659 115.665a9.974 9.974 0 0 1-6.104 2.081zm-.613-400.006c-79.383 0-143.966 64.583-143.966 143.966 0 67.691 57.873 160.645 144.695 233.181 67.551-55.156 143.084-165.966 143.084-233.181 0-79.383-64.515-143.966-143.813-143.966z" fill="#000000" class="fill-3e3c3c"></path></svg>