<?xml version="1.0" encoding="UTF-8"?>
<svg id="Capa_2" xmlns="http://www.w3.org/2000/svg" viewBox="0 0 383.11 383.14">
  <defs>
    <style>
      .cls-1 {
        fill: #e6ecfb;
      }

      .cls-2 {
        fill: #438dfe;
      }

      .cls-3 {
        fill: #a3c1f6;
      }

      .cls-4 {
        fill: #fefefe;
      }

      .cls-5 {
        fill: #c9d8fb;
      }

      .cls-6 {
        fill: #e7ecfb;
      }
    </style>
  </defs>
  <g id="Capa_1-2" data-name="Capa_1">
    <g>
      <path class="cls-2" d="M0,237.2v-5.99c1.66-3.11,3.99-5.17,7.77-4.38,2.69.56,4.69,2.4,4.79,5.08.2,5.32,3.24,7.41,7.9,8.28,2.44.45,4.84,1.13,7.26,1.7,4.54,1.24,9.13,2.34,13.61,3.78,2.72.87,3.5.22,3.47-2.59-.11-9.95-.04-19.91-.04-29.86,0-28.75-.04-57.49.06-86.24.01-2.88-.71-4.22-3.7-4.69-5.27-.83-10.48-2.07-15.71-3.15-2.92-.63-5.91-1.04-8.74-1.95-3.22-1.04-4.01-.15-3.99,3.14.13,18.82.07,37.63.06,56.45,0,1.12-.06,2.25,0,3.36.23,3.68-.67,6.8-4.54,8.05-3.96,1.28-6.31-1.1-8.22-4.13C0,128.7,0,73.33,0,17.96c.19-.15.47-.25.56-.44C6.52,4.76,13.76,1.31,27.25,4.86c32.01,8.44,64.02,16.87,96.01,25.37,2.99.8,5.79.85,8.79.09,27.76-6.98,55.54-13.85,83.3-20.82C227.64,6.43,239.89,3.18,252.16,0c2.24,0,4.49,0,6.73,0,.68.26,1.34.59,2.04.77,35.28,9.28,70.56,18.52,105.84,27.82,11.33,2.99,16.33,9.61,16.33,21.36,0,27.18,0,54.36,0,81.54,0,41.89.02,83.78-.01,125.67,0,11.14-7.36,19.29-18.01,20.09-3.55.27-6.95-.63-10.24-1.78-2.86-.99-3.84-.46-3.79,2.8.18,11.09-.04,22.19.1,33.29.09,6.78-1.91,12.73-6.09,18.02-1.55,1.95-2.82,4.15-4.54,5.94-6.8,7.09-9.88,15.35-8.46,25.19.18,1.22.06,2.49-.02,3.74-.64,10.53-8.47,18.57-18.76,18.61-34.41.12-68.82.13-103.23-.02-10.09-.04-18.14-8.36-18.48-18.44-.12-3.49-.12-6.98-.01-10.47.14-4.53-1.48-8.18-4.7-11.35-7.91-7.78-15.7-15.68-23.56-23.52-6.69-6.67-10.17-14.63-10.03-24.14.08-5.48-.15-10.98.07-16.45.13-3.13-.83-3.5-3.62-2.69-5.25,1.53-10.64,2.62-15.93,4.03-3.97,1.06-7.83.94-11.79-.11-34.06-9-68.09-18.16-102.25-26.78-9.4-2.37-16.56-6.41-19.77-15.93ZM26.18,18.02c-1.66-.5-3.3-1.15-5-1.48-5.05-.98-8.35,1.61-8.4,6.77-.09,10.97,0,21.94-.06,32.91,0,1.81.52,2.69,2.43,2.97,3.08.44,6.11,1.18,9.16,1.8,31.31,6.63,62.63,13.22,93.91,19.94,2.74.59,3.1-.27,3.08-2.64-.09-10.72-.14-21.45.03-32.17.04-2.66-.87-3.64-3.34-4.26-12.07-3.05-24.09-6.32-36.14-9.45-18.55-4.82-37.12-9.6-55.68-14.39ZM357.67,78.58c3.25,1.3,6.77,1.48,10.11,2.39,2.08.57,2.61-.17,2.6-2.14-.06-10.31,0-20.62-.06-30.93-.02-3.02-1.54-5.28-4.5-6.16-3.67-1.1-7.32-2.34-11.17-2.76-.57-.25-1.12-.57-1.71-.73-29.25-7.71-58.5-15.4-87.74-23.14-2.7-.71-3.44.08-3.41,2.81.12,12.59.1,25.17,0,37.76-.02,2.3.7,3.17,3.02,3.65,18.66,3.82,37.27,7.85,55.92,11.74,12.3,2.57,24.62,5.01,36.94,7.51ZM25.43,105.9c6.21,1.32,12.43,2.61,18.63,3.97,10.54,2.32,13.49,6,13.49,16.79,0,39.53.05,79.05-.09,118.58-.01,3.77.87,5.6,4.8,6.28,5.27.91,10.43,2.43,15.62,3.79,5.16,1.35,5.16,1.4,5.16-3.76,0-38.65,0-77.31,0-115.96,0-10.78,6.81-16.15,17.44-13.86,5.6,1.21,11.24,2.28,16.8,3.65,3.01.74,4.06-.07,4-3.19-.14-8.1-.13-16.21,0-24.31.04-2.58-.78-3.78-3.38-4.32-30.86-6.41-61.7-12.92-92.55-19.39-3.28-.72-6.58-1.38-9.85-2.18-2.17-.53-2.83.19-2.81,2.39.09,8.85.09,17.71,0,26.56-.02,1.88.67,2.69,2.45,3,3.44.59,6.85,1.31,10.27,1.98ZM356.92,263.07c9.85,3.65,13.68,1.01,13.57-9.94-.34-34.25-.12-68.5-.12-102.75q0-12.43-12.67-13.52c-.7-.23-1.39-.54-2.1-.69-29.96-6.31-59.94-12.54-89.87-18.99-3.43-.74-3.96.13-3.94,3.27.11,20.43.14,40.87-.01,61.3-.03,4.32.15,8.06,4.56,10.34,1.24.64,2.17,2.05,3.01,3.27,1.03,1.49,1.81,1.82,3.58.76,12.95-7.73,25.15-5.66,34.9,5.85,1.08,1.28,1.72,1.66,3.28.62,8.78-5.87,18.03-6.35,27.17-1.2,9.04,5.1,13.01,13.29,12.88,23.65-.13,10.34-.03,20.68-.03,31.02q0,5.88,5.81,7ZM321.72,211.62c-4.92,1.24-7.56,4.7-8.49,9.39-.53,2.65-.3,5.45-.4,8.19-.15,4.15-2.61,6.96-6.19,7.06-3.68.1-6.44-2.83-6.53-7.12-.08-3.74,0-7.48-.03-11.22-.09-7.9-5.53-13.65-12.83-13.59-7.16.06-12.53,5.75-12.63,13.41-.05,3.61.02,7.23-.02,10.85-.06,4.65-2.6,7.67-6.38,7.68-3.81.01-6.32-2.96-6.35-7.64-.04-5.86.09-11.72-.04-17.58-.17-7.71-5.66-13.1-13-13-7.19.11-12.34,5.47-12.45,13.08-.07,5.23-.01,10.47-.02,15.71,0,6.27-2.25,9.47-6.56,9.41-4.17-.06-6.21-3.08-6.21-9.25,0-32.04,0-64.08,0-96.11,0-2.12,0-4.23-.53-6.31-1.39-5.54-6.22-9.39-11.95-9.52-5.81-.13-10.89,3.41-12.52,8.79-.66,2.18-.55,4.44-.55,6.68,0,40.27,0,80.53-.02,120.8,0,1.86.01,3.77-.38,5.57-.71,3.22-3.02,4.91-6.23,4.83-3.02-.07-5.19-1.74-5.89-4.8-.33-1.44-.36-2.96-.37-4.45-.04-6.48,0-12.96-.03-19.45,0-1.43.3-2.91-2.02-3.24-9.92-1.44-16.98,4.42-17,14.35-.03,16.7.1,33.41-.06,50.11-.06,6.54,2.15,11.85,6.77,16.38,6.95,6.8,13.54,13.99,20.71,20.54,7.83,7.15,11.75,15.59,10.83,26.21-.13,1.48-.02,2.99-.02,4.49.04,6.35,2.17,8.49,8.57,8.5,17.33.01,34.66.03,51.98,0,13.46-.02,26.92-.1,40.38-.16,1.99.06,3.98.17,5.97.15,5.64-.05,7.96-2.29,8.11-7.9.1-3.48.12-6.98.01-10.46-.2-6.38,1.84-11.97,5.66-17,3.39-4.46,6.73-8.96,10.1-13.44,1.83-2.43,3.2-5.05,3.2-8.19,0-30.13,0-60.27.02-90.4,0-7.56-8.09-14.54-16.59-11.34ZM134.03,202.49c0,20.2.05,40.39-.05,60.59-.01,2.95.7,3.75,3.63,2.8,3.9-1.26,7.9-2.34,11.93-3.08,3.08-.57,3.94-1.97,3.84-5.03-.19-6.35-.51-12.78.27-19.05,1.6-13.03,12.67-21.61,27.11-21.64,2.53,0,4.45.18,4.43-3.52-.14-27.18-.11-54.35-.03-81.53,0-2.91-.74-3.58-3.68-2.93-14.47,3.2-28.97,6.28-43.51,9.13-3.07.6-4.03,1.66-4.01,4.8.15,19.82.07,39.64.08,59.46ZM178.82,54.97c0,5.86,0,11.72,0,17.57-.02,9.51-3.29,13.7-12.54,15.66-9.62,2.04-19.27,4-28.93,5.82-2.41.45-3.41,1.36-3.37,3.87.11,8.22.11,16.45,0,24.68-.03,2.78,1.08,3.5,3.64,2.96,16.21-3.4,32.43-6.77,48.65-10.09,1.7-.35,2.84-1.15,3.91-2.53,8.41-10.85,21.04-13.53,33.33-7.16,1.35.7,2.6,1.32,4.23,1.02,6-1.11,12-2.19,18.03-3.13,2.32-.36,3.43-1.21,3.39-3.81-.15-8.22-.12-16.45-.02-24.68.03-2.72-.74-3.44-3.5-2.79-8,1.88-16.05,3.57-24.11,5.18-10.25,2.04-17.21-3.68-17.24-14.05-.03-11.34-.07-22.68.03-34.02.03-2.93-.95-3.77-3.79-3-6.13,1.65-12.29,3.26-18.49,4.61-2.68.58-3.3,1.96-3.26,4.44.12,6.48.04,12.96.04,19.44ZM370.24,110.42c0-4.23-.07-8.47.03-12.7.05-2.07-.56-3.13-2.78-3.55-5.13-.98-10.19-2.31-15.31-3.39-28.49-6.04-56.99-12.06-85.48-18.07-4.83-1.02-4.85-.97-4.85,4.06,0,7.6.11,15.2-.06,22.79-.06,2.94.98,4.05,3.88,4.65,19.75,4.07,39.45,8.37,59.17,12.56,13.76,2.92,27.54,5.71,41.27,8.74,3.38.75,4.45-.03,4.19-3.51-.29-3.84-.07-7.72-.07-11.58ZM121.27,202.84c0-19.82-.08-39.65.09-59.47.03-3.19-.98-4.32-3.98-4.84-5.89-1.02-11.73-2.32-17.55-3.68-2.94-.68-4.26-.29-4.13,3.23.26,7.1.08,14.21.08,21.32,0,32.29.05,64.59-.08,96.88-.01,2.98.95,4.12,3.72,4.72,5.96,1.29,11.91,2.71,17.76,4.41,3.19.93,4.2.57,4.16-3.1-.18-19.82-.09-39.65-.09-59.47ZM249.07,36.6c0-6.59-.05-13.19.03-19.78.02-2.04-.53-2.56-2.6-2.02-8.9,2.33-17.82,4.58-26.77,6.67-2.18.51-2.72,1.54-2.71,3.6.07,12.32.1,24.64-.02,36.95-.02,2.53.8,2.88,3.05,2.41,8.63-1.82,17.28-3.61,25.96-5.16,2.59-.46,3.15-1.66,3.1-4-.12-6.22-.04-12.44-.04-18.66ZM166.05,55.29c0-5.74-.06-11.47.03-17.21.03-2.21-.26-3.17-2.91-2.46-8.78,2.35-17.62,4.49-26.47,6.59-2.11.5-2.73,1.51-2.71,3.61.09,10.97.08,21.95.02,32.92-.01,2.06.34,2.87,2.74,2.35,8.89-1.93,17.81-3.7,26.75-5.36,2.08-.38,2.62-1.3,2.59-3.24-.09-5.74-.03-11.47-.03-17.21ZM249.08,150.85c0-10.35-.07-20.69.05-31.04.03-2.62-.29-4.02-3.43-3.2-2.76.73-5.62,1.11-8.46,1.45-1.95.23-2.62.91-1.98,2.9,1.1,3.49,1.1,7.11,1.09,10.74-.03,10.97-.01,21.94-.01,32.91,0,6.86.06,13.71-.03,20.57-.03,2.46.59,3.1,3,2.02,1.9-.85,4.04-1.55,6.1-1.61,3.24-.09,3.79-1.59,3.74-4.46-.15-10.09-.06-20.19-.06-30.29Z"/>
      <path class="cls-4" d="M0,184.07c1.91,3.03,4.26,5.41,8.22,4.13,3.86-1.25,4.77-4.37,4.54-8.05-.07-1.12,0-2.24,0-3.36,0-18.82.07-37.63-.06-56.45-.02-3.29.77-4.18,3.99-3.14,2.83.91,5.82,1.32,8.74,1.95.01,32.08-.04,64.16.07,96.24.03,8.87-1.24,17.9,2.24,26.5-2.42-.57-4.82-1.25-7.26-1.7-4.66-.87-7.71-2.96-7.9-8.28-.1-2.67-2.1-4.52-4.79-5.08-3.78-.79-6.11,1.28-7.77,4.38,0-7.23,0-14.47,0-21.7.42.61.79,1.25,1.26,1.82,2.55,3.17,6.64,3.57,9.45.94,2.68-2.51,2.68-6.75,0-9.26-2.81-2.63-6.9-2.23-9.45.94-.46.57-.84,1.21-1.26,1.82,0-7.23,0-14.47,0-21.7Z"/>
      <path class="cls-2" d="M0,205.77c.42-.61.8-1.25,1.26-1.82,2.54-3.17,6.64-3.56,9.45-.94,2.68,2.51,2.68,6.75,0,9.26-2.81,2.63-6.9,2.23-9.45-.94-.46-.57-.84-1.21-1.26-1.82,0-1.25,0-2.49,0-3.74Z"/>
      <path class="cls-6" d="M305.24,370.19c-13.46.05-26.92.14-40.38.16-17.33.03-34.66.02-51.98,0-6.4,0-8.54-2.14-8.57-8.5,0-1.5-.11-3,.02-4.49.92-10.62-3-19.06-10.83-26.21-7.17-6.55-13.76-13.74-20.71-20.54-4.63-4.53-6.83-9.84-6.77-16.38.16-16.7.03-33.41.06-50.11.02-9.94,7.08-15.79,17-14.35,2.31.34,2.01,1.81,2.02,3.24.03,6.48,0,12.96.03,19.45,0,1.49.04,3.01.37,4.45.7,3.06,2.87,4.73,5.89,4.8,3.2.07,5.52-1.61,6.23-4.83.4-1.8.38-3.71.38-5.57.02-40.27.01-80.53.02-120.8,0-2.24-.11-4.51.55-6.68,1.63-5.38,6.71-8.92,12.52-8.79,5.74.13,10.56,3.98,11.95,9.52.52,2.08.53,4.19.53,6.31,0,32.04,0,64.08,0,96.11,0,6.17,2.04,9.19,6.21,9.25,4.31.06,6.55-3.14,6.56-9.41,0-5.24-.05-10.47.02-15.71.11-7.61,5.26-12.97,12.45-13.08,7.34-.11,12.83,5.29,13,13,.13,5.86,0,11.72.04,17.58.03,4.68,2.55,7.65,6.35,7.64,3.78-.01,6.32-3.03,6.38-7.68.05-3.61-.02-7.23.02-10.85.1-7.67,5.47-13.35,12.63-13.41,7.3-.06,12.75,5.69,12.83,13.59.04,3.74-.05,7.48.03,11.22.1,4.29,2.85,7.22,6.53,7.12,3.58-.1,6.04-2.91,6.19-7.06.1-2.73-.13-5.54.4-8.19.93-4.69,3.57-8.15,8.49-9.39,3.18,5.04,3.89,10.53,3.86,16.44-.17,27.55-.19,55.1.01,82.66.04,5.96-1.71,10.98-5.16,15.6-3.13,4.19-6.22,8.42-9.45,12.52-2.9,3.68-4.29,7.76-4.23,12.45.07,6.34.52,12.72-1.5,18.9Z"/>
      <path class="cls-1" d="M356.92,263.07q-5.81-1.12-5.81-7c0-10.34-.11-20.68.03-31.02.13-10.36-3.84-18.55-12.88-23.65-9.13-5.16-18.39-4.67-27.17,1.2-1.56,1.05-2.2.66-3.28-.62-9.75-11.52-21.95-13.59-34.9-5.85-1.77,1.06-2.55.73-3.58-.76-.84-1.22-1.77-2.63-3.01-3.27-4.41-2.28-4.59-6.03-4.56-10.34.15-20.43.12-40.86.01-61.3-.02-3.14.51-4.01,3.94-3.27,29.93,6.45,59.91,12.68,89.87,18.99.72.15,1.4.46,2.1.69,0,39.35-.03,78.71,0,118.06,0,2.75-.12,5.47-.77,8.15Z"/>
      <path class="cls-3" d="M25.37,74.16c30.85,6.48,61.69,12.98,92.55,19.39,2.6.54,3.42,1.74,3.38,4.32-.14,8.1-.14,16.21,0,24.31.05,3.12-.99,3.93-4,3.19-5.56-1.36-11.2-2.44-16.8-3.65-10.63-2.3-17.44,3.08-17.44,13.86-.02,38.65,0,77.31,0,115.96,0,5.15,0,5.11-5.16,3.76-5.19-1.35-10.35-2.88-15.62-3.79-3.93-.68-4.81-2.51-4.8-6.28.14-39.53.09-79.05.09-118.58,0-10.79-2.94-14.47-13.49-16.79-6.2-1.36-12.42-2.65-18.63-3.97-.02-10.58-.04-21.16-.06-31.74Z"/>
      <path class="cls-1" d="M134.03,202.49c0-19.82.07-39.64-.07-59.46-.02-3.14.93-4.2,4.01-4.8,14.54-2.85,29.04-5.93,43.51-9.13,2.94-.65,3.69.02,3.68,2.93-.08,27.18-.11,54.35.03,81.53.02,3.7-1.9,3.51-4.43,3.52-14.44.04-25.5,8.62-27.11,21.64-.77,6.27-.46,12.7-.27,19.05.09,3.05-.76,4.46-3.84,5.03-4.03.74-8.02,1.83-11.93,3.08-2.93.95-3.64.14-3.63-2.8.1-20.2.05-40.39.05-60.59Z"/>
      <path class="cls-3" d="M178.82,54.97c0-6.48.08-12.96-.04-19.44-.05-2.48.58-3.85,3.26-4.44,6.2-1.35,12.36-2.96,18.49-4.61,2.84-.77,3.82.07,3.79,3-.1,11.34-.06,22.68-.03,34.02.03,10.37,6.99,16.09,17.24,14.05,8.06-1.61,16.11-3.3,24.11-5.18,2.76-.65,3.54.07,3.5,2.79-.11,8.22-.13,16.45.02,24.68.05,2.6-1.06,3.44-3.39,3.81-6.03.95-12.03,2.02-18.03,3.13-1.63.3-2.88-.32-4.23-1.02-12.29-6.37-24.92-3.69-33.33,7.16-1.07,1.38-2.21,2.18-3.91,2.53-16.23,3.32-32.44,6.69-48.65,10.09-2.56.54-3.68-.18-3.64-2.96.1-8.22.1-16.45,0-24.68-.03-2.51.97-3.42,3.37-3.87,9.67-1.82,19.31-3.77,28.93-5.82,9.25-1.96,12.53-6.15,12.54-15.66,0-5.86,0-11.72,0-17.57Z"/>
      <path class="cls-1" d="M357.67,78.58c-12.31-2.5-24.64-4.94-36.94-7.51-18.64-3.89-37.26-7.92-55.92-11.74-2.33-.48-3.04-1.34-3.02-3.65.09-12.59.11-25.17,0-37.76-.02-2.73.71-3.52,3.41-2.81,29.24,7.74,58.5,15.42,87.74,23.14.59.16,1.14.48,1.71.73,2.69,4.27,3.18,8.96,3.07,13.91-.2,8.56-.05,17.13-.05,25.7Z"/>
      <path class="cls-1" d="M26.18,18.02c18.56,4.8,37.13,9.57,55.68,14.39,12.05,3.13,24.07,6.39,36.14,9.45,2.46.62,3.38,1.6,3.34,4.26-.17,10.72-.12,21.44-.03,32.17.02,2.37-.33,3.23-3.08,2.64-31.29-6.72-62.6-13.31-93.91-19.94,1.46-1.54,1.06-3.48,1.12-5.32.4-12.54-.84-25.12.74-37.64Z"/>
      <path class="cls-3" d="M370.24,110.42c0,3.86-.22,7.74.07,11.58.26,3.48-.81,4.26-4.19,3.51-13.73-3.03-27.52-5.82-41.27-8.74-19.72-4.19-39.42-8.49-59.17-12.56-2.9-.6-3.95-1.71-3.88-4.65.16-7.59.05-15.19.06-22.79,0-5.04.02-5.08,4.85-4.06,28.5,6.01,56.99,12.03,85.48,18.07,5.11,1.08,10.17,2.41,15.31,3.39,2.21.42,2.82,1.48,2.78,3.55-.1,4.23-.03,8.47-.03,12.7Z"/>
      <path class="cls-6" d="M121.27,202.84c0,19.82-.1,39.65.09,59.47.03,3.68-.97,4.03-4.16,3.1-5.86-1.7-11.8-3.12-17.76-4.41-2.77-.6-3.74-1.75-3.72-4.72.12-32.29.08-64.59.08-96.88,0-7.11.19-14.22-.08-21.32-.13-3.52,1.19-3.91,4.13-3.23,5.82,1.36,11.66,2.66,17.55,3.68,2.99.52,4.01,1.65,3.98,4.84-.17,19.82-.09,39.65-.09,59.47Z"/>
      <path class="cls-1" d="M27.72,241.89c-3.49-8.6-2.21-17.63-2.24-26.5-.11-32.08-.06-64.16-.07-96.24,5.23,1.07,10.44,2.32,15.71,3.15,2.99.47,3.71,1.81,3.7,4.69-.1,28.75-.06,57.49-.06,86.24,0,9.96-.07,19.91.04,29.86.03,2.81-.75,3.46-3.47,2.59-4.48-1.44-9.07-2.54-13.61-3.78Z"/>
      <path class="cls-5" d="M305.24,370.19c2.02-6.18,1.57-12.57,1.5-18.9-.05-4.69,1.33-8.77,4.23-12.45,3.24-4.11,6.32-8.33,9.45-12.52,3.45-4.62,5.2-9.64,5.16-15.6-.2-27.55-.19-55.1-.01-82.66.04-5.9-.67-11.4-3.86-16.44,8.5-3.2,16.59,3.78,16.59,11.34-.02,30.13-.01,60.27-.02,90.4,0,3.15-1.37,5.76-3.2,8.19-3.37,4.48-6.71,8.97-10.1,13.44-3.82,5.03-5.85,10.62-5.66,17,.11,3.48.08,6.97-.01,10.46-.15,5.61-2.47,7.85-8.11,7.9-1.99.02-3.98-.1-5.97-.15Z"/>
      <path class="cls-5" d="M356.92,263.07c.65-2.68.77-5.4.77-8.15-.02-39.35,0-78.71,0-118.06q12.67,1.09,12.67,13.52c0,34.25-.21,68.51.12,102.75.11,10.94-3.72,13.59-13.57,9.94Z"/>
      <path class="cls-1" d="M249.07,36.6c0,6.22-.08,12.44.04,18.66.05,2.35-.51,3.54-3.1,4-8.69,1.55-17.33,3.34-25.96,5.16-2.25.48-3.07.13-3.05-2.41.11-12.32.09-24.64.02-36.95-.01-2.06.53-3.09,2.71-3.6,8.95-2.1,17.87-4.34,26.77-6.67,2.07-.54,2.63-.02,2.6,2.02-.08,6.59-.03,13.19-.03,19.78Z"/>
      <path class="cls-1" d="M166.05,55.29c0,5.74-.06,11.47.03,17.21.03,1.94-.52,2.85-2.59,3.24-8.94,1.66-17.86,3.43-26.75,5.36-2.39.52-2.75-.28-2.74-2.35.06-10.97.08-21.95-.02-32.92-.02-2.1.6-3.11,2.71-3.61,8.85-2.09,17.69-4.24,26.47-6.59,2.65-.71,2.95.25,2.91,2.46-.09,5.74-.03,11.47-.03,17.21Z"/>
      <path class="cls-1" d="M249.08,150.85c0,10.1-.09,20.2.06,30.29.04,2.86-.5,4.37-3.74,4.46-2.05.06-4.19.76-6.1,1.61-2.42,1.08-3.03.44-3-2.02.09-6.86.03-13.71.03-20.57,0-10.97-.02-21.94.01-32.91.01-3.63.01-7.25-1.09-10.74-.63-1.99.04-2.67,1.98-2.9,2.84-.34,5.7-.72,8.46-1.45,3.14-.83,3.46.58,3.43,3.2-.11,10.35-.05,20.69-.05,31.04Z"/>
      <path class="cls-4" d="M26.18,18.02c-1.58,12.52-.34,25.1-.74,37.64-.06,1.84.34,3.78-1.12,5.32-3.05-.61-6.08-1.36-9.16-1.8-1.91-.28-2.44-1.16-2.43-2.97.06-10.97-.04-21.94.06-32.91.04-5.16,3.35-7.75,8.4-6.77,1.7.33,3.33.98,5,1.48Z"/>
      <path class="cls-5" d="M357.67,78.58c0-8.57-.15-17.14.05-25.7.12-4.95-.38-9.64-3.07-13.91,3.84.43,7.49,1.66,11.17,2.76,2.96.89,4.47,3.14,4.5,6.16.07,10.31,0,20.62.06,30.93.01,1.97-.52,2.71-2.6,2.14-3.34-.92-6.86-1.09-10.11-2.39Z"/>
      <path class="cls-4" d="M25.37,74.16c.02,10.58.04,21.16.06,31.74-3.42-.67-6.84-1.39-10.27-1.98-1.78-.31-2.47-1.12-2.45-3,.09-8.85.09-17.71,0-26.56-.02-2.2.64-2.92,2.81-2.39,3.27.8,6.56,1.46,9.85,2.18Z"/>
    </g>
  </g>
</svg>