<?xml version="1.0" encoding="UTF-8"?>
<svg id="Capa_2" xmlns="http://www.w3.org/2000/svg" viewBox="0 0 328.29 241.56">
  <g id="Capa_1-2" data-name="Capa_1">
    <g>
      <path d="M128.28,151.5c0,.67,0,1.22,0,1.77-.02,8.36.08,16.73-.07,25.09-.33,19.37-8.01,35.41-22.65,47.97-12.37,10.61-26.95,15.65-43.2,15.21-14.52-.39-27.53-5.26-38.84-14.48-12.9-10.51-20.36-24.11-22.87-40.49-1.84-12,.45-23.42,4.4-34.75,14.31-41,28.39-82.08,42.59-123.12,5.25-15.18,15.96-24.38,31.51-27.78,22.1-4.82,44.63,10.39,48.83,32.66.99,5.27.87,10.58.84,15.89,0,.97,0,1.93,0,3.15,11.46-5.07,23.23-7.7,35.57-7.66,12.29.04,24,2.69,35.34,7.82,0-3.87-.04-7.52,0-11.17.21-15.96,7.29-28.16,20.98-36.03,20.3-11.68,45.61-4.41,56.8,16.16,2.78,5.11,4.52,10.82,6.44,16.36,13.34,38.5,26.57,77.04,39.9,115.55,2.74,7.91,4.54,15.96,4.43,24.37-.39,29.74-20.93,55.08-50.1,61.83-34.06,7.88-68.42-13.53-76.45-47.81-1.01-4.33-1.44-8.86-1.58-13.32-.26-8.56-.13-17.14-.1-25.7,0-1.3-.4-1.64-1.66-1.64-22.81.03-45.62.02-68.44.03-.5,0-1,.05-1.67.09ZM120.44,145.63c0-.55,0-1.1,0-1.66.02-12.85.04-25.71.06-38.56,0-4.65-.02-9.29.03-13.94.02-2.21,1.61-3.87,3.72-4.01,2.03-.14,3.76,1.23,4.16,3.37.11.6.11,1.23.11,1.85-.01,5.88-.04,11.77-.06,17.65,0,.55,0,1.11,0,1.73h71.31c.03-.42.08-.72.08-1.03-.02-16.05-.06-32.11-.06-48.16,0-.94-.37-1.36-1.15-1.74-22.89-10.99-45.8-11.05-68.74-.16-1.02.48-1.29,1.09-1.29,2.14.01,5.01-.03,10.01-.08,15.02-.03,2.79-1.72,4.69-4.1,4.66-2.31-.03-3.88-1.9-3.89-4.66-.01-3.51-.14-7.03.06-10.53.29-5.06-.81-9.83-2.55-14.51-5.91-15.92-20.21-26.44-37.93-24.81-15.57,1.43-26.67,9.6-32,24.25-9.08,24.98-17.51,50.2-26.21,75.31-.11.32-.16.67-.33,1.37,15.72-13.13,33.45-18.52,53.35-15.19,19.96,3.34,34.87,14.35,45.5,31.61ZM207.91,146.11c10.59-17.76,25.58-28.68,45.53-32.1,20.09-3.44,37.84,2.11,53.53,15.36-.22-.71-.35-1.19-.51-1.66-3.15-9.16-6.28-18.32-9.45-27.47-5.57-16.06-10.86-32.22-16.82-48.13-8.03-21.41-33.11-30.38-53-19.12-11.97,6.78-18.81,17.3-19.02,31.1-.41,26.73-.21,53.47-.26,80.2,0,.44,0,.88,0,1.81ZM207.9,178.02c.09,30.39,25.52,55.48,56.21,55.46,30.86-.02,56.27-25.43,56.17-56.16-.11-31.12-25.23-56.27-56.2-56.25-32.15.02-56.89,26.62-56.18,56.95ZM7.97,177.52c-.14,30.23,23.81,55.28,54.2,56.26,31.97,1.04,58.54-24.8,58.08-57.28-.43-30.4-24.92-55.23-55.69-55.43-29.93-.2-56.47,23.52-56.6,56.45ZM199.79,143.37v-23.15h-71.34v23.15h71.34ZM272.06,28.84c-5.1-13.49-21.06-24.09-39.07-19.76-13.66,3.28-26.93,19.13-25,30.35,7.48-10.11,17.26-16.48,29.61-18.58,12.43-2.12,23.83.65,34.46,8ZM56.16,28.74c10.68-7.38,22.15-10.08,34.61-7.97,12.58,2.14,22.33,8.82,29.61,19.43-.29-13.62-10.23-28.54-27.61-31.6-16.63-2.93-31.44,7.03-36.61,20.14Z"/>
      <path d="M41.15,103.9c-2.83.01-4.62-2.55-3.66-5.4,2.16-6.44,4.39-12.86,6.6-19.29,2.16-6.28,4.32-12.56,6.48-18.84.6-1.76,1.7-2.93,3.65-3.07,1.71-.12,3.23.45,3.75,2.09.37,1.17.38,2.67,0,3.84-1.65,5.2-3.5,10.34-5.28,15.5-2.51,7.3-5.02,14.6-7.55,21.9-.74,2.14-2.14,3.26-4.01,3.27Z"/>
      <path d="M164.18,86.83c3.56,0,7.11,0,10.67,0,2.79,0,4.55,1.54,4.55,3.94,0,2.38-1.79,4.04-4.48,4.05-7.16.02-14.33.02-21.49,0-2.69,0-4.53-1.64-4.57-3.98-.03-2.41,1.8-4.01,4.65-4.01,3.56,0,7.11,0,10.67,0Z"/>
      <path d="M63.87,46.49c-.61,1.54-1.32,3.86-2.43,5.98-.79,1.52-2.92,1.9-4.54,1.24-1.7-.69-2.84-2.44-2.41-4.21.49-1.99,1.16-3.96,1.98-5.83.7-1.6,2.69-2.35,4.32-1.93,1.89.49,3.09,2.04,3.07,4.75Z"/>
      <path d="M264.17,222.03c-24.96-.04-45.03-19.92-44.72-45.43.3-24.67,20.89-44.14,45.49-43.66,24.34.47,44.1,20.58,43.62,45.53-.47,23.94-20.19,43.5-44.38,43.56ZM300.87,177.59c.25-20.32-16.05-37.05-36.62-37.13-19.96-.08-36.58,15.82-36.77,36.35-.21,22.1,17.45,36.98,36.18,37.24,20.23.28,36.96-16.16,37.21-36.46Z"/>
      <path d="M63.96,222.02c-25.26-.31-44.87-20.42-44.47-45.8.37-23.67,19.7-44.38,45.88-43.74,25.57.62,43.68,21.82,43.51,45.24-.17,23.82-19.56,44.3-44.92,44.3ZM27.39,178.18c.62,20.94,17.75,36.15,37.01,35.82,21.36-.37,37.02-17.26,36.26-38.45-.71-19.75-17.84-35.77-37.56-35.1-20.36.69-36.4,17.64-35.72,37.73Z"/>
    </g>
  </g>
</svg>