<?xml version="1.0" encoding="UTF-8"?>
<svg id="Capa_2" xmlns="http://www.w3.org/2000/svg" viewBox="0 0 383.16 383.26">
  <defs>
    <style>
      .cls-1 {
        fill: #817ec1;
      }

      .cls-2 {
        fill: #d5d4da;
      }

      .cls-3 {
        fill: #423f85;
      }

      .cls-4 {
        fill: #ececec;
      }

      .cls-5 {
        fill: #040404;
      }
    </style>
  </defs>
  <g id="Capa_1-2" data-name="Capa_1">
    <path class="cls-5" d="M117.53,383.26c-11.76-5.01-18.55-15.78-27.66-23.87-2.05-1.82-3.65-4.89-5.94-5.46-2.36-.59-4.27,2.72-6.51,4.14-15.57,9.86-36.15,7.2-48.35-6.37-12.39-13.78-13.22-34.28-1.6-48.62,2.39-2.95,2.02-4.3-.49-6.68-6.78-6.43-13.3-13.13-19.88-19.77-7.33-7.39-9.06-16.44-4.84-24.87,4.25-8.48,12.78-12.43,23.22-10.89,15.76,2.33,31.54,4.55,47.29,6.89,1.94.29,3.19-.23,4.5-1.72,20.67-23.64,41.37-47.24,62.17-70.77,1.81-2.05,1.35-3.05-.36-4.74-16.01-15.89-31.93-31.87-47.87-47.84-3.64-3.65-3.83-5.06-1.46-9.5,4.6-2.25,5.81-2.06,9.49,1.59,3.18,3.15,6.34,6.32,9.5,9.49,12.31,12.31,24.68,24.56,36.88,36.99,2.39,2.44,3.76,3.22,6.09-.06,2.49-3.53,5.63-6.6,8.49-9.87,16.14-18.32,32.29-36.63,48.71-55.27-11.47-4.98-22.28-10.59-33.65-14.95-1.09-.59-2.15-1.25-3.27-1.76-31.48-14.35-62.95-28.7-94.44-43.03-14.38-6.54-28.77-13.08-43.2-19.52-4.43-1.98-8.79-1.54-12.62,1.6-5.88,4.83-6.1,12.72-.48,18.35,19.8,19.85,39.63,39.65,59.45,59.48,3.68,3.68,3.86,4.89,1.61,9.51-4.35,2.3-5.91,2.15-9.25-1.19-19.94-19.91-39.87-39.84-59.78-59.78-6.64-6.65-8.95-14.65-6.33-23.65C9.43,12.59,15.32,7.14,24.01,5.03c5.64-1.37,11.07-.43,16.36,1.99,25.66,11.73,51.36,23.36,77,35.11,2.22,1.02,3.54,1,5.37-.88,9.49-9.73,19.02-19.42,28.81-28.86,20.09-19.39,52.4-10.99,59.72,15.51,3.43,12.44.71,23.72-7.84,33.39-3.63,4.1-7.64,7.87-11.57,11.7-1.49,1.45-1.95,2.19.45,3.23,7.41,3.2,14.79,6.5,22.04,10.06,2.48,1.22,3.32-.25,4.52-1.61,18.59-21.18,36.98-42.53,55.82-63.48,16.51-18.36,37.44-24.96,61.27-19.12,23.69,5.8,38.68,21.48,45.39,44.98.66,2.31.38,4.87,1.81,6.97v17.21c-1.78,2.63-1.64,5.82-2.51,8.71-4.09,13.65-12.66,23.96-23.29,33.09-19.76,16.98-39.23,34.3-58.78,51.52-.97.85-2.89,1.37-1.92,3.47,3.83,8.31,7.61,16.65,11.96,26.18,4.84-5.2,8.85-10.15,13.52-14.38,9.46-8.59,20.73-11.17,33.02-7.88,26.69,7.15,35.18,39.62,15.68,59.89-9.25,9.61-18.75,18.99-28.32,28.29-2.12,2.06-2.45,3.57-1.2,6.27,11.7,25.39,23.21,50.87,34.86,76.3,3.18,6.94,3.78,13.89.64,20.94-6.57,14.74-26.3,18.73-39.26,5.63-41.03-41.49-82.46-82.59-123.61-123.96-2.8-2.82-4.26-3.02-7.28-.28-12.46,11.3-25.21,22.3-37.87,33.39-3.74,3.28-6.8,3.28-9.9.07-1.48-3.65-.18-6.25,2.7-8.74,8.88-7.68,17.59-15.57,26.37-23.37,1.26-1,2.55-1.96,3.76-3.02,32.88-28.84,65.75-57.7,98.62-86.55,21.35-18.74,42.82-37.35,64-56.3,15.72-14.06,21.18-31.81,15.54-52.09-5.25-18.89-18.02-31.1-37.17-35.56-19.44-4.53-36.43.86-49.66,15.83-37.57,42.47-74.88,85.16-112.26,127.79-11.33,12.92-22.58,25.91-33.86,38.87-.7.69-1.45,1.34-2.1,2.08-17.84,20.32-35.68,40.64-53.51,60.97-14.63,16.67-29.38,33.24-43.86,50.04-12.85,14.91-7.14,36.97,11.04,42.94,10.23,3.36,19.29.83,27.33-6.27,21.95-19.38,43.99-38.66,66.01-57.97,4.17-3.66,6.01-3.65,9.97-.19,1.63,3.51.45,6.15-2.35,8.51-4,3.36-7.77,7-11.85,10.26-1.94,1.55-2.36,3.14-2.01,5.45,2.43,16.1,4.78,32.21,7.13,48.33,1.38,9.44-3.98,18.68-12.67,22.31-1.42.6-3.2.06-4.31,1.46h-8.23ZM363.18,189.34c-8.77-9.36-23.66-10.12-33.33-1.42-5.28,4.75-10.11,9.99-15.19,14.96-1,.98-1.35,1.82-.69,3.25,6.95,15.13,13.82,30.29,20.61,45.21,5.63-5.4,11.19-10.73,16.75-16.06,4.32-4.29,8.87-8.39,12.92-12.93,8.65-9.69,8.06-24.14-1.07-33.02ZM193.93,20.12c-8.18-8.59-22.48-10.24-31.41-2.14-10.64,9.66-20.12,20.6-30.06,30.94,13.47,6.14,27.73,12.45,41.8,19.17,3.85,1.83,6.39,1.7,8.49-2.05,4.24-4.2,8.72-8.18,12.67-12.64,8.66-9.77,7.87-24.71-1.49-33.28ZM366.82,357.97c1.7-4.06.4-7.73-1.29-11.44-22.67-49.82-45.32-99.64-67.97-149.47-3.39-7.45-6.8-14.89-10.34-22.62-18.61,16.4-36.92,32.54-55.23,48.68-3.56,3.11-7,6.37-10.72,9.26-2.04,1.59-2.01,2.48-.23,4.26,41.97,41.88,83.86,83.84,125.83,125.73,6.63,6.62,16.43,4.35,19.95-4.4ZM66.17,258.55c-1.32-.44-2-.78-2.71-.89-13.74-2.01-27.49-4.02-41.24-5.98-4.02-.57-7.93,1.45-9.7,4.87-2.02,3.9-1.63,7.71,1.56,10.97,7.13,7.29,14.43,14.41,21.57,21.7,1.61,1.65,2.58,1.25,3.86-.26,2.33-2.75,4.78-5.39,7.16-8.1,6.38-7.28,12.74-14.57,19.5-22.31ZM125.09,316.82c-10.89,9.59-21.05,18.56-31.25,27.48-1.53,1.34-.87,2.23.24,3.33,7.17,7.12,14.26,14.31,21.46,21.39,3.43,3.37,7.32,3.86,11.29,1.75,3.61-1.92,5.35-6.02,4.65-10.52-1.22-7.86-2.32-15.74-3.48-23.61-.92-6.25-1.84-12.51-2.92-19.82Z"/>
    <path class="cls-3" d="M82.3,105.75c2.25-4.62,2.06-5.83-1.61-9.51-19.81-19.83-39.65-39.63-59.45-59.48-5.62-5.63-5.39-13.52.48-18.35,3.83-3.15,8.19-3.58,12.62-1.6,14.43,6.44,28.82,12.98,43.2,19.52,31.49,14.32,62.97,28.67,94.44,43.03,1.12.51,2.18,1.17,3.27,1.76-.26,1.49-1.5,2.25-2.45,3.2-6.76,6.81-13.55,13.6-20.34,20.38-5.42,5.4-7.8,12.13-7.89,19.57-.15,12.01,7,20.01,15.62,27.07-2.86,3.27-5.99,6.34-8.49,9.87-2.33,3.29-3.7,2.5-6.09.06-12.19-12.43-24.57-24.68-36.88-36.99-3.17-3.17-6.33-6.34-9.5-9.49-3.68-3.65-4.89-3.84-9.49-1.59-2.48-2.48-4.96-4.96-7.44-7.45Z"/>
    <path class="cls-4" d="M136.94,195.34c11.28-12.96,22.53-25.95,33.86-38.87,37.38-42.63,74.69-85.32,112.26-127.79,13.24-14.96,30.22-20.36,49.66-15.83,19.15,4.46,31.92,16.67,37.17,35.56,5.63,20.29.18,38.03-15.54,52.09-21.17,18.94-42.65,37.55-64,56.3-32.87,28.86-65.74,57.71-98.62,86.55-1.21,1.06-2.51,2.02-3.76,3.02-4.79.5-9.48.89-14.37.09-14.64-2.41-25.31-10.15-32.32-23.05-4.78-8.8-6.07-18.22-4.34-28.07Z"/>
    <path class="cls-2" d="M136.94,195.34c-1.73,9.85-.44,19.27,4.34,28.07,7,12.9,17.67,20.63,32.32,23.05,4.89.81,9.59.42,14.37-.09-8.78,7.81-17.49,15.69-26.37,23.37-2.88,2.49-4.17,5.09-2.7,8.74-.83,2.62-3.13,3.98-5,5.66-.92.83-1.99,1.4-2.07,2.8-3.96-3.46-5.8-3.47-9.97.19-22.02,19.3-44.06,38.59-66.01,57.97-8.04,7.1-17.1,9.63-27.33,6.27-18.19-5.97-23.89-28.03-11.04-42.94,14.48-16.8,29.23-33.37,43.86-50.04,17.84-20.32,35.67-40.65,53.51-60.97.65-.74,1.4-1.39,2.1-2.08Z"/>
    <path class="cls-1" d="M231.99,223.12c18.31-16.14,36.62-32.28,55.23-48.68,3.53,7.73,6.95,15.17,10.34,22.62,22.66,49.82,45.3,99.65,67.97,149.47,1.69,3.71,2.99,7.38,1.29,11.44-.94-.81-1.94-1.55-2.81-2.43-43.21-43.19-86.41-86.39-129.6-129.61-.87-.87-1.61-1.87-2.42-2.81Z"/>
    <path class="cls-3" d="M231.99,223.12c.8.94,1.55,1.94,2.42,2.81,43.19,43.21,86.39,86.41,129.6,129.61.87.87,1.87,1.62,2.81,2.43-3.52,8.75-13.32,11.02-19.95,4.4-41.97-41.89-83.86-83.84-125.83-125.73-1.78-1.77-1.8-2.67.23-4.26,3.72-2.9,7.16-6.16,10.72-9.26Z"/>
    <path class="cls-1" d="M160.2,151.32c-8.63-7.05-15.78-15.06-15.62-27.07.09-7.43,2.47-14.16,7.89-19.57,6.8-6.78,13.58-13.57,20.34-20.38.95-.95,2.19-1.71,2.45-3.2,11.38,4.36,22.18,9.97,33.65,14.95-16.42,18.63-32.57,36.95-48.71,55.27Z"/>
    <path class="cls-2" d="M182.76,66.05c-2.1,3.75-4.64,3.88-8.49,2.05-14.07-6.71-28.33-13.03-41.8-19.17,9.94-10.34,19.42-21.28,30.06-30.94,8.92-8.11,23.23-6.45,31.41,2.14-1.53,2.62-3.87,4.52-6.05,6.49-8.1,7.29-11.92,16.21-10.44,27.08.62,4.53,1.03,9.33,5.31,12.36Z"/>
    <path class="cls-2" d="M351.33,235.28c-5.56,5.33-11.12,10.66-16.75,16.06-6.79-14.92-13.66-30.08-20.61-45.21-.66-1.43-.31-2.26.69-3.25,5.07-4.98,9.91-10.21,15.19-14.96,9.67-8.7,24.56-7.94,33.33,1.42-5.54,4.82-11.29,9.55-14.32,16.45-4.49,10.2-4.68,20.19,2.47,29.49Z"/>
    <path class="cls-3" d="M66.17,258.55c-6.77,7.74-13.13,15.03-19.5,22.31-2.38,2.71-4.83,5.35-7.16,8.1-1.28,1.51-2.25,1.91-3.86.26-7.13-7.29-14.44-14.41-21.57-21.7-3.19-3.26-3.59-7.07-1.56-10.97,1.77-3.42,5.69-5.44,9.7-4.87,13.75,1.96,27.5,3.96,41.24,5.98.72.1,1.4.45,2.71.89Z"/>
    <path class="cls-3" d="M125.09,316.82c1.08,7.31,2,13.57,2.92,19.82,1.16,7.87,2.26,15.75,3.48,23.61.7,4.51-1.04,8.61-4.65,10.52-3.97,2.11-7.86,1.62-11.29-1.75-7.21-7.08-14.3-14.27-21.46-21.39-1.11-1.1-1.77-1.99-.24-3.33,10.2-8.92,20.36-17.89,31.25-27.48Z"/>
    <path class="cls-4" d="M351.33,235.28c-7.15-9.3-6.96-19.29-2.47-29.49,3.04-6.9,8.78-11.63,14.32-16.45,9.12,8.87,9.71,23.33,1.07,33.02-4.05,4.54-8.6,8.63-12.92,12.93Z"/>
    <path class="cls-4" d="M182.76,66.05c-4.29-3.03-4.7-7.83-5.31-12.36-1.48-10.87,2.34-19.79,10.44-27.08,2.18-1.97,4.52-3.87,6.05-6.49,9.36,8.57,10.16,23.51,1.49,33.28-3.95,4.46-8.43,8.44-12.67,12.64Z"/>
  </g>
</svg>