<?xml version="1.0" encoding="UTF-8"?>
<svg id="Capa_2" xmlns="http://www.w3.org/2000/svg" viewBox="0 0 369 383.14">
  <defs>
    <style>
      .cls-1 {
        fill: #caa49c;
      }

      .cls-2 {
        fill: #f1e235;
      }

      .cls-3 {
        fill: #61a2f9;
      }

      .cls-4 {
        fill: #f3e1c0;
      }

      .cls-5 {
        fill: #423f85;
      }

      .cls-6 {
        fill: #7c8893;
      }

      .cls-7 {
        fill: #eaa52f;
      }

      .cls-8 {
        fill: #a2837e;
      }

      .cls-9 {
        fill: #c5a099;
      }

      .cls-10 {
        fill: #5391f8;
      }

      .cls-11 {
        fill: #7d8a95;
      }

      .cls-12 {
        fill: #62a3fa;
      }

      .cls-13 {
        fill: #61a3fa;
      }

      .cls-14 {
        fill: #f1e135;
      }

      .cls-15 {
        fill: #393939;
      }

      .cls-16 {
        fill: #807fc0;
      }
    </style>
  </defs>
  <g id="Capa_1-2" data-name="Capa_1">
    <g>
      <path d="M357.12,146.09c.46,3.67,2.66,5.41,6.24,5.11,3.85-.74,5.64-3.02,5.62-6.99-.07-11.22.14-22.44-.07-33.66-.27-14.65-10.35-24.37-25.01-24.44-9.72-.04-19.45-.06-29.17.03-2.04.02-2.82-.44-2.79-2.65.12-8.47.07-16.95.03-25.43,0-1.46.17-2.58,1.63-3.4,5.83-3.26,8.12-8.44,7.9-14.95-.1-2.74.09-5.49-.07-8.23-.75-13.23-7.13-22.79-19.06-28.51-2.73-1.31-5.74-2.01-8.63-2.98h-35.92c-1.21.88-2.69-.02-3.94.62-5.1.46-9.59,2.54-13.67,5.49-13.24,9.59-14.98,23.28-13.27,38.07.53,4.6,3.19,8.1,7.23,10.31,1.58.87,1.96,1.86,1.95,3.51-.07,8.35-.12,16.7.02,25.05.04,2.37-.5,3.16-3.02,3.12-9.47-.16-18.95-.08-28.42-.06-15.52.04-25.48,9.95-25.51,25.41-.03,15.08-.09,30.17.07,45.25.03,2.88-.77,3.49-3.51,3.42-7.85-.19-15.7,0-23.56-.1-2.95-.04-6.86,1.33-8.57-.61-1.44-1.63-.41-5.45-.47-8.3,0-.37-.02-.75-.04-1.12-.83-13.19-10.55-23.55-22.91-24.42-13.63-.96-24.79,7.4-27.44,20.6-.69,3.45-.5,6.97-.32,10.44.14,2.71-.5,3.57-3.4,3.53-13.46-.18-26.92-.09-40.39-.07-12.41.02-21.96,9.41-21.98,21.91-.05,22.94.06,45.87.13,68.81.01,4.62,1.12,5.97,5.74,7.38,3.87.28,6.04-1.66,6.28-5.89.26-4.48.07-8.97.09-13.46.01-2.18.92-2.96,3.03-2.32,2.9.88,5.87,1.01,8.88,1.03,1.3.01,2.95-.28,3.46,1.47.53,1.79-.71,2.83-2.06,3.55-5.15,2.75-7.07,7.1-6.53,12.75.07.74,0,1.49.02,2.24.14,7.43,4.08,12.16,11.47,12.64,9.32.6,18.69.52,28.01,0,3.63-.2,7.07-1.44,9.43-4.64,4.06-5.49,4.23-20-4.57-23.23-1.31-.48-2.49-1.42-2.16-3.09.37-1.84,2-1.55,3.31-1.68.87-.08,1.74-.03,2.62-.03,15.95,0,31.9,0,47.85,0,1.12,0,2.25-.06,3.36.06,1.09.12,2.34.1,2.72,1.49.41,1.51-.49,2.4-1.67,2.96-5.95,2.86-7.87,7.68-7.67,14.06.3,9.69,4.43,14.16,14.2,14.31,7.72.12,15.45.01,23.18.03,3.87,0,7.37-1.02,10.44-3.42,5.48-6.74,5.35-16.47-.31-22.7-1.22-1.12-2.79-1.6-4.21-2.37-1.11-.6-1.52-1.6-1.33-2.82.23-1.44,1.34-1.63,2.5-1.68,1.12-.05,2.23.05,3.34.04,1.87.15,3.72-.04,5.56-.41,4.1-.81,4.24-.73,4.24,3.46.01,39.85.04,79.7-.01,119.56,0,6.95-3.34,10.3-10.24,10.57-1.24.05-2.49.19-3.73.04-43.59-.09-87.18-.1-130.77.04-9.73.03-12.83-5.85-12.07-13.49.3-2.98.57-5.94.57-8.94-.02-17.56-.03-35.13,0-52.69,0-5.61-.84-11.16-.92-16.77-.06-4.22-2.41-6.11-6.32-5.88-4.66,1.27-5.83,2.65-5.67,7.71.08,2.72-.41,3.77-3.52,3.75-14.44-.1-23.23,8.79-23.31,23.24-.05,9.47-.02,18.95,0,28.42.02,15.37,8.3,23.87,23.62,24.08,2.27.03,3.09.47,3.38,2.98,1.42,12.37,10.01,19.93,22.42,19.93,45.5.03,91,.02,136.5,0,12.75,0,21.33-7.83,22.51-20.57.17-1.78.69-2.3,2.43-2.34,1.87-.04,2.39.68,2.3,2.41-.09,1.74-.08,3.5.1,5.23.91,8.96,7.27,14.81,15.78,14.62,8.25-.19,14.29-6.33,14.83-15.18.14-2.24.23-4.5.02-6.72-.26-2.74.57-3.59,3.46-3.56,15.83.16,31.66.06,47.49.09,2.97,0,6.8-.92,8.66.56,2.01,1.59.61,5.6.62,8.53.03,5.01,1.53,9.32,5.41,12.58,4.95,4.15,10.55,4.97,16.37,2.29,6.33-2.91,9.01-8.23,8.99-15.07,0-2.84-.88-6.54.55-8.29,1.52-1.86,5.37-.56,8.19-.59,15.52-.15,25.28-9.91,25.3-25.63.04-52.36.02-104.71.01-157.07,0-5.67-.67-6.59-5.76-8.18-3.28-.38-5.32,1.07-6.02,4.36-.41,1.96-.26,3.97-.26,5.97,0,49.98,0,99.96,0,149.94,0,3.25-.05,6.49-.99,9.63-1.5,5.04-5.42,8.14-10.67,8.38-1.49.07-2.98.24-4.48.06-1-.09-2-.03-3-.03-31.8,0-63.59,0-95.39,0-5.99,0-5.92,0-5.87-5.78.09-10.97.03-21.95.03-32.92,0-3.84-.69-7.7-2.93-10.67-3.6-4.77-3.85-9.98-3.84-15.55.07-51.75.05-103.5.04-155.24,0-2.87.13-5.75-.87-8.51-1.12-3.1-3.79-4.81-6.95-4.51-3.04.29-5.05,2.27-5.58,5.6-.32,1.98-.2,3.98-.2,5.98,0,51,0,102,0,153,0,1.5,0,2.99-.07,4.49-.11,2.14-1.43,2.68-3.28,2.68-1.9,0-3.1-.7-3.18-2.78-.05-1.37-.06-2.74-.06-4.11,0-31.17-.04-62.35.02-93.52.02-10.15-4.2-17.58-13.55-21.67-3.38-1.48-4.54-3.56-4.5-7.17.17-12.97.07-25.94.07-38.9,0-12.92,3.5-16.44,16.36-16.45,43.89-.01,87.78.02,131.67-.03,1.75-.2,3.49-.11,5.23.02,6.39.48,10.3,4.04,11.44,10.3.43,2.34.62,4.69.62,7.06-.02,7.6-.02,15.2,0,22.8,0,2.49-.17,4.99.14,7.47ZM129.8,160.14c-4.1-.02-8.2,0-12.3,0-3.73,0-7.46-.1-11.18.04-1.98.07-2.94-.31-2.75-2.57.21-2.59-.04-5.22.1-7.82.36-6.8,5.9-12.42,12.62-12.95,7.26-.57,13.43,3.73,15.11,10.5.91,3.68.37,7.42.56,11.13.09,1.71-.98,1.68-2.16,1.67ZM298.09,86.16c-8.1-.11-16.21-.04-24.31-.04-7.85,0-15.71-.07-23.56.05-2.15.03-3.03-.3-2.97-2.77.18-8.47.08-16.95.05-25.43,0-1.43.1-2.5,1.64-3.32,5.93-3.2,7.89-8.58,7.93-14.99.05-9.46.09-9.46,9.56-9.46,6.98,0,13.96.07,20.94-.03,2.84-.04,4.18.99,4.02,3.94-.13,2.49-.03,4.99,0,7.48.05,5.56,2.53,9.84,7.17,12.73,1.58.99,2.27,1.91,2.25,3.77-.09,8.48-.11,16.96.01,25.43.03,2.17-.66,2.68-2.73,2.65Z"/>
      <path class="cls-15" d="M257.82,0c-1.18,1.06-2.55.86-3.93.62.02-.22.08-.43.19-.62h3.74Z"/>
      <path class="cls-1" d="M32.55,258.23c4.13-.85,5.66-3.43,5.52-7.55-.18-5.1-.03-10.21-.02-15.32,0-.24.08-.49.21-1.24,5.1,2.52,10.52,2.55,15.96,2.37,1.25-.04,1.98.46,1.74,1.72-.29,1.54,1,3.39-1.26,4.57-7.68,4-10.4,11.02-7.51,19.25,1.51,4.31,4.73,6.92,9.21,7.03,9.96.23,19.93.29,29.89-.04,5.28-.18,8.74-3.79,9.55-8.91.46-2.96.47-5.97-.06-8.93-.7-3.85-2.81-6.91-6.59-7.85-3.56-.88-2.84-3.28-2.62-5.43.27-2.63,2.57-1.32,3.87-1.33,18.31-.1,36.63-.09,54.94-.02,1.33,0,3.56-1.09,3.58,1.76.01,2,.64,4-2.42,4.92-4.65,1.4-6.93,5.01-7.02,9.9-.03,1.74-.05,3.49,0,5.23.17,6.18,3.95,10.54,10.13,10.73,9.71.29,19.43.1,29.15.05,2.72-.02,4.97-1.45,7.17-2.87,1.4,1.39,1.19,3.21,1.2,4.92.03,29.35.1,58.69-.05,88.04-.02,4.65-.1,9.6-4.88,12.56-6.36.04-12.71.12-19.07.12-37.53.01-75.05,0-112.58,0-8.71,0-12.75-3.83-12.52-12.5.5-18.7.14-37.39.23-56.09.04-7.85-.25-15.7-.24-23.55,0-3.9-1.77-6.06-5.52-6.75,0-4.93.01-9.85.02-14.78Z"/>
      <path class="cls-5" d="M340.11,97.39c2.35.05,4.77-.23,7.05.19,7.1,1.31,10.67,6.41,10.73,15.17.07,10.44.12,20.89-.03,31.33-.06,4.05,1.59,6.35,5.5,7.11-.06,5-.12,10.01-.17,15.01-4.31.76-5.33,3.6-5.33,7.61.07,51.95.05,103.9.04,155.85,0,4.02-.26,7.96-2.89,11.34-3.69,4.73-8.73,5.25-14.16,4.66-.28-.9-.07-1.78.39-2.52,2.88-4.7,2.97-9.88,2.96-15.17-.05-70.79-.05-141.58,0-212.36,0-5.94-.14-11.74-3.84-16.78-.3-.4-.31-.94-.25-1.44Z"/>
      <path class="cls-16" d="M340.11,97.39c4.01,3.59,5.29,8.22,5.29,13.42-.02,38.89,0,77.78,0,116.67,0,34.53-.07,69.05.07,103.58.02,5.51-1.36,10.28-4.61,14.61-4.74.06-9.47.16-14.21.16-29.55.01-59.11-.02-88.66.05-2.62,0-4.16-.22-2.95-3.41.42-1.12.34-2.46.34-3.7.02-10.97.02-21.95.01-32.92,0-5.05-1.55-9.62-4.86-13.41-1.7-1.95-2.22-3.92-2.21-6.42.05-54.87.05-109.74.03-164.62,0-1.74-.01-3.52-.39-5.2-.63-2.82-2.66-4.14-5.49-4.04-2.86.1-4.68,1.63-5.15,4.46-.24,1.46-.17,2.98-.17,4.48,0,53.13,0,106.25-.05,159.38,0,1.31.96,3.47-1.07,3.82-2.27.38-4.76.24-6.99-.33-1.08-.28-.49-2.26-.49-3.46,0-32.3-.01-64.6.13-96.9.04-8.48-2.75-15.31-9.92-20.11-.62-.41-1.26-.97-1.95-1.07-6.33-.91-6.65-5.04-6.51-10.37.36-13.83.08-27.68.14-41.52.03-7.87,5.25-13.17,13.13-13.18,45.52-.03,91.03.02,136.55.04Z"/>
      <path class="cls-12" d="M117.64,225.26c-9.35,0-18.7-.07-28.04.05-2.32.03-3.2-.42-3.18-3.01.13-15.95.12-31.91,0-47.86-.02-2.43.62-3.12,3.09-3.11,18.82.1,37.64.09,56.46.01,2.19,0,3.06.42,3.05,2.84-.1,16.08-.1,32.16,0,48.24.01,2.34-.69,2.93-2.97,2.9-9.47-.12-18.94-.05-28.42-.05Z"/>
      <path class="cls-8" d="M182.23,371.78c2.88-4.13,3.79-8.73,3.77-13.72-.08-30.6-.04-61.2-.04-91.8,4.59-7.39,4.28-15.58-.84-21.49-.06-2.73-.55-5.47.1-8.19,4,0,7.91-.51,11.51-2.36.91,1.37.54,2.63.54,3.81.02,40.34.01,80.69.02,121.03,0,9.23-3.66,12.9-12.84,12.83-.74,0-1.49-.08-2.23-.12Z"/>
      <path class="cls-12" d="M56,198.28c0,8.09-.06,16.19.04,24.28.03,2.08-.53,2.96-2.69,2.73-1.48-.15-2.99,0-4.48-.03-6.34-.12-10.67-4.06-10.78-10.43-.19-10.96-.19-21.92,0-32.88.11-6.65,4.53-10.51,11.42-10.57q6.5-.05,6.5,6.34c0,6.85,0,13.7,0,20.55Z"/>
      <path class="cls-11" d="M273.9,11.23c5.11,0,10.22-.07,15.33.02,11.67.21,20.75,9.3,20.99,20.95.06,2.99.02,5.98.01,8.97,0,2.55-1.4,4.14-3.83,4.14-2.44,0-3.8-1.6-3.8-4.16,0-2.49.03-4.99-.02-7.48-.17-8.8-5.3-14.42-14.06-14.68-9.59-.29-19.2-.28-28.78,0-9.1.27-13.98,5.67-14.09,14.87-.03,2.37.07,4.74-.05,7.1-.12,2.54-1.33,4.46-4.07,4.37-2.48-.08-3.8-1.84-3.78-4.27.03-4.22-.35-8.46.48-12.67,1.88-9.57,10.21-16.85,19.96-17.13,5.23-.15,10.47-.03,15.7-.03h0Z"/>
      <path class="cls-12" d="M208.53,322.13c0-7.72.09-15.45-.05-23.17-.05-2.47.4-3.46,3.19-3.43,8.6.1,12.5,3.85,12.51,12.56,0,9.72.02,19.43,0,29.15-.02,8.37-5.73,13.12-13.92,11.82-2.19-.35-1.7-1.76-1.7-3.01-.03-7.97-.02-15.94-.02-23.92Z"/>
      <path class="cls-13" d="M26.8,322.14c0,7.83-.09,15.67.05,23.5.04,2.46-.42,3.48-3.2,3.45-8.47-.1-12.38-3.76-12.42-12.25-.05-9.58-.04-19.15,0-28.73.04-8.83,4.14-12.7,12.87-12.56,2.09.03,2.77.57,2.74,2.71-.11,7.96-.05,15.92-.05,23.88Z"/>
      <path class="cls-10" d="M179.99,225.09c-1.35-.74-.64-2.01-.64-2.99-.05-15.8.01-31.6-.09-47.41-.02-2.49.44-3.73,3.22-3.36,1.71.23,3.48-.04,5.22.08,5.27.36,9.47,4.41,9.53,9.67.15,11.44.14,22.89,0,34.34-.06,5.48-4.28,9.53-9.77,9.8-1.73.09-3.48-.06-5.21-.1-.09-.36-.29-.75-.12-1.09,3.79-7.89,2.57-16.34,2.7-24.62.08-5.23.1-10.46-.02-15.69-.08-3.21-.34-6.43-2.79-9.4-1.24,1.59-.87,3.23-.87,4.71-.03,13.45,0,26.9-.04,40.35,0,1.95.4,4.03-1.12,5.7Z"/>
      <path class="cls-3" d="M179.99,225.09c0-16.46-.01-32.91.04-49.37,0-1.21-.78-3.05,1.18-3.45,1.92-.39,2.58,1.47,3.05,2.72,1,2.65,1.76,5.4,1.74,8.33-.07,9.1-.14,18.2.02,27.3.09,5.24-.76,10.12-3.77,14.5-.75-.01-1.51-.03-2.26-.04Z"/>
      <path class="cls-14" d="M71.51,257.99c-3.72,0-7.44-.04-11.16.02-1.58.03-2.53-.2-2.57-2.16-.04-1.91.73-2.23,2.4-2.21,7.44.07,14.89.07,22.33,0,1.68-.01,2.42.37,2.4,2.25-.02,2.02-1.08,2.14-2.6,2.12-3.6-.05-7.2-.02-10.79-.02Z"/>
      <path class="cls-2" d="M163.91,253.66c3.85,0,7.7.03,11.55-.01,1.38-.02,2.37.06,2.31,1.92-.05,1.65-.36,2.47-2.26,2.45-7.57-.09-15.15-.07-22.72,0-1.68.01-2.08-.69-2.1-2.22-.02-1.55.37-2.21,2.06-2.16,3.72.11,7.45.03,11.17.03Z"/>
      <path class="cls-6" d="M232.56,363.19c0,1.5.1,3-.02,4.48-.19,2.16-1.47,3.38-3.64,3.55-2.15.16-3.7-.83-4.22-2.9-.79-3.18-.79-6.56-.16-9.65.63-3.1,3.77-1.15,5.76-1.57,1.75-.37,2.49.6,2.38,2.35-.08,1.24-.02,2.49-.02,3.74-.03,0-.06,0-.08,0Z"/>
      <path class="cls-11" d="M315.4,363.13c0-.37,0-.75,0-1.12,0-4.62,2.76-6.45,7.19-4.92,1.18.41,1.06,1.22,1.07,2.05.02,2.61.08,5.22-.02,7.83-.1,2.61-1.48,4.26-4.18,4.23-2.72-.03-3.97-1.72-4.05-4.34-.03-1.24,0-2.49-.01-3.73Z"/>
      <path class="cls-9" d="M185.23,236.58c.98,2.74,1.43,5.48-.1,8.19-.86-.47-1.69-1.28-2.58-1.35-3.68-.29-3.48-2.85-3.18-5.32.39-3.13,2.93-1.02,4.4-1.59.42-.16.97.04,1.46.07Z"/>
      <path d="M117.73,283.51c14.95,0,29.9-.02,44.85,0,9.88.02,15.16,5.34,15.18,15.27.02,12.58.03,25.17,0,37.75-.02,9.8-5.45,15.15-15.35,15.15-29.78.01-59.55.01-89.33,0-9.95,0-15.28-5.22-15.33-15.14-.07-12.71-.08-25.42,0-38.12.06-9.75,5.34-14.89,15.13-14.91,14.95-.03,29.9,0,44.85,0Z"/>
      <path d="M262.46,216.58c0,31.79,0,63.58,0,95.37,0,1.25.07,2.51-.11,3.73-.39,2.65-2,4.27-4.66,4.6-2.79.34-4.83-.8-5.94-3.47-.59-1.43-.52-2.93-.52-4.42,0-64.08,0-128.16,0-192.24,0-1.49-.08-2.99.49-4.43,1.08-2.68,3.1-3.83,5.9-3.53,2.68.29,4.3,1.89,4.71,4.53.21,1.34.12,2.74.12,4.11,0,31.92,0,63.83,0,95.75Z"/>
      <path d="M296.75,216.65c0,31.79,0,63.58,0,95.37,0,1.12.1,2.26-.07,3.36-.45,2.94-2.15,4.75-5.19,4.93-3.26.19-5.14-1.62-5.84-4.64-.28-1.19-.13-2.48-.13-3.73,0-63.83,0-127.66,0-191.5,0-1.24-.14-2.54.14-3.72.73-3.02,2.65-4.79,5.9-4.56,3.04.22,4.71,2.05,5.12,4.99.15,1.1.06,2.24.06,3.36,0,32.04,0,64.08,0,96.12Z"/>
      <path d="M319.85,216.19c0-31.79,0-63.58,0-95.37,0-1.25-.08-2.51.07-3.74.35-2.81,1.97-4.55,4.8-4.89,3.01-.36,5.12,1.04,5.98,3.91.41,1.39.36,2.95.36,4.43.02,63.83.01,127.66,0,191.49,0,1.36.1,2.79-.26,4.08-.79,2.85-2.76,4.44-5.81,4.2-3.01-.24-4.73-2.02-5.09-5.01-.15-1.23-.06-2.49-.06-3.74,0-31.79,0-63.58,0-95.37Z"/>
      <path class="cls-4" d="M117.89,340.47c-14.84,0-29.68-.09-44.52.07-3.52.04-4.53-1.22-4.5-4.56.13-12.34.13-24.69,0-37.04-.04-3.29,1.15-4.28,4.38-4.27,29.68.1,59.36.1,89.03,0,3.28-.01,4.34,1.07,4.3,4.33-.14,12.47-.13,24.94,0,37.41.03,3.11-1.11,4.13-4.17,4.11-14.84-.11-29.68-.05-44.52-.05Z"/>
      <rect class="cls-7" x="66.07" y="171.38" width="10.55" height="70.45"/>
      <rect class="cls-7" x="158.94" y="171.38" width="10.55" height="70.45"/>
    </g>
  </g>
</svg>