<?xml version="1.0" encoding="UTF-8"?>
<svg id="Capa_2" xmlns="http://www.w3.org/2000/svg" viewBox="0 0 252.5 256.29">
  <g id="Capa_1-2" data-name="Capa_1">
    <g>
      <path d="M123.72,256.29c-2.64-.14-5.29-.23-7.92-.42-20.07-1.48-38.76-7.39-55.87-17.98-26.88-16.64-45.04-40.15-54.52-70.3C1.71,155.82.1,143.72,0,131.37c-.17-21.35,4.99-41.33,15.19-60,10.44-19.09,24.93-34.45,43.34-46.07,14.85-9.37,30.97-15.28,48.34-17.85,9.63-1.42,19.3-1.73,28.99-.89,14.5,1.26,28.36,5.01,41.6,11.08.17.08.33.18.6.32-2.06,2.07-4.05,4.09-6.07,6.08-3.22,3.16-4.74,6.96-4.34,11.45.15,1.72.53,3.43.84,5.31-26.3-11.94-53.04-13.46-79.92-2.88-26.84,10.57-45.83,29.54-56.68,56.28-16.07,39.62-4.69,87.23,31.13,115.69,33.98,27,82.67,28.7,118.34,3.99,20.86-14.45,34.68-33.96,40.82-58.61,6.13-24.58,2.97-48.21-8.36-70.59,2.31,0,4.67.16,7-.04,2.64-.23,4.9-1.53,6.8-3.34,2.47-2.34,4.83-4.79,7.24-7.19.27-.27.56-.53.92-.87.21.37.39.66.55.96,6.49,12.63,10.75,25.97,12.53,40.06,4.47,35.41-4.28,67.27-26.51,95.16-17.26,21.65-39.57,35.84-66.36,42.88-9.25,2.43-18.68,3.73-28.25,3.82-.55,0-1.1.1-1.64.15h-2.37Z"/>
      <path d="M155.24,64.7c-.28.3-.52.6-.79.87-5.84,5.85-11.7,11.69-17.51,17.57-.74.75-1.38.99-2.46.79-16.43-3.04-30.9,1.09-42.93,12.62-10.58,10.15-15.7,22.82-14.58,37.53,1.47,19.3,11.24,33.23,28.78,41.26,19,8.7,41.94,3.44,55.52-12.46,11.22-13.13,14.47-28.19,10.14-44.9-.17-.65-.26-1.13.31-1.69,6.03-6,12.04-12.03,18.05-18.04.08-.08.18-.15.28-.22,12.59,23.04,12.76,60.86-15.74,87.06-27.4,25.18-69.5,26.1-98.13.44-27.77-24.89-32.64-67.14-9.94-97.74,22.2-29.91,60.41-36.55,89.01-23.09Z"/>
      <path d="M125.1,151.53c-9.5-.02-18.04-6.9-19.88-16.16-1.95-9.77,3.04-19.17,12.2-22.95,2.44-1.01,4.98-1.48,7.63-1.5.55,0,1.23-.29,1.62-.68,18.6-18.55,37.18-37.13,55.77-55.69.55-.55.65-1.04.51-1.78-1.1-5.82-2.12-11.66-3.25-17.48-.24-1.25.08-2.1.95-2.96,3.58-3.53,7.11-7.1,10.66-10.65,6.8-6.8,13.6-13.59,20.38-20.41.86-.87,1.71-1.55,3-1.15,1.3.4,1.8,1.44,2.04,2.67,1.21,6.16,2.42,12.33,3.63,18.49.54,2.75,1.12,5.5,1.62,8.26.12.66.39.9,1.04,1.03,8.72,1.7,17.44,3.44,26.16,5.16.46.09.95.14,1.39.3,2.31.84,2.36,3.2,1.12,4.43-10.6,10.49-21.14,21.05-31.68,31.6-.8.8-1.65,1.03-2.79.81-5.08-1-10.17-1.95-15.26-2.84-.45-.08-1.13.26-1.49.61-7.69,7.64-15.35,15.31-23.02,22.98-10.63,10.63-21.26,21.27-31.9,31.89-.59.59-.81,1.13-.66,1.97,1.98,10.64-4.7,20.9-15.24,23.38-1.49.35-3.04.46-4.56.69Z"/>
    </g>
  </g>
</svg>