<?xml version="1.0" encoding="UTF-8"?>
<svg id="Capa_2" xmlns="http://www.w3.org/2000/svg" viewBox="0 0 602.19 808.82">
  <defs>
    <style>
      .cls-1 {
        fill: #e8f5fe;
      }

      .cls-2 {
        fill: #000001;
      }

      .cls-3 {
        fill: #335d7f;
      }

      .cls-4 {
        fill: #d7e9fa;
      }

      .cls-5 {
        fill: #ade398;
      }

      .cls-6 {
        fill: #3c6c8f;
      }

      .cls-7 {
        fill: #3b3b3c;
      }

      .cls-8 {
        fill: #fefefe;
      }

      .cls-9 {
        fill: #87d7a2;
      }
    </style>
  </defs>
  <g id="Capa_1-2" data-name="Capa_1">
    <path class="cls-2" d="M118.09,60.67c17.81-12.04,36.86-21.38,57.34-28.17,20.92-6.94,42.24-11.78,63.98-14.73,18.95-2.57,38-3.11,57.12-1.17,15.79,1.6,31.32,4.33,46.55,8.7,15.9,4.56,31.26,10.64,46.22,17.71,4.3,2.03,5.49,1.66,7.76-2.35,5.66-10.01,11.05-20.18,17.52-29.7,3.55-5.21,8.81-7.88,14.83-9.86,9.45-3.1,17.02.8,24.22,5.6,20.06,13.35,38.63,28.64,55.31,46,23.82,24.77,43.71,52.43,59.09,83.29,6.29,12.62,11.9,25.51,16.62,38.74,2.76,7.75,4.88,15.77,6.96,23.78,3.62,13.93,6.05,28.01,8.06,42.26,4.47,31.74,2.6,63.13-2.85,94.56-3.06,17.63-7.35,34.86-13.09,51.76-8.68,25.58-20.64,49.51-35.16,72.32-17.11,26.88-38.18,50.19-62.23,70.8-22.66,19.41-47.71,35.26-74.86,47.84-14.07,6.52-28.35,12.39-43.14,16.98-15.1,4.69-30.57,7.89-46.23,10.02-10.38,1.42-10.37,1.23-10.35,11.7.03,21.47,0,42.95.02,64.42,0,1.36.18,2.72.28,4.07,8.88.81,17.79.94,26.68.59,7.33-.29,14.59-.35,21.83,1.05,3.93.76,6.36,3.17,7.83,6.6.68,1.57,1.36,3.2,1.82,4.88.13,5.89-5.15,11.23-11.69,11.79-1.74.15-3.49.07-5.24.07-67.53,0-135.06.05-202.59-.03-17.26-.02-29.04,13.18-29.45,29.38-.34,13.22.03,26.46-.14,39.69-.04,3.37,1.26,4.77,4.38,5.09,1.5.15,2.99.18,4.48.18,103.23,0,206.46.14,309.69-.17,11.81-.04,23.66-.63,35.5-.67,3.11,0,4.79-1.25,4.76-4.34-.13-14.96,1.12-29.97-.79-44.88-1.67-13.06-14.39-24.05-27.56-24.1-12.11-.04-24.22-.06-36.32-.22-7.53-.1-11.86-3.38-13.74-8.87-.25-.73-.32-1.45-.12-2.2.86-2.05,1.19-4.27,2.36-6.24,2.12-3.59,5.12-5.72,9.25-6.11,9.69-.89,19.4-.39,29.09-.22,6.3.11,12.59.41,18.89,1.53,8.87,1.57,16.46,5.21,23.17,11.07,5.1,4.46,9.35,9.63,13.12,15.22.51.76.81,1.51.92,2.39,2.57,5.04,4.09,10.42,4.58,16.02,1.62,18.39,1.48,36.81.12,55.2-.69,9.25-7.47,16.32-16.51,18.47-2.98.71-5.92,1.6-8.89,2.38H123.9c-3.32-.94-6.68-1.72-10-2.7-9.41-2.76-15.01-10.32-15.54-20.06-.71-13.08-.82-26.16-.62-39.23.11-6.82.81-13.62,2.15-20.37,1.93-9.72,7.4-17.14,14.02-24.1,4.46-4.69,9.8-7.95,15.38-10.98,3.26-1.79,6.76-2.8,10.45-3.16,2.73-.39,5.46-.78,8.2-1.12,7.73-.74,15.48-.24,23.21-.38,18.21.2,36.42-.11,54.62-.45,14.09-.26,28.18-.22,42.27-.24,6.34-.01,12.69.89,19.02-.1,2.15-.06,2.85-1.04,2.84-3.3-.09-23.22-.1-46.45,0-69.67.01-2.83-1.05-3.85-3.69-3.8-6.59.12-13.17-.09-19.76-.26-10.82-.27-21.56-1.19-32.33-2.13-9.19-.8-18.26-2.24-27.33-3.62-14.63-2.24-28.97-5.86-43.01-10.66-16.03-5.47-31.78-11.55-46.88-19.27-5.96-3.05-10.48-7.21-12.6-13.96-2.19-6.98-1.45-13.6,1.45-19.93,4.51-9.85,10.55-18.88,15.92-28.27,2.72-4.76,2.69-5.67-2.04-8.65-16.54-10.41-31.33-22.96-44.89-36.92-17.09-17.61-31.63-37.12-43.17-58.89-10.85-20.46-18.72-42.02-24.62-64.32-2.69-10.19-4.03-20.69-5.32-31.19-1.85-15.05-1.93-30.1-1.28-45.17.59-13.78,2.33-27.44,5.81-40.86,4.02-15.52,7.95-31.07,14.26-45.88,7.64-17.92,17.01-34.86,28.05-50.95,11.72-17.08,25.58-32.17,41.09-45.78,8.06-7.07,16.83-13.27,25.52-19.54,1.01-.73,2.14-1.29,2.99-2.23Z"/>
    <path class="cls-6" d="M370.55,697.79c9.55.21,19.1.42,28.65.64,1.1.02,1.9-.46,2.49-1.35.66.59.53,1.25.18,1.92-.3,5.46,5.04,10.4,11.58,10.54,5.37.12,10.75.23,16.1-.05,3.83-.2,6.48,1.31,8.56,4.27,4.92,7,8.09,14.73,8.26,23.31.28,13.73.13,27.46.05,41.2-.03,5.76-.97,6.57-6.85,6.57-103.49,0-206.98,0-310.48,0q-8.57,0-8.57-8.62c0-11.74-.24-23.48.08-35.2.23-8.1,2.57-15.68,8.27-21.84,5.79-6.26,13.02-9.56,21.47-9.57,68.91-.07,137.82-.06,206.74,0,5.59,0,9.56-2.27,12.25-7.03.61-1.09,1.18-2.22.73-3.55-.09-.51.07-.92.48-1.24Z"/>
    <path class="cls-1" d="M393.61,152.56c-9.79,9.77-20.74,18.24-31.04,27.43-10.4,9.28-21.08,18.24-28.92,30.03-11.63,17.49-6.76,37.17,9.6,48.81,6.59,4.69,13.76,8.42,20.52,12.83,6.11,3.99,11.6,8.62,14.51,15.62,3.75,8.99,2.5,17.88-.95,26.53-3.99,10.03-8.72,19.77-12.55,29.86-5.46,14.34-6.88,29.19-4.64,44.46,4.29,29.24,18.22,54.12,34.76,77.85,3.34,4.79,6.76,9.54,10.39,14.11,1.58,1.99,1.47,3.13-.57,4.43-13.74,8.77-28.14,16.27-43.26,22.35-13.29,5.34-26.98,9.48-40.97,12.41-18.37,3.85-36.97,5.53-55.77,5.23-8.76-.14-17.43-1.08-26.13-1.77-2.02-.16-2.55-.96-1.92-2.93,4.57-14.36,8.39-28.92,11.48-43.66,2.52-12.07,4.66-24.23,6.48-36.42,2.39-16.03,5.01-32.04,5.42-48.3.31-12.37.2-24.67-3.55-36.66-6.61-21.15-24.8-33.49-47.59-28.51-13.09,2.86-25.38,7.86-37.85,12.37-26.12,9.44-52.73,13.24-80.41,9.12-21.63-3.22-41.89-10.38-61.52-19.67-1.84-.87-3-2.09-3.41-4.43-3.44-19.28-4.06-38.68-3.11-58.18.35-7.11,1.41-14.14,2.41-21.18.44-3.06,1.85-3.16,4.4-2.28,17.74,6.2,35.61,12.03,54.23,14.88,25.62,3.92,49.59-.2,70.9-15.83,7.27-5.33,11.08-12.71,11.83-21.55.76-8.97.15-17.95-.73-26.91-1.11-11.2-1.68-22.4,2.14-33.32,2.5-7.15,6.21-13.52,11.71-18.78,7.17-6.93,15.7-11.53,24.98-15.01,6.44-2.41,9.03-6.41,8.86-13.12-.07-2.61,1.31-3.64,3.34-4.2,7.8-2.14,15.7-3.92,23.44-6.26,1.55-.47,2.41.3,3.35,1.59,4.88,6.72,9.22,8.06,16.98,4.97,13.83-5.51,25.83-13.67,35.44-25.16,9.35-11.14,15.1-24.05,18.57-38.05.54-2.18,1.6-3.01,3.7-2.41,1.29.37,2.79.06,3.88,1.13,2.87,2.44,6.53,3.39,9.81,5.06,12.09,6.16,24.19,12.24,35.45,19.93,13.42,9.17,26.01,19.29,37.61,30.63,6.48,6.33,12.89,12.77,18.45,19.97,1.23,1.59.93,2.99-.38,4.32-6.47,6.56-12.84,13.22-19.78,19.29-3.38,2.95-6.22,6.42-9.55,9.39Z"/>
    <path class="cls-8" d="M579.09,279.43c.5,17.16-.92,33.85-3.77,50.32-7.45,42.98-22.73,82.95-46.96,119.42-26.96,40.58-61.84,72.63-103.9,96.88-22,12.69-45.39,22.25-69.91,29.13-30.98,8.69-62.51,12.68-94.62,11.74-19.09-.56-37.99-2.89-56.73-6.86-25.91-5.49-50.62-14.24-74.39-25.79-4-1.94-4.34-2.91-2.07-6.82,5.18-8.9,10.51-17.71,15.56-26.68,1.33-2.37,2.43-2.45,4.66-1.32,13.78,6.95,28.1,12.61,42.86,17.05,12.75,3.84,25.77,6.57,38.96,8.63,16.22,2.54,32.5,3.36,48.88,2.94,16.37-.41,32.52-2.54,48.56-5.9,29.09-6.09,56.33-16.78,81.84-31.95,43.71-25.99,77.63-61.3,101.33-106.39,9.35-17.79,16.47-36.44,21.62-55.81,7.84-29.44,10.64-59.52,7.74-89.78-6.53-68.17-35.31-125.68-85.12-172.63-10.52-9.91-22.07-18.52-34.43-26.04-5.14-3.13-5.11-3.21-2.04-8.47,4.86-8.34,9.72-16.68,14.63-24.99,1.99-3.37,3.8-3.75,6.95-1.65,26.68,17.79,50.58,38.66,71.01,63.46,19.57,23.77,35.12,49.91,46.93,78.31,8.73,20.99,14.86,42.75,18.65,65.13,2.71,16,4.18,32.16,3.77,48.04Z"/>
    <path class="cls-5" d="M384.55,387.82c-3.18-12.12-1.8-23.99,2.29-35.61,4-11.35,9.89-21.92,13.82-33.33,9.67-28.05-.48-52.89-25.24-67.9-6.04-3.66-12.13-7.28-17.99-11.22-7.45-5.02-8.28-10.3-3.25-17.7,6.32-9.3,14.99-16.28,23.31-23.6,14.59-12.84,29.19-25.66,43.79-38.49,5.27-4.22,9.62-9.4,14.49-14.04,3.21-3.06,4.57-3,6.93.8,6.64,10.71,12.69,21.71,17.63,33.35,5.85,13.82,10.94,27.89,14.13,42.52,1.79,8.22,3.47,16.5,4.27,24.98.66,7.03,1.6,14.08,2.29,21.13.83,8.45.55,16.91.08,25.39-.48,8.6-2.02,17.08-2.6,25.66-.31,4.66-2.1,8.98-2.91,13.51-1.79,10.09-4.26,20.07-7.85,29.61-6.67,17.71-13.65,35.29-24.18,51.27-7.28,11.05-14.97,21.76-23.11,32.16-.38.49-.78.97-1.19,1.45-3.78,4.37-3.94,4.38-7.79.02l.02.02c-2.03-2.98-3.82-6.1-5.93-9.02l-.02-.03c-2.51-5.12-5.41-10.02-8.29-14.93h0c-1.21-1.89-1.33-4.37-3.2-5.91-.44-1-.87-2.01-1.31-3.01-1.61-5.46-3.78-10.73-5.39-16.2-1.06-3.6-1.96-7.22-2.79-10.87Z"/>
    <path class="cls-5" d="M161.91,500.27c-17.65-8.05-33.9-18.4-48.98-30.51-24.35-19.54-44.2-42.99-59.58-70.18-7.04-12.44-12.85-25.44-17.74-38.86-.37-1.03-1.11-2.25-.34-3.19,1-1.23,2,.1,2.96.47,18.64,7.18,37.79,12.58,57.71,14.31,16.91,1.47,33.83,1.05,50.66-2.32,16.3-3.26,31.77-8.9,47.31-14.5.11-.04.25.02.37.03,2.67-.88,4.13.47,4.63,2.86,2.6,12.25,3.98,24.56,2.82,37.14-1.09,11.93-2.25,23.83-4.14,35.66-2.66,16.61-5.04,33.27-9.01,49.66-1.73,7.14-3.89,14.2-5.17,21.45-.8,4.55-2.82,5.73-7.1,3.93-3.76-1.58-7.43-3.37-11.21-4.92-1.05-.43-2.12-.69-3.19-1.02Z"/>
    <path class="cls-9" d="M411.47,447.78c2.56,2.66,4.47,2.77,7.06-.51,11.78-14.93,22.94-30.27,32.05-46.98,7.08-12.98,12.26-26.82,17.18-40.73,4.35-12.29,7.06-25.07,9.37-37.82,1.48-8.2,2.26-16.67,2.78-25.1.41-6.72.78-13.43.53-20.12-.34-8.9-1.64-17.73-2.49-26.58-.76-7.92-2.61-15.58-3.55-23.43-.54-4.5-2.03-8.91-3.29-13.3-4.52-15.8-10.48-31.03-17.82-45.75-3.6-7.21-7.79-14.06-11.81-21.03-1.41-2.46-2.93-2.63-4.96-.51-3.88,4.05-7.91,7.97-11.91,11.91-.94.93-1.68,2.26-3.32,2.15,8.58-8.68,17.18-17.34,25.73-26.05,2.53-2.58,5.07-5.17,7.38-7.94,1.83-2.18,3.15-2.24,5.01.01,12.83,15.62,23.77,32.41,32.59,50.63,8.21,16.95,14.41,34.6,18.44,52.95,5.52,25.15,6.79,50.57,4.14,76.21-1.35,13.05-3.64,25.92-7.1,38.52-5.42,19.7-13.1,38.53-23.28,56.31-14.26,24.89-32.25,46.62-54.15,65.17-2.73,2.31-4.29,2.44-6.42-.69-3.97-5.83-8.88-11-12.16-17.32Z"/>
    <path class="cls-9" d="M296.12,83.7c-8.83,10.79-19.86,18.6-32.67,23.96-1.47.62-2.97,1.18-4.45,1.78-5.83,2.34-10.67,1.26-14.49-3.74-1.85-2.43-3.05-3.34-6.49-2.11-6.71,2.4-13.81,3.74-20.78,5.34-2.38.55-3.35,1.68-3.3,4.1.12,5.84-2.56,10.07-7.96,12.27-9.34,3.82-18.42,8.03-25.79,15.18-.13.12-.47.02-.71.03,4.7-6.28,11.55-9.53,18.3-12.89,2.33-1.16,4.78-2.1,7.21-3.03,7.48-2.87,9.01-9.55,6.98-15.9-1.69-5.29-9.17-8.19-15.22-5.99-20.04,7.28-36.48,19.08-46.85,38.24-8.39,15.49-9.74,32.19-8.3,49.33.54,6.46,1.2,12.91,1.03,19.42-.32,11.89-6.96,19.81-18.53,22.42-11.51,2.59-23.02,1.98-34.56.41-18.53-2.52-36.37-7.82-54.17-13.33-2.94-.91-4.89-1.71-3.54-5.83,3.88-11.77,7.42-23.63,13.37-34.58,1.43,1.53.44,3.03-.07,4.52-1.75,5.08-4.41,9.78-6.13,14.87-1.28,3.8-.78,5.05,3.17,5.87,7.94,1.66,15.99,2.68,24.04,3.65,9.35,1.12,18.65.79,27.94-.68,11.62-1.84,20.92-7.41,27.01-17.5,2.5-4.14,3.11-9.19,3.19-14.08.16-10.72-.66-21.42-1-32.12-.41-12.65,2.25-24.98,8.87-36.22,8.61-14.61,21.84-23.28,37.03-29.49,10.99-4.49,22.6-6.92,34.01-10.03,11.56-3.15,23.1-6.49,33.61-12.41,5.75-3.24,11.18-7.07,15.63-12.07.54-.61,1.45-1.05,1.23-2.25-3.69-1.38-7.92.9-11.49-1.48,6.12-1.31,12.32-1.66,18.55-1.64,9.22.03,18.46-.4,27.66.76,2.02.26,3.09.83,2.49,3.01-4.1,14.8-11.5,27.45-24.2,36.51-4.96,3.54-10.38,6.31-16.02,8.63-5.55,2.28-8.87,7.23-8.31,12.4.53,4.94,5.18,9.48,10.84,10.3,4.03.58,7.46-1.52,10.94-3.07,11.98-5.33,22.31-12.94,31.06-22.7.38-.44.67-.39.89.15Z"/>
    <path class="cls-5" d="M242.22,39.34c3.87.02,7.73.03,11.6.08.81.01,1.92-.38,2.29.7.27.79-.55,1.31-1.05,1.83-7.01,7.34-15,13.1-24.39,17.3-13.5,6.04-27.76,9.28-41.91,13.05-13.35,3.56-26.57,7.85-37.81,15.97-10.47,7.55-18.54,17.29-22.78,30.07-2.59,7.81-3.11,15.77-4.08,23.71-.34,2.81.23,5.94.65,8.86,1.32,9.07,1.03,18.22.46,27.23-.82,12.93-8.28,21.88-20.12,26.65-10.97,4.42-22.48,5.17-34.33,4.12-9.78-.87-19.44-2.17-29.06-3.97-4.99-.94-5.62-2.33-3.75-6.97,2.2-5.47,4.55-10.88,6.88-16.3.42-.97.43-1.92.37-2.92,8.29-19.04,19.6-36.2,32.81-52.12,24.72-29.81,55.12-52.21,90.37-67.98,14.85-6.64,30.26-11.76,46.27-15.01,9.14-1.85,18.19-4.07,27.57-4.3Z"/>
    <path class="cls-9" d="M161.91,500.27c2.8-.53,4.91,1.33,7.28,2.18,2.65.95,5.11,2.43,7.73,3.46,2.93,1.14,5.2.1,5.31-2.6.2-5.04,2.15-9.65,3.32-14.42,3.22-13.09,5.94-26.26,8.03-39.57,1.99-12.69,4.59-25.34,5.73-38.11.92-10.35,2.67-20.76,1.68-31.21-.7-7.36-1.93-14.67-3.05-21.98-.29-1.9-1.91-2.46-3.67-2.5,6.2-2.59,12.59-4.56,19.11-6.17,10.19-2.52,18.39,2.91,20.88,13.86,3.37,14.84,2.12,29.75.67,44.67-1.25,12.79-3.24,25.46-5.35,38.12-1.57,9.45-3.36,18.86-5.3,28.24-2.42,11.68-5.35,23.26-9.02,34.6-3.62,11.18-.51,9.71-12.24,6.69-12.63-3.25-24.9-7.65-36.76-13.13-1.46-.67-2.89-1.42-4.33-2.13Z"/>
    <path class="cls-3" d="M369.72,697.94c.19,0,.38.03.56.09,1.5,4.95-3.84,11.53-9.69,11.9-1.12.07-2.25.02-3.37.02-68.65,0-137.31-.07-205.96.07-13.81.03-26.33,9.66-29.05,24.51-2.4,13.05-.81,26.03-1.16,39.02-.31,11.67-2.24,10.55,10.35,10.55,102.73.02,205.46,0,308.2,0,5.61,0,5.68-.06,5.68-5.62,0-13.86.33-27.72-.11-41.57-.3-9.41-3.63-17.96-10.23-25.01-1.41-1.5-2.94-2.02-4.96-1.99-6.24.1-12.48.11-18.72,0-5.21-.09-10.83-6.83-9.51-11.22.13,0,.27-.02.4-.04.76,6.65,5.34,10.2,12.27,10.37,12.23.3,24.47.34,36.7.11,12.27-.23,25.06,9.75,28.17,20.56,1.12,3.89,1.7,7.8,1.73,11.76.11,12.36.06,24.72.04,37.08-.01,6.46-.05,6.42-6.26,6.47-114.97.89-229.94.23-344.91.42q-9.62.02-9.62-9.48c0-11.74-.06-23.47.02-35.21.09-13.42,5.81-23.47,18.21-29.18,3.71-1.71,7.67-2.48,11.89-2.48,68.41.08,136.83.04,205.24.07,4.28,0,8.17-.78,11.12-4.14,1.76-2.01,3.01-4.27,2.96-7.06Z"/>
    <path class="cls-4" d="M393.61,152.56c1.88-3.57,4.79-6.32,7.78-8.84,7.34-6.2,13.75-13.33,20.62-19.98,1.64-1.59,2.22-2.9-.21-4.4-1.1-.68-1.82-1.99-2.65-3.06-8.79-11.31-19.39-20.92-30.29-29.99-14-11.65-28.88-22.16-45.42-30.26-5.64-2.76-11.52-5.25-16.82-8.68-1.61-1.04-4.7.49-4.92-2.81,4.38-1.34,8.27.97,12.23,1.94,15.66,3.82,30.63,9.77,45.11,16.76,12.73,6.14,24.77,13.59,36.28,21.85h0c4.29,3.19,8.35,6.67,12.7,9.77,3.46,3.02,6.92,6.04,10.36,9.08,1.15,1.02,2.22,2,.69,3.69-14.22,15.61-28.97,30.68-44.8,44.67-.17.15-.45.18-.67.27Z"/>
    <path class="cls-9" d="M384.55,387.82c1.77,5.67,3.63,11.31,5.27,17.02.96,3.36,3.09,6.38,2.91,10.06-3.73-7.3-5.79-15.19-7.97-23.03-.35-1.27-.16-2.7-.22-4.05Z"/>
    <path class="cls-9" d="M397.24,423.81c3.49,4.58,6.69,9.31,8.29,14.93-3.37-4.64-6.33-9.51-8.29-14.93Z"/>
    <path class="cls-9" d="M405.55,438.78c2.76,2.49,4.62,5.58,5.93,9.02-2.66-2.56-4.38-5.74-5.93-9.02Z"/>
    <path class="cls-9" d="M394.05,417.9c2.25,1.33,2.98,3.48,3.2,5.91-1.8-1.57-2.24-3.88-3.2-5.91Z"/>
    <path class="cls-7" d="M139.63,688.92c2.39-1.36,4.98-1.65,7.66-1.34-2.5.74-5,1.53-7.66,1.34Z"/>
  </g>
</svg>