<?xml version="1.0" encoding="UTF-8"?>
<svg id="Capa_2" xmlns="http://www.w3.org/2000/svg" viewBox="0 0 250.02 218.16">
  <defs>
    <style>
      .cls-1 {
        fill: #5956af;
      }
    </style>
  </defs>
  <g id="Capa_1-2" data-name="Capa_1">
    <path class="cls-1" d="M158.42,180.19c-.72,1.79-1.08,3.54-2.02,4.87-10.6,14.91-23.83,26.43-41.77,31.68-21.27,6.23-41.31-8.67-42.73-30.54-.97-14.93,2.48-28.99,7.74-42.71,11.48-29.95,28.07-57.21,44.88-84.34,4-6.46,8.19-12.81,12.28-19.22,0,0,.01-.02.02-.02.94-1.48.08-3.45-1.64-3.82-2.09-.45-4.06-.87-6.05-1.17-18.85-2.87-37.64-6.53-56.82-6.06-18.29.45-36.07,3.35-51.59,13.92-4.8,3.27-8.85,7.63-13.38,11.32-.83.67-1.82,1.15-2.83,1.6-1.19.53-2.6.08-3.25-1.05S0,52.38,0,51.25c-.06-9.6,3.56-18.07,9.41-25.45C20.8,11.4,35.97,3.77,54.04,1.09c20.92-3.1,41.09.84,60.9,6.52,21.89,6.28,43.35,14.02,65.15,20.64,18.16,5.51,36.53,10.31,55.85,8.62,3.72-.33,7.44-.88,11.16-.82.53,0,1.06.21,1.59.5,1.51.82,1.8,2.91.53,4.07-.38.35-.79.62-1.23.73-5.53,1.39-11.12,2.73-16.77,3.45-23.18,2.94-46.02-.56-68.83-4.17-3.94-.62-7.86-1.44-11.82-1.84-1.2-.12-3.06.5-3.7,1.42-17.58,25.43-32.82,52.12-42.31,81.71-4.08,12.72-7.11,25.77-5.79,39.33.35,3.57,1.06,7.2,2.29,10.56,3.86,10.5,11.82,15.86,23.17,16.3,10.27.4,19.6-2.98,28.84-6.82,1.26-.52,2.54-1.01,3.82-1.47.19-.07.47.11,1.52.38Z"/>
  </g>
</svg>