<?xml version="1.0" encoding="UTF-8"?>
<svg id="Capa_2" xmlns="http://www.w3.org/2000/svg" viewBox="0 0 501.24 501.33">
  <defs>
    <style>
      .cls-1 {
        fill: #323fd3;
      }

      .cls-2 {
        fill: #423f86;
      }

      .cls-3 {
        fill: #4e6afe;
      }

      .cls-4 {
        fill: #fe506b;
      }

      .cls-5 {
        fill: #8da0fc;
      }

      .cls-6 {
        fill: #fea204;
      }

      .cls-7 {
        fill: #01c89f;
      }

      .cls-8 {
        fill: #fefefe;
      }
    </style>
  </defs>
  <g id="Capa_1-2" data-name="Capa_1">
    <g>
      <path class="cls-2" d="M402.28,93.91c14.59,11.52,26.63,25.43,37.32,40.5,29.05,40.96,43.49,86.71,43.21,136.87-.62,110.26-80.46,205.71-188.61,225.94-124.72,23.33-244.17-54.83-270.26-179.54-18.18-86.91,7.81-161.35,72.59-222.13.7-.66,1.61-1.1,2.42-1.64.35,1.61-.46,2.93-1.14,4.24-13.39,25.9-19.29,53.51-18.91,82.57-3.81.37-8.85-.68-9.34,4.92-1.09,12.41-.41,14.77,10.94,14.05.98-.06,1.98.07,2.97.11-.06,5.98-.13,11.95-.19,17.93-3.39,1.26-4.53,3.66-4.39,7.26.25,6.88.12,13.76.15,20.65-12.84,10.1-18.98,23.39-18.95,39.65.02,12.1-.06,24.21.02,36.31.12,17.7,13.4,35.84,29.92,42.04,11.49,4.31,23.26,2.2,34.92,2.76,2.8,11.61,5.89,14.05,17.85,14.05,3.97,0,7.95,0,11.92,0,10.9,0,14.31-2.63,17.16-13.19.95.91,1.94,1.79,2.84,2.75,22.72,24.43,50.73,35.59,84.01,33.58-.72,2.03-1.59,4.01-2.13,6.09-2.7,10.35-.93,19.65,6.58,27.61,10.85,11.48,32.7,12.14,44.21-5.24,3.65.04,7.3.24,10.94.07,4.07-.19,7.88-1.2,10.22-5.05,20.26.04,40.52.22,60.78.07,11.44-.09,18.92-7.8,18.99-19.21.09-14.28,0-28.57-.03-42.85.72-.41,1.4-.91,2.16-1.22,19.62-7.98,30.68-24.39,30.68-45.58,0-10.97-.07-21.93.02-32.9.12-16.34-6.16-29.58-18.97-39.73.03-6.88-.1-13.77.15-20.65.13-3.59-1-6-4.39-7.26-.06-5.98-.13-11.95-.19-17.93,2.81-.04,5.62,0,8.42-.16,2.23-.12,4.11-.9,5.13-3.2,3.76-8.47-.09-15.25-8.99-15.72.37-29.05-5.51-56.67-18.91-82.57-.68-1.31-1.48-2.64-1.13-4.24Z"/>
      <path class="cls-3" d="M402.28,93.91c-.35,1.61.45,2.93,1.13,4.24,13.4,25.9,19.29,53.51,18.91,82.57-9.33.02-18.67.04-28,.06-.25-8.38.85-16.86-1.94-25.04,0-7.73-2.11-15.09-4.45-22.32-8.39-25.97-22.66-48.05-43.48-65.97-16.27-14-34.68-23.71-55.22-29.53-15.54-4.4-31.33-5.89-47.52-4.94-17.27,1.01-33.7,5-49.4,11.94-28.66,12.67-50.96,32.71-66.49,59.87-9.01,15.76-15.82,32.48-16.96,50.97-2.83,8.16-1.7,16.64-1.95,25-9.33-.02-18.67-.04-28-.06-.38-29.05,5.52-56.67,18.91-82.57.68-1.31,1.49-2.63,1.14-4.24,0,0-.04.09-.04.09.37-.42.74-.84,1.11-1.26,5.04-6.59,8.96-13.92,14.06-20.5,26.64-34.43,61.39-56.09,103.85-64.61,70.19-14.07,142.49,18.45,179.55,79.85,1.11,1.83,2.47,3.51,3.72,5.26.37.42.74.84,1.11,1.27l-.04-.09Z"/>
      <path class="cls-7" d="M441.06,501.3c-7.85.02-13.91-5.97-13.93-13.77-.02-7.7,6.21-14.03,13.82-14.04,7.57,0,14,6.37,14.04,13.93.04,7.67-6.16,13.85-13.92,13.88Z"/>
      <path class="cls-4" d="M13.52,450.26c-7.79-.11-13.64-6.23-13.52-14.17.12-7.78,6.43-13.91,14.1-13.7,7.54.2,13.88,6.81,13.73,14.29-.15,7.58-6.59,13.68-14.32,13.57Z"/>
      <path class="cls-6" d="M501.24,97.63c-.1,7.85-6.14,13.68-14.07,13.58-7.72-.1-13.93-6.45-13.74-14.07.18-7.58,6.72-13.9,14.23-13.74,7.72.16,13.68,6.4,13.58,14.23Z"/>
      <path class="cls-7" d="M41.7,0c7.78.02,13.93,6.16,13.89,13.86-.04,7.62-6.41,13.97-13.98,13.94-7.64-.03-13.89-6.37-13.83-14.02C27.84,5.96,33.88-.02,41.7,0Z"/>
      <path class="cls-2" d="M100.02,92.74c-.37.42-.74.84-1.11,1.26.37-.42.74-.84,1.11-1.26Z"/>
      <path class="cls-2" d="M402.32,94.01c-.37-.42-.74-.84-1.11-1.27.37.42.74.84,1.11,1.27Z"/>
      <path class="cls-7" d="M258.73,403.6c-33.28,2.01-61.29-9.16-84.01-33.58-.9-.96-1.89-1.83-2.84-2.75-.84-1.23-1.64-2.48-2.52-3.68-20.9-28.59-25.92-59.83-15.78-93.67,3.77-12.58,10.77-23.37,18.31-33.89,1.99-1.99,3.98-3.98,5.96-5.98,32.8-33.04,82.43-39.92,123.12-17.22,10.87,6.07,19.81,14.36,28.36,23.2.92,1.36,1.8,2.76,2.78,4.08,18.61,25.17,24.34,53.19,18.21,83.69-3.26,16.22-10.97,30.42-20.96,43.46-9.46,10.3-20.16,19.06-32.33,25.99-14.78-6.38-28.71-3.27-38.29,10.33ZM202.9,329.54c2.47-3.76,5.57-4.95,8.7-6.01,4.23-1.42,8.58-2.51,12.75-4.07,15.05-5.63,23.75-21.48,20.56-37.17-3.4-16.73-17.26-27.5-34.37-26.73-15.19.69-27.46,12.7-29.37,28.75-.78,6.53,2.53,11.26,8.35,11.95,5.21.61,9.45-3.44,10.08-9.94.36-3.66,1.62-6.72,4.46-9.09,6.31-5.27,15.68-3.96,20.56,2.86,4.9,6.83,2.91,16.6-4.32,20.8-4.05,2.35-8.66,3.25-13.11,4.54-14.72,4.27-24.63,15.64-26.06,29.96-.85,8.59,2.91,12.83,11.55,12.86,13.95.04,27.91.03,41.86,0,7.21-.01,11.39-3.64,11.29-9.67-.1-5.61-4.36-9.02-11.38-9.04-10.28-.02-20.55,0-31.55,0ZM288.85,306.45c-.83,0-1.68-.1-2.49.02-4.55.64-6.42-.17-5.11-5.67,2.54-10.64,4.2-21.49,6.12-32.27.72-4.01.84-7.99-2.72-11-6.25-5.28-14.25-1.66-15.92,7.38-2.87,15.5-5.6,31.02-8.33,46.55-1.63,9.28,1.78,13.39,11.28,13.55,6.81.12,13.64.27,20.43-.07,4.11-.21,5.13,1.34,4.89,5.11-.22,3.46-.15,7,.39,10.42.75,4.73,5.21,8.09,9.54,7.73,4.72-.38,8.42-4.36,8.57-9.36.1-3.32.12-6.65,0-9.97-.11-2.88.26-5.25,2.52-7.57,2.96-3.05,3.33-7.48.46-10.45-3.29-3.4-2.9-7.08-2.94-10.96-.03-2.66.1-5.32-.06-7.97-.29-4.86-3.89-8.4-8.61-8.67-4.75-.28-8.73,2.76-9.54,7.62-.41,2.44-.36,4.96-.38,7.45-.04,8.13-.02,8.13-8.1,8.13Z"/>
      <path class="cls-1" d="M422.18,245.64c12.8,10.15,19.09,23.38,18.97,39.73-.08,10.97-.01,21.93-.02,32.9,0,21.19-11.06,37.6-30.68,45.58-.76.31-1.44.81-2.16,1.22-5.95,1.32-11.98,1.62-18.05,1.47-4.66-.05-9.31-.09-13.97-.14-1.54-1.51-.9-3.44-.9-5.19-.04-39.76-.04-79.53,0-119.29,0-1.75-.63-3.67.84-5.22,6.05-.02,12.11-.03,18.16-.05,10.26-.09,19.37,3.4,27.8,8.98Z"/>
      <path class="cls-1" d="M124.94,366.4c-11.66-.56-23.43,1.55-34.92-2.76-16.52-6.2-29.8-24.34-29.92-42.04-.08-12.1,0-24.21-.02-36.31-.02-16.25,6.12-29.55,18.95-39.65,8.43-5.58,17.54-9.07,27.8-8.98,6.06,0,12.12.01,18.17.02,1.36,1.38.84,3.13.84,4.73.03,40.1.03,80.2,0,120.3,0,1.59.54,3.35-.91,4.69Z"/>
      <path class="cls-3" d="M124.94,366.4c1.45-1.34.91-3.1.91-4.69.03-40.1.03-80.2,0-120.3,0-1.6.52-3.35-.84-4.73,2.28-10.52,6.46-13.94,17.1-13.95,4.32,0,8.64,0,12.95,0,9.98.02,14.28,3.43,16.82,13.3-7.54,10.52-14.54,21.3-18.31,33.88-10.14,33.84-5.12,65.08,15.78,93.67.88,1.2,1.68,2.45,2.52,3.68-2.85,10.56-6.26,13.18-17.16,13.19-3.97,0-7.95,0-11.92,0-11.96,0-15.06-2.44-17.85-14.05Z"/>
      <path class="cls-3" d="M258.73,403.6c9.58-13.6,23.51-16.71,38.29-10.33,4.49,2.98,7.69,7.27,11.33,11.11,2.84,9.33,3.63,18.59-.96,27.67-11.51,17.38-33.36,16.72-44.21,5.24-7.52-7.95-9.29-17.26-6.58-27.61.54-2.07,1.41-4.06,2.13-6.09Z"/>
      <path class="cls-5" d="M390.25,366.54c6.07.15,12.1-.15,18.05-1.47.02,14.28.12,28.57.03,42.85-.07,11.41-7.55,19.13-18.99,19.21-20.26.15-40.52-.03-60.78-.07,1.57-6.19,1.28-12.39.05-18.59,17.42-.03,34.83-.05,52.25-.08,8.36-.01,9.22-.91,9.25-9.51.04-10.78.1-21.56.16-32.34Z"/>
      <path class="cls-5" d="M78.91,180.72c9.33.02,18.67.04,28,.06,8.03.29,8.98,1.11,9.03,7.75q.08,11.03-11.52,11.16c-.83,0-1.66.07-2.49.1-6.15,0-12.31,0-18.46.01-.99-.04-1.99-.17-2.97-.11-11.36.72-12.03-1.64-10.94-14.05.49-5.6,5.53-4.55,9.34-4.92Z"/>
      <path class="cls-5" d="M394.32,180.78c9.33-.02,18.67-.04,28-.05,8.9.47,12.75,7.25,8.99,15.72-1.02,2.3-2.9,3.08-5.13,3.2-2.8.15-5.61.11-8.42.16-6.15,0-12.31,0-18.46-.01-2.82-.04-5.65-.06-8.47-.13-1.9-.05-3.91-.47-4.62-2.35-1.66-4.46-1.64-9.22-.17-13.61,1.28-3.81,5.28-2.55,8.28-2.92Z"/>
      <path class="cls-3" d="M422.18,245.64c-8.43-5.58-17.54-9.07-27.8-8.98,0-4.31,0-8.61-.02-12.92-.01-3.12,1.24-5.08,4.62-5.14,5.75-.11,11.54.85,17.26-.52.57-.11,1.13-.23,1.7-.34,3.39,1.26,4.53,3.66,4.39,7.26-.25,6.88-.12,13.76-.15,20.65Z"/>
      <path class="cls-3" d="M106.85,236.66c-10.26-.09-19.37,3.4-27.8,8.98-.03-6.88.1-13.77-.15-20.65-.13-3.59,1-6,4.39-7.26.57.11,1.14.23,1.71.35,5.71,1.37,11.5.41,17.25.52,3.92-.01,4.43,2.89,4.56,5.73.19,4.1.04,8.22.04,12.33Z"/>
      <path class="cls-1" d="M328.6,408.47c1.23,6.2,1.52,12.4-.05,18.59-2.34,3.84-6.15,4.85-10.22,5.05-3.64.17-7.29-.03-10.94-.07,4.59-9.08,3.8-18.34.96-27.67,3.47-.05,6.94.05,10.4-.18,4.09-.27,7.51.67,9.85,4.27Z"/>
      <path class="cls-8" d="M85,218.08c-.57-.12-1.14-.23-1.71-.35.06-5.97.13-11.95.19-17.93,6.15,0,12.31,0,18.46-.01-.02,5.96-.04,11.92-.06,17.89-5.63.13-11.25.27-16.88.4Z"/>
      <path class="cls-8" d="M417.94,217.73c-.57.11-1.13.23-1.7.34-5.63-.13-11.26-.27-16.89-.4-.02-5.96-.04-11.92-.06-17.89,6.15,0,12.31,0,18.46.01.06,5.98.13,11.95.19,17.93Z"/>
      <path class="cls-2" d="M399.29,199.79c.02,5.96.04,11.92.06,17.89-.12.31-.25.62-.37.93-3.38.06-4.63,2.01-4.62,5.14.02,4.31.01,8.61.02,12.92-6.05.02-12.11.03-18.16.05-2.3-10.55-6.47-13.97-17.1-13.98-4.32,0-8.64,0-12.96,0-9.98.02-14.27,3.41-16.83,13.31-8.54-8.84-17.48-17.14-28.36-23.2-40.69-22.7-90.32-15.83-123.12,17.22-1.98,2-3.98,3.99-5.96,5.98-2.53-9.87-6.84-13.28-16.82-13.3-4.32,0-8.64,0-12.95,0-10.64.01-14.82,3.43-17.1,13.95-6.06,0-12.11-.01-18.17-.02,0-4.11.15-8.23-.04-12.33-.13-2.84-.64-5.74-4.56-5.73-.12-.31-.25-.62-.37-.93.02-5.96.04-11.92.06-17.89.83-.03,1.66-.09,2.49-.1q11.6-.13,11.52-11.16c-.05-6.64-1-7.46-9.03-7.75.25-8.37-.88-16.84,1.95-25,7.5-1.63,13.64-5.68,19.35-10.63,6.77-5.87,10.06-13.89,13.85-21.62,7.33-14.93,17.01-28.21,29.81-38.76,28.3-23.33,60.84-32.83,97.3-27.64,24.51,3.48,45.56,14.48,63.79,30.98,13.37,12.11,22.59,27.13,30.23,43.33,5.89,12.49,15.82,20.57,29.19,24.29,2.79,8.18,1.69,16.66,1.94,25.04-3,.37-7-.9-8.28,2.91-1.47,4.39-1.5,9.15.17,13.61.7,1.88,2.71,2.3,4.62,2.35,2.82.07,5.65.09,8.47.13Z"/>
      <path class="cls-1" d="M392.38,155.74c-13.37-3.72-23.3-11.8-29.19-24.29-7.64-16.2-16.86-31.23-30.23-43.33-18.23-16.5-39.28-27.5-63.79-30.98-36.46-5.18-69,4.31-97.3,27.64-12.79,10.55-22.48,23.82-29.81,38.76-3.79,7.73-7.09,15.75-13.85,21.62-5.71,4.95-11.85,9-19.35,10.63,1.15-18.49,7.95-35.22,16.96-50.98,15.53-27.16,37.83-47.21,66.49-59.87,15.7-6.94,32.13-10.93,49.4-11.94,16.19-.95,31.98.54,47.52,4.94,20.54,5.82,38.95,15.53,55.22,29.53,20.82,17.91,35.08,39.99,43.48,65.97,2.34,7.23,4.44,14.59,4.45,22.32Z"/>
      <path class="cls-3" d="M329.33,236.04c2.56-9.9,6.85-13.29,16.83-13.31,4.32,0,8.64,0,12.96,0,10.63.01,14.8,3.42,17.1,13.98-1.47,1.54-.84,3.47-.84,5.22-.04,39.76-.04,79.53,0,119.29,0,1.75-.64,3.68.9,5.19-2.78,11.6-5.89,14.04-17.82,14.05-3.97,0-7.94,0-11.91,0-10.89-.01-14.35-2.66-17.2-13.18,9.99-13.04,17.7-27.24,20.96-43.46,6.14-30.5.4-58.52-18.21-83.69-.98-1.32-1.85-2.72-2.78-4.08Z"/>
      <path class="cls-8" d="M202.9,329.54c11,0,21.28-.02,31.55,0,7.03.02,11.28,3.43,11.38,9.04.11,6.03-4.08,9.66-11.29,9.67-13.95.03-27.91.04-41.86,0-8.65-.03-12.41-4.26-11.55-12.86,1.42-14.32,11.34-25.69,26.06-29.96,4.45-1.29,9.05-2.19,13.11-4.54,7.24-4.2,9.22-13.96,4.32-20.8-4.89-6.82-14.26-8.13-20.56-2.86-2.84,2.37-4.11,5.43-4.46,9.09-.63,6.5-4.87,10.55-10.08,9.94-5.81-.68-9.12-5.42-8.35-11.95,1.91-16.06,14.17-28.06,29.37-28.75,17.11-.78,30.97,10,34.37,26.73,3.19,15.69-5.51,31.53-20.56,37.17-4.17,1.56-8.53,2.64-12.75,4.07-3.13,1.05-6.22,2.25-8.7,6.01Z"/>
      <path class="cls-8" d="M288.85,306.45c8.08,0,8.06,0,8.1-8.13.01-2.49-.03-5.01.38-7.45.81-4.86,4.79-7.89,9.54-7.62,4.72.27,8.31,3.82,8.61,8.67.16,2.65.03,5.32.06,7.97.05,3.88-.35,7.56,2.94,10.96,2.87,2.97,2.51,7.4-.46,10.45-2.26,2.33-2.63,4.69-2.52,7.57.13,3.32.11,6.65,0,9.97-.15,5-3.85,8.97-8.57,9.36-4.33.35-8.79-3-9.54-7.73-.54-3.41-.61-6.96-.39-10.42.24-3.78-.78-5.32-4.89-5.11-6.79.34-13.62.18-20.43.07-9.5-.16-12.91-4.27-11.28-13.55,2.73-15.53,5.46-31.05,8.33-46.55,1.67-9.04,9.67-12.66,15.92-7.38,3.56,3.01,3.44,6.99,2.72,11-1.92,10.78-3.58,21.63-6.12,32.27-1.32,5.5.56,6.31,5.11,5.67.81-.12,1.66-.02,2.49-.02Z"/>
      <path class="cls-2" d="M329.35,367.27c2.85,10.52,6.31,13.17,17.2,13.18,3.97,0,7.94,0,11.91,0,11.94,0,15.04-2.45,17.82-14.05,4.66.04,9.31.09,13.97.14-.05,10.78-.12,21.56-.16,32.34-.03,8.61-.89,9.5-9.25,9.51-17.42.02-34.83.05-52.25.08-2.34-3.6-5.76-4.55-9.85-4.27-3.45.23-6.93.13-10.4.18-3.65-3.84-6.84-8.13-11.33-11.11,12.17-6.93,22.87-15.69,32.33-25.99Z"/>
      <path class="cls-5" d="M398.98,218.6c.12-.31.25-.62.37-.93,5.63.13,11.26.27,16.89.4-5.72,1.37-11.5.41-17.26.52Z"/>
      <path class="cls-5" d="M101.87,217.68c.12.31.25.62.37.93-5.75-.11-11.54.85-17.25-.53,5.63-.13,11.25-.27,16.88-.4Z"/>
    </g>
  </g>
</svg>