<?xml version="1.0" encoding="UTF-8"?>
<svg id="Capa_2" xmlns="http://www.w3.org/2000/svg" viewBox="0 0 305.13 383.21">
  <defs>
    <style>
      .cls-1 {
        fill: #5766ca;
      }

      .cls-2 {
        fill: #3d4fc2;
      }

      .cls-3 {
        fill: #95d5a4;
      }

      .cls-4 {
        fill: #756e78;
      }

      .cls-5 {
        fill: #79c1a4;
      }

      .cls-6 {
        fill: #665f67;
      }

      .cls-7 {
        fill: #fefefe;
      }

      .cls-8 {
        fill: #efca86;
      }
    </style>
  </defs>
  <g id="Capa_1-2" data-name="Capa_1">
    <g>
      <path class="cls-6" d="M62.78,26.93c-3.22,0-6.45.04-9.67,0-3.57-.05-5.7-1.8-5.85-5.29-.14-3.19-.47-6.43.29-9.61,25.24-.02,50.48-.11,75.71-.02,10.13.04,12.3,1.12,12.09-12.01h11.97c2.23,2.39,2.97,5.2,2.81,8.45-.19,3.98.03,7.98-.07,11.96-.12,4.81-1.89,6.49-6.6,6.53-3.11.03-6.23.08-9.34.12-3.83-.04-7.66-.08-11.5-.12-16.12.05-32.24.1-48.37.15-3.83-.05-7.65-.1-11.48-.15Z"/>
      <path class="cls-4" d="M135.35,0c.21,13.13-1.96,12.04-12.09,12.01-25.24-.09-50.48,0-75.71.02-.1-4.33-1.51-9.02,3.25-12.03h84.55Z"/>
      <path class="cls-3" d="M134.12,94.96c7.14.02,14.28.04,21.42.05,0,53.1-.02,106.2-.03,159.3-6.72.04-13.44.02-20.15.13-18.41.3-34.21,16.06-34.49,34.38-.12,7.71-.15,15.42-.21,23.13-1.74.02-3.48.06-5.23.06-31.74.02-63.47.04-95.21.05-.06-1.24-.18-2.48-.18-3.73,0-58.56-.05-117.11.02-175.67.02-15.44,6.11-27.51,20.47-34.48,4.28-2.07,8.83-3.27,13.68-3.24,9.59.06,19.19,0,28.78,0,3.77,0,7.53-.02,11.3-.03,16.17.02,32.35.03,48.52.04,3.77,0,7.54,0,11.31-.01ZM48.75,253.63c1.28.17,2.27-.56,3.17-1.47,13.21-13.21,26.43-26.41,39.63-39.63,2.48-2.48,2.41-5.03-.06-7.51-4.93-4.94-9.83-9.9-14.81-14.78-2.6-2.55-5.21-2.53-7.81.06-13.06,13.01-26.09,26.04-39.09,39.11-2.76,2.77-2.77,4.61-.07,7.36,5.05,5.17,10.2,10.23,15.3,15.34,1.01,1.02,2.13,1.72,3.74,1.52ZM116.42,167.68c10.46,1.1,19.2-9.69,19.06-18.75-.15-9.38-7.46-19.25-18.87-19.28-11.76-.02-19.48,9.11-19.42,19.42.06,10.54,8.41,18.62,19.23,18.61Z"/>
      <path class="cls-1" d="M100.66,311.96c.07-7.71.1-15.42.21-23.13.28-18.33,16.08-34.09,34.49-34.38,6.72-.11,13.43-.09,20.15-.13.76,0,1.53.02,2.29.02,3.75,0,7.49,0,11.24,0,9.45,0,18.9.01,28.35.02,13,0,25.99,0,38.99-.01,3.76,0,7.51,0,11.27-.01,6.77.03,13.55.09,20.32.08,2.72,0,5.41.14,8.05.84,1.28,12.79.73,25.62.66,38.43-.06,9.69.55,19.38-.58,29.09-2.12,18.22-16.99,31.88-35.28,31.89-43.89,0-87.77,0-131.66.01-2.61,0-5.22.03-7.76-.69-.19.05-.33-.01-.41-.18-.11-13.95-.22-27.9-.33-41.85Z"/>
      <path class="cls-2" d="M101.41,353.99c2.54.72,5.15.69,7.76.69,43.89-.01,87.77,0,131.66-.01,18.29,0,33.16-13.67,35.28-31.89,1.13-9.71.52-19.4.58-29.09.07-12.81.62-25.64-.66-38.43,13.5,1.65,26.39,14.87,28.44,28.9.94,6.46.57,12.92.61,19.39.08,14.08.06,28.15.01,42.23-.06,19.02-11.78,33.28-30.36,36.95-1.21.24-2.47.35-3.71.35-45.47.02-90.94.08-136.41-.02-15.8-.03-30.91-13.46-33.2-29.08Z"/>
      <path class="cls-5" d="M157.81,254.34c-.76,0-1.53-.02-2.29-.02,0-53.1.02-106.2.03-159.3,15.36-1.43,27.93,3.26,36.48,16.68,3.64,5.72,5.22,12.12,5.25,18.78.1,28.62.02,57.24,0,85.86-5.21,0-10.42-.07-15.63.02-11.84.22-20.86,7.49-23.3,19.06-1.31,6.23-.28,12.61-.53,18.92Z"/>
      <path class="cls-5" d="M100.66,311.96c.11,13.95.22,27.9.33,41.85-13.41.04-26.81.09-40.22.13-3.08.01-6.15.02-9.23.03-6.31.02-12.62.04-18.92.06-1.47-1.23-3.34-.76-5-1.17C11.23,348.86.16,334.95,0,318.01c-.02-1.98.15-3.96.23-5.94,31.74-.02,63.47-.03,95.21-.05,1.74,0,3.48-.04,5.23-.06Z"/>
      <path class="cls-6" d="M157.81,254.34c.25-6.31-.78-12.69.53-18.92,2.44-11.57,11.46-18.84,23.3-19.06,5.21-.09,10.42-.02,15.63-.02,8.7.06,17.39.04,26.09.2,15,.28,24.23,9.75,24.27,24.74.01,4.35.01,8.7.02,13.05-3.76,0-7.51,0-11.27.01,0-4.59.05-9.18.02-13.77-.05-7.93-4.73-12.71-12.73-12.79-8.68-.09-17.37.02-26.05.04-5.6-.07-11.21-.48-16.78-.13-7.48.47-11.76,5.54-11.8,13.19-.02,4.48,0,8.97,0,13.45-3.75,0-7.49,0-11.24,0Z"/>
      <path class="cls-4" d="M74.3,94.93c-3.77.01-7.54.02-11.3.03.01-21.81.02-43.63.02-65.44,0-.86-.15-1.73-.24-2.59,3.83.05,7.65.1,11.48.15.01,22.61.03,45.23.04,67.84Z"/>
      <path class="cls-4" d="M134.12,94.96c-3.77,0-7.54,0-11.31.01.01-14.58.05-29.17.03-43.75-.01-8.09-.14-16.19-.21-24.28,3.83.04,7.66.08,11.5.12,0,22.63,0,45.27,0,67.9Z"/>
      <path class="cls-6" d="M51.55,353.97c3.08-.01,6.15-.02,9.23-.03,8.42,11.81,1.68,25.82-9.7,28.71-9.27,2.35-18.43-2.71-21.65-12.35,11.71,1.48,21.35-6.17,22.13-16.33Z"/>
      <path class="cls-4" d="M51.55,353.97c-.77,10.16-10.42,17.81-22.13,16.33-1.53-5.93-.53-11.37,3.2-16.27,6.31-.02,12.62-.04,18.93-.06Z"/>
      <path class="cls-7" d="M48.75,253.63c-1.61.2-2.72-.5-3.74-1.52-5.1-5.12-10.25-10.18-15.3-15.34-2.69-2.76-2.68-4.59.07-7.36,13-13.07,26.04-26.1,39.09-39.11,2.6-2.59,5.21-2.6,7.81-.06,4.98,4.88,9.88,9.85,14.81,14.78,2.47,2.48,2.54,5.03.06,7.51-13.2,13.22-26.42,26.42-39.63,39.63-.91.91-1.89,1.64-3.17,1.47Z"/>
      <path class="cls-8" d="M116.42,167.68c-10.82.01-19.18-8.07-19.23-18.61-.05-10.31,7.66-19.44,19.42-19.42,11.41.02,18.72,9.89,18.87,19.28.14,9.06-8.59,19.85-19.06,18.75Z"/>
      <path class="cls-5" d="M197.63,227.82c-.64,8.84-.21,17.69-.23,26.53-9.45,0-18.9-.01-28.35-.02,0-4.48-.03-8.97,0-13.45.04-7.65,4.32-12.72,11.8-13.19,5.57-.35,11.19.06,16.78.13Z"/>
    </g>
  </g>
</svg>