<?xml version="1.0" encoding="UTF-8"?>
<svg id="Capa_2" xmlns="http://www.w3.org/2000/svg" viewBox="0 0 670.58 678.37">
  <defs>
    <style>
      .cls-1 {
        fill: #fff;
      }
    </style>
  </defs>
  <g id="Capa_1-2" data-name="Capa_1">
    <g>
      <path class="cls-1" d="M345.82,0c5.31.56,10.62,1.06,15.92,1.69,11.28,1.34,21.41,6.05,31.51,10.82,44.92,21.21,70.17,57.36,77.27,105.67,9.04,61.49-26.62,120.67-84.94,143.77-4,1.58-7.98,3.24-12.07,4.54-2.61.83-3.51,2.05-3.52,4.91-.06,46.68-.29,93.37-.44,140.05-.13,43.31-.21,86.61-.3,129.92,0,1.49,0,2.99,0,4.7h-67.54v-4.54c0-89.99-.02-179.98.08-269.97,0-3.35-.93-4.74-4.2-5.69-41.31-12.08-70.54-38.23-87.78-77.38-25.85-58.7-4.84-129.38,48.55-165.23,16.3-10.95,33.85-18.95,53.35-22.2C314.45.6,317.22.35,319.97,0c8.62,0,17.23,0,25.85,0ZM335.89,67.38c-36.19-2.54-68.87,28.72-69.32,67.6-.43,37.52,29.8,68.94,67.76,69.67,37.56.72,69.12-29.84,70.17-67.37,1-35.92-28.82-71.67-68.6-69.89Z"/>
      <path class="cls-1" d="M602.37,610.7c-2.2-9.9-4.34-19.65-6.52-29.4-12.55-56.04-25.05-112.09-37.7-168.11-2.74-12.13-5.93-24.15-9.12-36.17-1.52-5.72-2.29-6.35-8.28-6.45-20.83-.36-41.67-.52-62.5-.76-1.37-.02-2.73,0-4.29,0v-67.41c.7-.08,1.25-.21,1.8-.2,23.4.17,46.8.26,70.2.55,30.22.37,62.65,27.52,69,56.46,15.83,72.1,32.38,144.04,48.41,216.1,2.85,12.81,4.91,25.82,6.68,38.83,3.18,23.39-7.31,40.51-25.99,53.28-9.72,6.64-20.61,9.86-32.54,9.89-141.69.32-283.38.85-425.07,1.05-43.07.06-86.16-.3-129.22-1.3-22.99-.53-40.01-12.27-51.19-32.29-6.91-12.36-7.14-25.57-4.28-39.01,9.29-43.66,18.44-87.36,28.04-130.95,8.4-38.14,17.48-76.14,25.98-114.26,4.51-20.24,16.64-34.71,33.31-45.95,11.57-7.8,24.31-11.87,38.4-11.87,22.12-.01,44.24-.34,66.36-.53.91,0,1.83,0,3,0v67.63c-1.16,0-2.39,0-3.62,0-16.65.03-33.3,0-49.95.11-4.65.03-9.3.49-13.95.64-3.82.13-6.2,1.62-7.17,5.62-3.02,12.42-6.57,24.72-9.38,37.18-14.74,65.32-29.32,130.67-43.94,196.02-.07.33-.09.68-.16,1.31h533.74Z"/>
    </g>
  </g>
</svg>