<?xml version="1.0" encoding="UTF-8"?>
<svg id="Capa_2" xmlns="http://www.w3.org/2000/svg" viewBox="0 0 512.09 281.72">
  <defs>
    <style>
      .cls-1 {
        fill: #5956af;
      }
    </style>
  </defs>
  <g id="Capa_1-2" data-name="Capa_1">
    <path class="cls-1" d="M500.73,54.45c-.93-2.89-2.62-5.53-5.66-6.47-1.98-.61-4.09-.57-6.16-.52-4.76.11-9.41.14-14.14.57-2.4.22-5.08-.06-6.72-1.83-2.46-2.65-2.34-7.64-3.14-10.99C459.16,11,441.68.35,419.08.4c-38.16.08-76.32.13-114.48.16-38.16.03-76.32.03-114.48.01-38.16-.02-76.32-.05-114.48-.1-17.28-.02-34.9-1.05-52.14,0-6.12.37-12.41,1.81-17.2,5.63C-.15,11.23.35,17.43.13,24.74c-.28,9.53,0,19.12,0,28.65v142.46c0,4.28.33,8.69.18,12.94-.13,3.52-.62,6.51.42,10,1.36,4.56,4.32,8.68,8.41,11.16,4.59,2.8,10.06,3.5,15.35,3.46s10.95-.01,16.38-.25c3.31-.14,4.72.54,5.52,4.31,5.51,26,28.45,44.29,54.91,44.24,26.4-.04,49.14-18.16,54.66-43.91.8-3.71,2.17-4.69,5.82-4.67,27.65.15,55.3.08,82.94.08,26.15,0,52.3,0,78.45,0,2.32,0,4.18-.32,4.94,3.17,5.91,27.22,28.05,45.31,54.99,45.33,26.82.02,48.88-17.86,54.93-44.78.72-3.22,2.17-3.81,5.06-3.77,9.82.14,19.65.07,29.48.05,15.52-.03,23.04-7.49,23.07-22.92.03-14.32-.32-28.66.1-42.97.57-19.28-2.55-37.85-8.5-56.15-5.19-15.95-9.62-32.15-14.52-48.68,3.9,0,7.24.25,10.53-.07,3.26-.32,4.7.92,5.6,3.97,2.4,8.13,5.16,16.15,7.62,24.25,1.48,4.87,5.23,9.44,10.9,7.12,2.6-1.07,4.5-3.69,4.7-6.49.38-5.33-3.59-12.17-5.21-17.22-2.09-6.52-4.02-13.09-6.12-19.6ZM14.95,24.84c.76-7.69.71-8.35,7.68-8.35,98.63,0,197.25,0,295.88,0,35.65,0,71.3-.01,106.96.01,9.15,0,18.13,6.01,20.59,13.91h-219.88c-67.97,0-135.94,0-203.91-.01-3.75,0-8,1.38-7.31-5.56ZM360.18,49.98c-.06-3.32.61-4.66,4.31-4.61,9.33.14,9.34-.06,9.34,9.48,0,18.66-.08,37.32.07,55.97.03,3.47-.51,5.02-4.54,4.93-9.11-.2-9.11.04-9.11-9.31,0-8.66,0-17.32,0-25.99,0-10.16.12-20.33-.07-30.48ZM294.02,99.19c-.13-4.87-2.85-7.78-7.16-7.92-4.49-.14-7.59,2.89-7.77,7.87-.15,4.32-.14,8.66,0,12.99.07,2.4-.41,3.49-3.22,3.59-10.11.38-10.11.51-10.11-9.71,0-18.65.11-37.3-.09-55.95-.04-3.75.94-4.79,4.7-4.69,8.68.23,8.68.02,8.68,8.55,0,3.16-.13,6.34.04,9.49.25,4.6,3.43,7.73,7.56,7.7,4.12-.03,7.22-3.21,7.35-7.82.13-4.83.16-9.66,0-14.49-.09-2.54.62-3.49,3.32-3.47,14.82.12,29.64.13,44.46-.01,3.02-.03,3.55,1.15,3.52,3.81-.12,10.49-.05,20.98-.05,31.47,0,10.49-.08,20.98.05,31.47.04,2.79-.79,3.76-3.65,3.73-14.65-.12-29.31-.11-43.96,0-2.77.02-3.85-.75-3.71-3.65.22-4.32.14-8.66.02-12.99ZM250.77,80.36c0,10.49-.09,20.98.06,31.46.04,3.03-.89,4.04-3.96,4.01-14.48-.13-28.97-.17-43.45.02-3.54.05-4.1-1.37-4.09-4.41.09-20.64.11-41.29-.02-61.93-.02-3.27.94-4.23,4.23-4.19,14.31.17,28.63.19,42.95-.01,3.65-.05,4.42,1.22,4.35,4.58-.2,10.15-.07,20.31-.07,30.46ZM171,49.02c-.05-2.87.85-3.58,3.65-3.62,9.74-.12,9.74-.24,9.74,9.51,0,18.8-.09,37.6.08,56.39.03,3.54-1.03,4.47-4.49,4.43-8.91-.13-8.92.04-8.92-8.82s0-17.97,0-26.95c0-10.31.1-20.63-.06-30.94ZM104.89,80.36c0-10.16.12-20.31-.07-30.46-.06-3.3.58-4.64,4.28-4.58,14.31.22,28.64.2,42.95,0,3.38-.04,4.09,1.07,4.08,4.23-.13,20.64-.15,41.29.02,61.93.03,3.58-1.1,4.41-4.5,4.37-14.15-.18-28.3-.2-42.45,0-3.61.05-4.45-1.13-4.38-4.54.21-10.32.08-20.64.07-30.96ZM76.24,49.86c-.03-3.48.91-4.53,4.43-4.48,9.22.13,9.23-.05,9.23,9.09s0,17.66,0,26.49c0,10.33-.08,20.66.05,30.98.04,2.78-.77,3.7-3.65,3.78-9.99.27-9.99.39-9.99-9.39,0-18.82.09-37.65-.08-56.47ZM15.06,49.61c-.02-3.06.52-4.35,4.01-4.29,12.82.22,25.64.19,38.46.01,3.18-.04,3.9,1.03,3.85,3.99-.16,10.49-.06,20.98-.06,31.47,0,10.16-.12,20.32.07,30.47.06,3.33-.65,4.66-4.33,4.6-12.65-.22-25.31-.21-37.96,0-3.45.06-4.06-1.22-4.05-4.3.12-20.65.11-41.3,0-61.94ZM101.74,266.72c-22.3.27-41.26-17.63-41.64-39.28-.41-23.51,17.54-42.53,40.57-43,22.66-.46,41.13,18,41.48,41.46.34,22.25-17.78,40.55-40.41,40.82ZM384.02,266.72c-22.49.47-41.65-17.5-42.02-39.4-.4-23.42,17.74-42.52,40.71-42.88,22.7-.36,40.98,18.03,41.34,41.59.34,21.99-17.6,40.22-40.03,40.69ZM480.68,211.67c.04,4.65-1.92,6.66-6.6,6.59-9.99-.13-20-.29-29.98.09-4.08.16-5.25-1.36-6.13-4.97-5.39-22.12-19.18-36.42-41.14-42.31-30.61-8.2-62.69,11.92-68.74,42.92-.64,3.29-1.81,4.31-5.12,4.3-53.81-.09-107.61-.12-161.42.05-3.81.01-4.64-1.56-5.4-4.61-5.97-23.93-20.98-38.63-45.25-43.44-29.13-5.78-58.88,14.12-64.63,43.35-.77,3.92-2.28,4.8-5.85,4.66-6.15-.24-12.32-.03-18.49-.08-5.59-.05-6.8-1.23-6.81-6.71-.03-15.49.13-30.99-.11-46.47-.06-3.95,1.04-4.94,4.95-4.93,65.8.12,131.6.09,197.4.08,2.15,0,4.33.25,6.43-.54,3.56-1.35,5.43-4,5.05-7.7-.37-3.65-2.55-6.13-6.39-6.59-1.97-.24-3.99-.15-5.99-.15-65.13,0-130.27-.06-195.4.1-4.69.01-6.37-.9-6.08-5.91.47-7.93.12-7.95,8.3-7.95,115.77,0,231.55.05,347.32-.13,7.16-.01,12.93,1.82,18.04,6.62,2.38,2.24,5.04,4.19,7.58,6.28l-.46.98c-6.8,0-13.61,0-20.41,0-38.15,0-76.29,0-114.44,0-1.83,0-3.68-.09-5.49.16-3.78.51-6,2.81-6.35,6.58-.36,3.79,1.48,6.33,5.02,7.7,2.1.81,4.28.54,6.43.54,49.97.02,99.95.05,149.92-.06,4.05,0,7.32.84,10.44,3.56,5.45,4.75,12,6.84,19.29,6.78,11.99-.1,23.99.08,35.98-.1,3.35-.05,4.64.69,4.57,4.34-.22,12.32-.16,24.65-.05,36.98ZM476.34,129.4c2.08,7.16,2.8,14.6,3.63,21.99.34,3.07-.76,3.99-3.86,3.95-11.65-.18-23.31-.04-34.97-.09-3.89-.02-7.51-.92-10.68-3.44-13.39-10.67-26.36-21.88-40.26-31.9-1.77-1.28-1.35-2.88-1.35-4.45-.04-10.99-.02-21.98-.02-32.97,0-10.99.11-21.98-.07-32.97-.05-3.24.85-4.22,4.15-4.19,18.32.15,36.64.14,54.95,0,2.74-.02,4.03.68,4.83,3.41,7.82,26.9,15.83,53.75,23.66,80.65Z"/>
    <path class="cls-1" d="M101.45,193.76c-17.59-.15-32.23,14.44-32.1,32.01.12,17.51,14.37,31.63,31.91,31.62,17.56,0,31.78-14.16,31.81-31.68.04-17.5-14.11-31.81-31.62-31.96ZM101.1,242.41c-9.25-.05-16.85-7.72-16.76-16.92.08-9.21,7.85-16.85,17.02-16.74,9.26.11,16.79,7.77,16.72,17-.07,9.29-7.63,16.71-16.98,16.65Z"/>
    <path class="cls-1" d="M382.95,193.76c-17.47.14-31.74,14.51-31.7,31.92.04,17.48,14.31,31.7,31.82,31.72,17.59.02,31.8-14.06,31.9-31.58.09-17.7-14.38-32.19-32.01-32.05ZM383.24,242.41c-9.3.04-16.91-7.43-17-16.68-.08-9.17,7.59-16.92,16.79-16.97,9.24-.05,16.91,7.53,16.94,16.77.04,9.32-7.42,16.84-16.73,16.89Z"/>
  </g>
</svg>