<?xml version="1.0" encoding="UTF-8"?>
<svg id="Capa_2" xmlns="http://www.w3.org/2000/svg" viewBox="0 0 691.38 301.89">
  <defs>
    <style>
      .cls-1 {
        fill: #2d2b5c;
      }
    </style>
  </defs>
  <g id="Capa_1-2" data-name="Capa_1">
    <g>
      <path class="cls-1" d="M333.04,241.71s-.08.03-.08.08c.8,6.06,1.67,11.42,2.15,16.81.52,5.71.91,11.45.92,17.17.02,15.31-9.64,23.88-23.95,25.64-14.59,1.79-28.53-1.65-42.04-6.86-25.32-9.76-48.07-23.62-67.21-43.01-5.61-5.68-10.91-11.74-13.02-19.77-1.57-5.96,1.42-11.77,7.5-12.32,9.5-.87,19.2-1.42,28.66-.5,23.45,2.29,46.81,5.5,70.21,8.29,4.26.51,8.55.75,13.68,1.19.04,0,.08-.04.07-.08-4.06-21.39-6.86-42.36-3.83-64.71,0-.06-.07-.1-.12-.06-1.44,1.27-2.14,1.81-2.73,2.44-7.31,7.86-15.34,14.7-26.07,17.33-7.45,1.83-11.6-.7-13.97-8.03-.3-.93-.64-1.86-1.02-2.76-.07-.17-.41-.22-1.04-.52-4.52,7.49-10.92,12.57-20.07,12.62-8.9.04-15.98-3.23-19-12.83l-.11-.03c-2.43,2.62-4.45,5.05-6.73,7.2-7.81,7.38-18.06,9.53-26.18,5.56-6.11-2.98-9.91-9.18-10.64-15.93-1.72-15.9,11.53-30.19,24.26-32.33,8.48-1.43,16.35,1.78,20.64,9.33.45.8.97,1.57,1.65,2.65h.12c2.4-3.42,5.47-3.86,8.87-3.19,5.28,1.04,8.69,6.16,7.75,11.46-.74,4.17-1,8.63-.34,12.78.36,2.25,2.68,5.32,4.7,5.87,1.99.54,5.48-.98,6.98-2.73,5.07-5.9,8.69-12.71,10.2-20.5,2.05-10.6,9.58-16.6,20.13-16.01,1.03.06,2.05.35,2.95.65s1.41,1.28,1.11,2.19c-2.26,6.89-4.47,13.27-6.34,19.75-.74,2.58-.88,5.47-.63,8.16.19,2.06.89,5.06,2.3,5.76,1.44.71,4.31-.42,6.04-1.54,7.18-4.63,12.34-11.15,16.4-18.59,2.61-4.78,4.98-9.72,7.88-14.32s8.44-5.14,12.29-1.37c5.08,4.97,5.81,9.63,2.59,15.87-5.06,9.8-5.91,20.46-4.83,31.03,1.47,14.36,4.12,28.6,6.19,42.9.18,1.24.72,3.21.81,3.51,0,.03.03.04.05.05.33.05,2.62.39,3.97.39,14.22.03,28.46.57,42.66-.06,15.08-.66,30-3.16,44.55-7.41,3.34-.97,6.65-2.16,10.07-2.75,4.24-.73,5.97.96,5.31,5.24-.39,2.52-1.26,5.17-2.63,7.3-6.47,10.05-15.57,16.72-27.73,16.29-16.54-.58-33.05-2.31-49.54-3.87-7.76-.73-15.45-2.22-23.78-3.45ZM233.6,226.86c-.76-.02-1.52-.01-2.29.05-3.77.29-7.62.44-11.33,1.22-3.98.84-5.38,3.49-3.95,7.34,1.5,4.05,3.07,8.31,5.65,11.68,18.1,23.6,42.19,38.35,70.6,46.12,10.81,2.96,17.79-.9,20.41-10.05.88-3.08,1.58-6.4,1.42-9.56-.57-10.93-1.56-21.84-2.4-32.76-.07-.91-.44-2.46-.51-2.73,0-.03-.02-.04-.05-.05-.27-.05-1.77-.31-2.75-.46-13.65-2.16-27.24-4.69-40.9-6.71-6.17-.91-12.36-1.68-18.55-2.4-2.97-.35-5.95-.69-8.92-1.04-2.16-.25-4.27-.58-6.42-.65ZM220.59,157.98h0c0-6.69-1.96-10.19-5.8-12.03-4.17-2-8.06-1.25-11.53,1.51-5.79,4.59-8.69,18.06-5.5,24.84,2.44,5.16,7.36,6.78,12.01,3.53,6.69-4.68,10.37-11.21,10.81-17.84Z"/>
      <path class="cls-1" d="M158.42,204.8c-.72,1.79-1.08,3.54-2.02,4.87-10.6,14.91-23.83,26.43-41.77,31.68-21.27,6.23-41.31-8.67-42.73-30.54-.97-14.93,2.48-28.99,7.74-42.71,11.48-29.95,28.07-57.21,44.88-84.34,4-6.46,8.19-12.81,12.28-19.22,0,0,.01-.02.02-.02.94-1.48.08-3.45-1.64-3.82-2.09-.45-4.06-.87-6.05-1.17-18.85-2.87-37.64-6.53-56.82-6.06-18.29.45-36.07,3.35-51.59,13.92-4.8,3.27-8.85,7.63-13.38,11.32-.83.67-1.82,1.15-2.83,1.6-1.19.53-2.6.08-3.25-1.05S0,76.99,0,75.85c-.06-9.6,3.56-18.07,9.41-25.45,11.4-14.4,26.57-22.03,44.63-24.71,20.92-3.1,41.09.84,60.9,6.52,21.89,6.28,43.35,14.02,65.15,20.64,18.16,5.51,36.53,10.31,55.85,8.62,3.72-.33,7.44-.88,11.16-.82.53,0,1.06.21,1.59.5,1.51.82,1.8,2.91.53,4.07-.38.35-.79.62-1.23.73-5.53,1.39-11.12,2.73-16.77,3.45-23.18,2.94-46.02-.56-68.83-4.17-3.94-.62-7.86-1.44-11.82-1.84-1.2-.12-3.06.5-3.7,1.42-17.58,25.43-32.82,52.12-42.31,81.71-4.08,12.72-7.11,25.77-5.79,39.33.35,3.57,1.06,7.2,2.29,10.56,3.86,10.5,11.82,15.86,23.17,16.3,10.27.4,19.6-2.98,28.84-6.82,1.26-.52,2.54-1.01,3.82-1.47.19-.07.47.11,1.52.38Z"/>
      <path class="cls-1" d="M688.36,143.82c-.58.2-1.14.37-1.71.53-5.27,1.41-10.55,2.84-15.87,4.03-.93.21-2.6-.34-3.1-1.1-5.34-8.08-8.11-9.3-17.18-6.81-.04.01-.08-.01-.09-.05-2.44-8.81-9.08-10.68-16.86-10.41-11.07.38-22.8,12.84-23.5,25.44-.4,7.1-3.8,12.26-8.81,16.62-4.66,4.05-9.69,3.79-13.33-1.16-2.45-3.33-4.23-7.35-5.51-11.32-3.09-9.59-4.6-18.35,1.03-28.69,15.85-29.14,29.16-59.57,34.83-92.6,1.33-7.74.94-15.86.53-23.77-.29-5.72-4.4-9.29-9.24-9.64-5.05-.37-9.64.86-13.74,3.85-8.13,5.94-13.05,14.3-17.13,23.2-7.75,16.89-12.21,34.77-14.97,53.06-2.26,14.94-3.45,29.98-2.62,45.12.16,2.9.04,7.02.04,9.12-4.2-2.37-9.8-3.15-14.25-2.53-12.21,1.69-19.29,9.88-23.93,20.72-1.65,3.86-3.39,7.84-5.89,11.16-6.26,8.32-13.16,7.45-17.64-1.88-.43-.9-.9-1.81-1.11-2.77-1.78-7.88-3.61-15.76-5.13-23.69-.25-1.29.53-3.26,1.51-4.22,9.76-9.47,16.36-21.04,22.06-33.15,10.1-21.46,16.81-43.97,19.42-67.57,1-9.05,1.26-18.18-1.76-27.05-2.37-6.95-6.92-9.79-13.83-7.44-3.88,1.32-7.86,3.47-10.78,6.3-12.87,12.48-18.93,28.77-23.99,45.43-5.38,17.72-8.5,35.9-9.9,54.35-1.17,15.45-1.28,30.9,1.37,46.27.32,1.84.18,4.11-.63,5.74-2.32,4.65-4.73,9.36-7.87,13.46-1.37,1.79-4.62,3.05-6.97,2.98-3.21-.09-4.76-3.26-4.95-6.19-.26-4.06-.29-8.26.45-12.24,1.28-6.9-1.03-11.04-8.08-11.71-2.87-.27-5.9,1.06-9.49,1.8.3.41-.11-.05-.41-.57-4.96-8.8-12.18-12.05-21.95-9.74-12.5,2.95-19.53,11.53-22.83,23.3-1.37,4.88-3.97,8.51-7.61,11.59-4.69,3.97-9.79,3.47-13.77-1.27-1.43-1.7-2.7-3.61-3.62-5.63-4-8.85-5.67-18.3-6.74-27.86-.15-1.38.58-3.11,1.42-4.32,6.73-9.72,13.82-19.19,20.25-29.1,1.12-1.73,2.83-4.08,2.83-4.08,0,0,2.95.4,4.57.56,13.01,1.29,26.05,2.77,39.1,3,10.48.19,20.26-3.32,27.46-11.51,4.78-5.44,7.42-11.88,5.45-19.34-1.44-5.44-4.81-6.41-9.06-2.69-1.87,1.64-3.39,3.68-5.27,5.29-11.18,9.59-24.69,13.24-38.9,14.64-5.48.54-11.05.17-16.87.11-.44,0-1.67-.15-1.67-.15,0,0,.48-1.05.59-1.37.15-.43.27-.78.4-1.13,3.59-9.94,7.58-19.77,10.64-29.87,2.45-8.1,3.77-16.53,1.87-25.11-1.3-5.86-4.2-8.37-10.11-8.33-7.4.05-12.99,3.85-18,8.76-12.04,11.79-18.34,26.79-23.59,42.37-1.1,3.26-3.63,9.34-3.63,9.34,0,0-6.91-.41-10.47-.89-13.94-1.88-33.73-4.21-47.85-1.75-7.79,1.35-8.44,2.18-17.09,5.23-1.54.54-3.47,1.37-3.69,3.73-.08.88.65,1.52,1.53,1.41,1.64-.2,3.21-.35,4.6-1.02,9.15-4.47,19.35-6.38,29.49-5.47,15.52,1.4,25.99,2.45,40.3,6.2.74.19,2.14.75,2.14.75.38.06-.12,1.49-.27,2.63-1.4,10.99-3.23,21.95-3.96,32.99-.87,13.25.15,26.49,5.15,39,8.01,20,26.38,23.77,42,8.82.75-.72,1.61-1.33,2.56-2.1l.87,1.67c5.01,9.56,12.85,13.12,23.29,10.63,6.75-1.62,11.75-5.77,16.1-10.92.81-.96,1.64-1.89,2.65-3.05,4.08,9.93,12.34,14.41,22.39,12.66,7.72-1.34,12.96-6,16.87-12.48,1.03-1.71,2.17-3.36,3.48-5.38.02-.03.07-.03.09,0,3.98,8.63,7.7,16.7,18.06,17.69,9.69.93,16.8-4.18,23.29-10.97.6,1.11.97,1.72,1.28,2.36,3.83,8.09,12.09,11.63,20.51,8.75,8.18-2.8,13.76-8.76,18.71-15.49,1.1-1.5,2.32-2.92,3.66-4.59.03-.03.08-.03.1,0,4.74,9.42,7.7,19.76,20.35,20.45,11.64.63,18.78-6.4,25.21-14.95.01-.02.04-.02.06,0,1.54,1.93,2.71,3.69,4.18,5.17,7.88,7.91,17.45,9.73,27.95,7.11,12.76-3.19,21.55-10.61,24.07-24.1.45-2.4,1.78-2.99,4.02-3.53,5.38-1.31,10.75-2.87,15.9-4.89,1.24-.49,2.4-1.27,3.19-2.42,1.2-1.74-.63-4-2.63-3.32ZM363.46,84.3c.54-4.79,1.42-9.66,2.49-14.28.8-3.44,1.78-6.84,3.02-10.14,1.13-2.99,2.47-5.89,4.06-8.66,1.55-2.7,3.95-5.22,6.54-6.96,4.7-3.14,8.81-1.44,10.34,3.97.69,2.42.74,5.02.93,6.56,0,.07.01.13,0,.19,0,.19-.02.37-.03.56.01.11.02.23.04.34-.52,11.92-3.77,22.09-7.6,32.08-.13.33-.43,1.24-.59,1.72-.06.19-.24.3-.43.28-2.9-.3-19.13-1.91-19.13-1.99.09-1.22.21-2.45.35-3.68ZM361.96,116.69c0-1.34,0-2.68,0-4.02,0-.96,0-1.92,0-2.89,0-1.41.01-2.82.03-4.23,0-.76,0-1.52.02-2.28.02-2.15.06-4.31.11-6.46,0-.29.05-1.97.05-1.98,5.49.74,10.86,1.96,16.27,3.1-.15.37-.31.73-.47,1.1-.01.06-.03.11-.05.17-.2.49-.43.97-.64,1.46-.18.4-.35.81-.53,1.21-.38.83-.78,1.65-1.19,2.47-.13.26-.25.53-.39.79-.55,1.07-1.12,2.12-1.71,3.16-.15.26-.31.51-.46.77-.46.78-.92,1.55-1.4,2.31-.23.37-.47.73-.71,1.09-.42.64-.85,1.28-1.28,1.91-.27.38-.54.77-.82,1.15-.43.6-.88,1.2-1.33,1.79-.29.38-.57.75-.87,1.12-.47.6-.96,1.2-1.46,1.79-.28.34-.57.69-.86,1.03-.11.12-.2.25-.31.37-.02.03-.05.04-.08.07-.63.73-1.27,1.47-1.93,2.18,0-2.39,0-4.78,0-7.17ZM436.22,158.52v.02c-.6,6.37-4.26,12.79-10.86,17.35-4.64,3.2-9.57,1.5-11.95-3.7-3.14-6.85-.42-19.69,5.33-24.55,3.53-2.98,7.55-3.74,11.82-1.63,4.47,2.21,5.85,6.14,5.67,12.52ZM491.87,125.16c-.04-.69-.08-1.37-.11-2.06-.18-3.15-.3-6.31-.37-9.46-.29-12.38.1-24.83,1.25-37.16.91-9.72,2.15-19.67,4.62-29.13,1.36-5.89,3.41-11.72,5.96-17.2,1.31-2.81,4.08-5.29,6.78-7.01,2.75-1.76,5.95-.6,7.16,2.46,1.54,3.87,3.27,8.08,3.17,12.1-.26,10.55-.79,21.18-2.47,31.58-2.38,14.78-6.93,29.07-13.57,42.55-.39.78-.79,1.56-1.21,2.33-.12.21-.23.43-.35.64-.34.62-.69,1.24-1.04,1.85-.09.15-.17.3-.26.45-.44.75-.88,1.49-1.33,2.23-.12.2-.24.39-.36.59-.36.59-.73,1.19-1.1,1.78-.13.22-.27.43-.4.65-.46.74-.93,1.48-1.39,2.22-1.53,2.44-3.05,4.89-4.45,7.4.23-.41-.04-1.62-.07-2.09-.05-.77-.13-1.54-.24-2.31s-.18-1.6-.23-2.41ZM562.01,159.33c-3.35,4-6.65,8.04-10.15,11.89-1.04,1.14-2.64,1.9-4.12,2.5-4.78,1.93-8.61-.56-8.88-5.64-.33-6.21,1.53-11.83,4.84-16.96,2.14-3.31,7.85-7.45,12.09-6.19.54.16,1.03.45,1.51.74,4.85,2.92,9.28,8.2,4.71,13.65ZM576.48,124.03c-.16-2.13-.25-4.26-.3-6.39-.1-4.57,0-9.14.11-13.71.24-10.18.34-20.37,1.08-30.52,1.1-15.01,3.34-30.01,10.25-43.71,1.33-2.63,3.7-5.01,6.15-6.73,2.95-2.08,6.46-.98,7.73,2.37,1.21,3.2,2.01,6.73,2.11,10.13.32,11.32-2.47,22.23-5.15,33.12-4.72,19.13-11.2,37.67-18.7,55.86,0,.02-.02.04-.03.06-.84,2.03-1.9,3.96-2.64,6.02.3-.85-.07-1.77-.22-2.6-.2-1.1-.24-2.25-.33-3.36-.01-.18-.03-.36-.04-.55ZM657.12,163.62c-2.27,5.98-6.86,9.46-14.36,9.49-4.15-.05-8.24-3.12-11.26-8-4.68-7.58-4.16-17.56,1.26-23.35,3.39-3.62,7.05-4.49,10.65-2.34,2.31,1.38,4.19,2.78,2.77,6.27-1.18,2.89.17,5.65,3.05,7.26.96.54,2.04.95,3.11,1.22,6.97,1.74,7.39,2.55,4.78,9.43Z"/>
      <g>
        <path class="cls-1" d="M473.85,226.41l-2.2,2.1c-1.5-1.58-3.18-2.37-5.05-2.37-1.58,0-2.91.54-3.99,1.62s-1.62,2.41-1.62,3.99c0,1.1.24,2.08.72,2.93.48.85,1.16,1.53,2.03,2.01.88.49,1.85.73,2.92.73.91,0,1.75-.17,2.5-.51s1.59-.96,2.49-1.86l2.13,2.22c-1.22,1.19-2.37,2.02-3.46,2.48s-2.33.69-3.72.69c-2.57,0-4.67-.81-6.31-2.44-1.64-1.63-2.45-3.72-2.45-6.26,0-1.65.37-3.11,1.12-4.39.75-1.28,1.81-2.31,3.2-3.09s2.88-1.17,4.49-1.17c1.36,0,2.67.29,3.94.86s2.35,1.39,3.26,2.46Z"/>
        <path class="cls-1" d="M478.34,222.78c.54,0,1,.19,1.38.58s.58.86.58,1.42-.19,1.01-.57,1.4c-.38.38-.84.58-1.37.58s-1.01-.2-1.39-.59c-.38-.39-.58-.87-.58-1.43s.19-1,.57-1.38c.38-.38.84-.57,1.38-.57ZM476.8,227.81h3.07v12.22h-3.07v-12.22Z"/>
        <path class="cls-1" d="M482.81,227.81h2.63v1.54c.28-.61.66-1.07,1.13-1.38.47-.31.99-.47,1.55-.47.4,0,.81.1,1.25.31l-.95,2.64c-.36-.18-.66-.27-.89-.27-.47,0-.87.29-1.2.88-.33.58-.49,1.73-.49,3.44v.59s.01,4.94.01,4.94h-3.04v-12.22Z"/>
        <path class="cls-1" d="M503.72,230.28l-2.55,1.4c-.48-.5-.95-.85-1.42-1.04-.47-.19-1.02-.29-1.65-.29-1.15,0-2.08.34-2.78,1.03-.71.68-1.06,1.56-1.06,2.63s.34,1.89,1.02,2.55c.68.66,1.58.99,2.69.99,1.37,0,2.44-.47,3.21-1.4l2.42,1.66c-1.31,1.7-3.16,2.56-5.55,2.56-2.15,0-3.83-.64-5.05-1.91s-1.82-2.76-1.82-4.47c0-1.18.29-2.27.89-3.27.59-1,1.42-1.78,2.48-2.35s2.24-.85,3.55-.85c1.21,0,2.3.24,3.27.72.97.48,1.76,1.17,2.37,2.06Z"/>
        <path class="cls-1" d="M507.34,227.81h3.1v5.88c0,1.15.08,1.94.24,2.39.16.45.41.79.76,1.04.35.25.78.37,1.29.37s.94-.12,1.3-.37c.36-.24.62-.6.79-1.07.13-.35.19-1.1.19-2.26v-5.99h3.07v5.18c0,2.13-.17,3.59-.51,4.38-.41.96-1.02,1.69-1.82,2.21s-1.82.77-3.05.77c-1.34,0-2.42-.3-3.25-.9s-1.41-1.43-1.75-2.5c-.24-.74-.36-2.09-.36-4.04v-5.09Z"/>
        <path class="cls-1" d="M523.23,222.78c.54,0,1,.19,1.38.58s.58.86.58,1.42-.19,1.01-.57,1.4c-.38.38-.84.58-1.37.58s-1.01-.2-1.39-.59c-.38-.39-.58-.87-.58-1.43s.19-1,.57-1.38c.38-.38.84-.57,1.38-.57ZM521.69,227.81h3.07v12.22h-3.07v-12.22Z"/>
        <path class="cls-1" d="M528.79,223.31h3.07v4.5h1.82v2.64h-1.82v9.58h-3.07v-9.58h-1.57v-2.64h1.57v-4.5Z"/>
        <path class="cls-1" d="M541.93,227.49c1.15,0,2.24.29,3.25.86,1.01.58,1.81,1.36,2.38,2.35s.85,2.05.85,3.2-.29,2.23-.86,3.23c-.57,1-1.35,1.79-2.34,2.35s-2.08.85-3.27.85c-1.75,0-3.25-.62-4.49-1.87-1.24-1.25-1.86-2.76-1.86-4.54,0-1.91.7-3.5,2.1-4.77,1.23-1.11,2.64-1.66,4.23-1.66ZM541.98,230.38c-.95,0-1.75.33-2.38.99-.63.66-.95,1.51-.95,2.54s.31,1.92.94,2.58,1.42.99,2.38.99,1.76-.33,2.4-1c.64-.67.96-1.52.96-2.57s-.31-1.9-.94-2.55c-.63-.66-1.43-.98-2.4-.98Z"/>
        <path class="cls-1" d="M559.26,229.52l-1.9,1.9c-.77-.76-1.47-1.14-2.1-1.14-.34,0-.61.07-.81.22-.19.15-.29.33-.29.54,0,.16.06.32.19.45.12.14.43.33.92.57l1.12.56c1.18.58,2,1.18,2.44,1.79.44.61.66,1.32.66,2.13,0,1.09-.4,1.99-1.2,2.72-.8.73-1.87,1.09-3.21,1.09-1.78,0-3.2-.7-4.27-2.09l1.89-2.05c.36.42.78.76,1.26,1.02.48.26.91.39,1.29.39.4,0,.73-.1.98-.29s.37-.42.37-.67c0-.47-.45-.93-1.34-1.38l-1.03-.52c-1.98-1-2.96-2.24-2.96-3.74,0-.97.37-1.79,1.12-2.48.75-.68,1.7-1.03,2.86-1.03.79,0,1.54.17,2.24.52.7.35,1.29.85,1.78,1.5Z"/>
        <path class="cls-1" d="M568.8,223.51h9.13v3.1h-3.01v13.42h-3.19v-13.42h-2.93v-3.1Z"/>
        <path class="cls-1" d="M580.61,227.81h3.1v5.88c0,1.15.08,1.94.24,2.39.16.45.41.79.76,1.04.35.25.78.37,1.29.37s.94-.12,1.3-.37c.36-.24.62-.6.79-1.07.13-.35.19-1.1.19-2.26v-5.99h3.07v5.18c0,2.13-.17,3.59-.51,4.38-.41.96-1.02,1.69-1.82,2.21s-1.82.77-3.05.77c-1.34,0-2.42-.3-3.25-.9s-1.41-1.43-1.75-2.5c-.24-.74-.36-2.09-.36-4.04v-5.09Z"/>
        <path class="cls-1" d="M594.58,227.81h2.63v1.54c.28-.61.66-1.07,1.13-1.38.47-.31.99-.47,1.55-.47.4,0,.81.1,1.25.31l-.95,2.64c-.36-.18-.66-.27-.89-.27-.47,0-.87.29-1.2.88-.33.58-.49,1.73-.49,3.44v.59s.01,4.94.01,4.94h-3.04v-12.22Z"/>
        <path class="cls-1" d="M604.72,222.78c.54,0,1,.19,1.38.58s.58.86.58,1.42-.19,1.01-.57,1.4c-.38.38-.84.58-1.37.58s-1.01-.2-1.39-.59c-.38-.39-.58-.87-.58-1.43s.19-1,.57-1.38c.38-.38.84-.57,1.38-.57ZM603.19,227.81h3.07v12.22h-3.07v-12.22Z"/>
        <path class="cls-1" d="M617.39,229.52l-1.9,1.9c-.77-.76-1.47-1.14-2.1-1.14-.34,0-.61.07-.81.22-.19.15-.29.33-.29.54,0,.16.06.32.19.45.12.14.43.33.92.57l1.12.56c1.18.58,2,1.18,2.44,1.79.44.61.66,1.32.66,2.13,0,1.09-.4,1.99-1.2,2.72-.8.73-1.87,1.09-3.21,1.09-1.78,0-3.2-.7-4.27-2.09l1.89-2.05c.36.42.78.76,1.26,1.02.48.26.91.39,1.29.39.4,0,.73-.1.98-.29s.37-.42.37-.67c0-.47-.45-.93-1.34-1.38l-1.03-.52c-1.98-1-2.96-2.24-2.96-3.74,0-.97.37-1.79,1.12-2.48.75-.68,1.7-1.03,2.86-1.03.79,0,1.54.17,2.24.52.7.35,1.29.85,1.78,1.5Z"/>
        <path class="cls-1" d="M621.28,223.31h3.07v4.5h1.82v2.64h-1.82v9.58h-3.07v-9.58h-1.57v-2.64h1.57v-4.5Z"/>
        <path class="cls-1" d="M629.87,222.78c.54,0,1,.19,1.38.58s.58.86.58,1.42-.19,1.01-.57,1.4c-.38.38-.84.58-1.37.58s-1.01-.2-1.39-.59c-.38-.39-.58-.87-.58-1.43s.19-1,.57-1.38c.38-.38.84-.57,1.38-.57ZM628.34,227.81h3.07v12.22h-3.07v-12.22Z"/>
        <path class="cls-1" d="M647.03,230.28l-2.55,1.4c-.48-.5-.95-.85-1.42-1.04-.47-.19-1.02-.29-1.65-.29-1.15,0-2.08.34-2.78,1.03-.71.68-1.06,1.56-1.06,2.63s.34,1.89,1.02,2.55c.68.66,1.58.99,2.69.99,1.37,0,2.44-.47,3.21-1.4l2.42,1.66c-1.31,1.7-3.16,2.56-5.55,2.56-2.15,0-3.83-.64-5.05-1.91s-1.82-2.76-1.82-4.47c0-1.18.29-2.27.89-3.27.59-1,1.42-1.78,2.48-2.35s2.24-.85,3.55-.85c1.21,0,2.3.24,3.27.72.97.48,1.76,1.17,2.37,2.06Z"/>
        <path class="cls-1" d="M656.4,227.49c1.15,0,2.24.29,3.25.86,1.01.58,1.81,1.36,2.38,2.35s.85,2.05.85,3.2-.29,2.23-.86,3.23c-.57,1-1.35,1.79-2.34,2.35s-2.08.85-3.27.85c-1.75,0-3.25-.62-4.49-1.87-1.24-1.25-1.86-2.76-1.86-4.54,0-1.91.7-3.5,2.1-4.77,1.23-1.11,2.64-1.66,4.23-1.66ZM656.45,230.38c-.95,0-1.75.33-2.38.99-.63.66-.95,1.51-.95,2.54s.31,1.92.94,2.58,1.42.99,2.38.99,1.76-.33,2.4-1c.64-.67.96-1.52.96-2.57s-.31-1.9-.94-2.55c-.63-.66-1.43-.98-2.4-.98Z"/>
        <path class="cls-1" d="M673.74,229.52l-1.9,1.9c-.77-.76-1.47-1.14-2.1-1.14-.34,0-.61.07-.81.22-.19.15-.29.33-.29.54,0,.16.06.32.19.45.12.14.43.33.92.57l1.12.56c1.18.58,2,1.18,2.44,1.79.44.61.66,1.32.66,2.13,0,1.09-.4,1.99-1.2,2.72-.8.73-1.87,1.09-3.21,1.09-1.78,0-3.2-.7-4.27-2.09l1.89-2.05c.36.42.78.76,1.26,1.02.48.26.91.39,1.29.39.4,0,.73-.1.98-.29s.37-.42.37-.67c0-.47-.45-.93-1.34-1.38l-1.03-.52c-1.98-1-2.96-2.24-2.96-3.74,0-.97.37-1.79,1.12-2.48.75-.68,1.7-1.03,2.86-1.03.79,0,1.54.17,2.24.52.7.35,1.29.85,1.78,1.5Z"/>
      </g>
    </g>
  </g>
</svg>